<svg width="20" height="30" viewBox="0 0 20 30" fill="none" xmlns="http://www.w3.org/2000/svg">
<path d="M0.461853 15.4316L2.23165 4.6947H9.90078L7.42306 11.8919H14.5023L2.23165 29L5.88923 15.4316H0.461853Z" fill="#11EFE3" stroke="#11EFE3" stroke-width="0.5" stroke-linejoin="round"/>
<path d="M6.27726 3.3781L7.07943 4.6296C7.11366 4.683 7.12053 4.74946 7.09795 4.80873L6.566 6.205C6.54379 6.26332 6.49562 6.30792 6.43578 6.3256L5.01546 6.74524C4.93046 6.77035 4.87213 6.84841 4.87213 6.93704V8.7424C4.87213 8.83417 4.93459 8.91417 5.02362 8.93642L6.4295 9.28789C6.49294 9.30375 6.54462 9.34962 6.5679 9.41073L7.09795 10.8022C7.12053 10.8615 7.11365 10.9279 7.07943 10.9813L6.27944 12.2293C6.22822 12.3092 6.24021 12.4141 6.30815 12.4804L7.62308 13.7632C7.68977 13.8283 7.79253 13.8387 7.8709 13.7883L9.23218 12.9132C9.28733 12.8778 9.35636 12.8716 9.41693 12.8967L10.7653 13.4558C10.8279 13.4818 10.8732 13.5377 10.8854 13.6044L11.1749 15.1807C11.1924 15.2756 11.2751 15.3445 11.3716 15.3445H13.3722C13.4702 15.3445 13.5538 15.2735 13.5696 15.1768L13.8254 13.6095C13.8368 13.54 13.8838 13.4816 13.9493 13.4557L15.3622 12.8971C15.426 12.8719 15.4982 12.8811 15.5536 12.9215L16.7146 13.7688C16.797 13.8289 16.9115 13.8174 16.9802 13.7421L18.3464 12.2458C18.404 12.1827 18.4152 12.0901 18.3743 12.0151L17.8106 10.9817C17.7812 10.9279 17.7782 10.8635 17.8024 10.8071L18.4057 9.3994C18.4291 9.34479 18.4756 9.30341 18.5325 9.28648L19.6944 8.94107C19.7792 8.91584 19.8374 8.83786 19.8374 8.74936V6.71757C19.8374 6.62579 19.7749 6.5458 19.6859 6.52354L18.2758 6.17101C18.2147 6.15574 18.1644 6.11262 18.1399 6.0546L17.6113 4.79928C17.5887 4.74547 17.5906 4.68444 17.6167 4.63222L18.3718 3.12199C18.4133 3.03898 18.3922 2.93832 18.3209 2.87891L16.9771 1.7591C16.9076 1.70123 16.808 1.69713 16.7341 1.74911L15.5529 2.57916C15.4978 2.61787 15.427 2.62627 15.3644 2.60152L13.9485 2.04175C13.8834 2.01604 13.8366 1.95824 13.8248 1.88931L13.5705 0.395078C13.5541 0.298953 13.4708 0.228638 13.3733 0.228638H11.3704C11.2744 0.228638 11.192 0.296783 11.1739 0.391023L10.886 1.89449C10.8734 1.96056 10.8284 2.01585 10.7662 2.04162L9.41494 2.6019C9.35548 2.62655 9.28779 2.62108 9.23306 2.5872L7.87337 1.74544C7.79369 1.69612 7.69044 1.70873 7.62498 1.77579L6.30253 3.13047C6.23751 3.19707 6.22703 3.29973 6.27726 3.3781Z" fill="#9966FF" style="mix-blend-mode:multiply"/>
<circle cx="12.3547" cy="7.78662" r="3.91186" fill="white"/>
</svg>
