<svg width="33" height="28" viewBox="0 0 33 28" fill="none" xmlns="http://www.w3.org/2000/svg">
<path d="M9.74244 9.67808V1.45874C9.74244 0.906456 10.1902 0.45874 10.7424 0.45874H14.4315C14.9838 0.45874 15.4315 0.906457 15.4315 1.45874V9.6788C15.4315 9.72333 15.461 9.7625 15.5038 9.77487L17.7343 10.4199C18.4736 10.6337 18.7044 11.5674 18.15 12.1011L13.1113 16.9508C12.7197 17.3278 12.0987 17.3229 11.7131 16.9398L6.8534 12.1114C6.30959 11.5711 6.55095 10.645 7.28931 10.4389L9.66933 9.77439C9.71255 9.76233 9.74244 9.72295 9.74244 9.67808Z" fill="#11EFE3"/>
<path d="M0.406006 15.6229C0.406006 15.0706 0.85372 14.6229 1.406 14.6229L4.38514 14.6229C4.93743 14.6229 5.38514 15.0706 5.38514 15.6229V17.5784C5.38514 18.1307 5.83286 18.5784 6.38514 18.5784H12.2154H18.5455C19.0977 18.5784 19.5455 18.1307 19.5455 17.5784V15.6229C19.5455 15.0706 19.9932 14.6229 20.5455 14.6229H23.6256C24.1779 14.6229 24.6256 15.0706 24.6256 15.6229V21.8675C24.6256 22.4198 24.1779 22.8675 23.6256 22.8675H1.40601C0.853722 22.8675 0.406006 22.4198 0.406006 21.8675V15.6229Z" fill="#11EFE3"/>
<circle cx="21.4693" cy="16.714" r="9.11838" fill="#9966FF" style="mix-blend-mode:multiply"/>
<path d="M14.5111 14.004H17.4211V15.004H15.6111V16.954H17.0311V17.954H15.6111V21.004H14.5111V14.004ZM17.9486 14.004H19.5786C20.1453 14.004 20.5586 14.1374 20.8186 14.404C21.0786 14.664 21.2086 15.0674 21.2086 15.614V16.044C21.2086 16.7707 20.9686 17.2307 20.4886 17.424V17.444C20.7553 17.524 20.942 17.6874 21.0486 17.934C21.162 18.1807 21.2186 18.5107 21.2186 18.924V20.154C21.2186 20.354 21.2253 20.5174 21.2386 20.644C21.252 20.764 21.2853 20.884 21.3386 21.004H20.2186C20.1786 20.8907 20.152 20.784 20.1386 20.684C20.1253 20.584 20.1186 20.404 20.1186 20.144V18.864C20.1186 18.544 20.0653 18.3207 19.9586 18.194C19.8586 18.0674 19.682 18.004 19.4286 18.004H19.0486V21.004H17.9486V14.004ZM19.4486 17.004C19.6686 17.004 19.832 16.9474 19.9386 16.834C20.052 16.7207 20.1086 16.5307 20.1086 16.264V15.724C20.1086 15.4707 20.062 15.2874 19.9686 15.174C19.882 15.0607 19.742 15.004 19.5486 15.004H19.0486V17.004H19.4486ZM21.9819 14.004H24.9819V15.004H23.0819V16.854H24.5919V17.854H23.0819V20.004H24.9819V21.004H21.9819V14.004ZM25.6147 14.004H28.6147V15.004H26.7147V16.854H28.2247V17.854H26.7147V20.004H28.6147V21.004H25.6147V14.004Z" fill="white"/>
</svg>
