<svg width="28" height="31" viewBox="0 0 28 31" fill="none" xmlns="http://www.w3.org/2000/svg">
<path d="M21.4314 0.612793H7.32222C4.09151 6.18669 1.18181 5.8181 1.1385 6.18669C-0.693535 21.7762 14.017 30.6426 14.4639 30.3988C28.3262 22.8359 28.3989 9.49626 27.528 6.18669C27.1297 4.67337 25.4377 7.31891 21.4314 0.612793Z" fill="#11EFE3"/>
<path d="M20.7716 2.01221H7.98809C5.06092 7.0624 2.42461 6.72844 2.38537 7.0624C0.725468 21.1871 14.0539 29.2205 14.4587 28.9996C27.0186 22.1473 27.0844 10.061 26.2954 7.0624C25.9346 5.69126 24.4015 8.08824 20.7716 2.01221Z" stroke="white"/>
<path d="M13.0804 19.7303L7.33421 14.0313C7.16878 13.8672 7.17804 13.597 7.35432 13.4447L9.18962 11.8583C9.35106 11.7188 9.59361 11.7305 9.7408 11.885L13.2829 15.6029C13.3237 15.6458 13.3928 15.6439 13.4313 15.5989L20.5261 7.30029C20.6647 7.13813 20.9062 7.11331 21.075 7.24388L23.026 8.75373C23.2104 8.8965 23.2341 9.1662 23.0773 9.33892L13.6582 19.7151C13.5051 19.8838 13.2422 19.8907 13.0804 19.7303Z" fill="#9966FF" style="mix-blend-mode:multiply"/>
</svg>
