<svg width="33" height="33" viewBox="0 0 33 33" fill="none" xmlns="http://www.w3.org/2000/svg">
<path fill-rule="evenodd" clip-rule="evenodd" d="M5.30284 21.0529C4.79061 21.1902 4.53449 21.2588 4.437 21.4746C4.33951 21.6905 4.45138 21.916 4.67513 22.367C5.36119 23.7499 6.28797 25.0087 7.41947 26.0811C9.27109 27.8361 11.5916 29.0169 14.1003 29.4807C16.6089 29.9445 19.1982 29.6714 21.5549 28.6944C23.9116 27.7174 25.9347 26.0785 27.3794 23.9758C28.8241 21.8731 29.6286 19.3969 29.6954 16.8466C29.7623 14.2963 29.0887 11.7812 27.7561 9.60577C26.4235 7.43029 24.4891 5.68759 22.1868 4.58849C20.1861 3.63337 17.9821 3.19985 15.7791 3.32036C15.3259 3.34515 15.0992 3.35755 14.9598 3.5255C14.8204 3.69346 14.8515 3.93038 14.9136 4.40424L15.0111 5.14767L17.8712 15.8217L17.8738 15.8312L17.8738 15.8312C17.8862 15.8762 17.9279 16.028 17.9473 16.1786C17.974 16.386 17.9906 16.7935 17.7452 17.2187C17.4997 17.6438 17.1385 17.8332 16.9456 17.9137C16.8053 17.9722 16.653 18.012 16.6079 18.0238L16.5984 18.0263L5.30284 21.0529Z" fill="#11EFE3"/>
<path d="M12.4883 1.52815C12.3649 1.06764 12.3032 0.837387 12.1129 0.735086C11.9227 0.632785 11.7058 0.705239 11.272 0.850148C9.5378 1.42947 7.90967 2.29379 6.45544 3.40967C4.73639 4.72874 3.29399 6.37349 2.21058 8.25C1.12718 10.1265 0.423985 12.198 0.14116 14.3463C-0.0980981 16.1637 -0.0325621 18.0058 0.332822 19.7973C0.424217 20.2454 0.469915 20.4695 0.653651 20.5831C0.837388 20.6968 1.06764 20.6351 1.52815 20.5117L15.5341 16.7588C15.9894 16.6368 16.2171 16.5758 16.3206 16.3964C16.4242 16.2171 16.3632 15.9894 16.2412 15.5341L12.4883 1.52815Z" fill="#9966FF"/>
</svg>
