<svg width="32" height="32" viewBox="0 0 32 32" fill="none" xmlns="http://www.w3.org/2000/svg">
<g clip-path="url(#clip0_194_989)">
<rect width="32" height="32" fill="white" fill-opacity="0.933333"/>
<rect x="4" y="4" width="24" height="24" rx="12" fill="#11EFE3"/>
<circle cx="26.0238" cy="6.02381" r="6.02381" fill="#9966FF" style="mix-blend-mode:multiply"/>
<g clip-path="url(#clip1_194_989)">
<path d="M21.512 12.9252C21.4691 12.8427 21.3839 12.7909 21.2909 12.7909H16.8455L18.3332 8.32778C18.3585 8.25185 18.3458 8.16834 18.299 8.10343C18.2522 8.03848 18.177 8 18.097 8H13.0399C12.9193 8 12.816 8.08646 12.7948 8.20526L12.6123 9.22752C12.5881 9.36289 12.6782 9.49225 12.8136 9.51645C12.9489 9.54059 13.0784 9.45048 13.1026 9.31507L13.2484 8.49805H17.7515L16.2638 12.9612C16.2385 13.0371 16.2512 13.1206 16.298 13.1855C16.3448 13.2505 16.42 13.2889 16.5 13.2889H20.8108L16.492 19.4189C16.4128 19.5313 16.4397 19.6867 16.5521 19.7659C16.5957 19.7966 16.6458 19.8114 16.6953 19.8114C16.7736 19.8114 16.8506 19.7746 16.8991 19.7057L21.4945 13.1833C21.548 13.1073 21.5548 13.0078 21.512 12.9252Z" fill="white"/>
<path d="M16.2246 20.2309C16.1122 20.1517 15.9568 20.1786 15.8776 20.291L13.7038 23.3763L15.9405 15.7718C15.9626 15.6965 15.948 15.6152 15.9009 15.5524C15.8539 15.4895 15.7801 15.4525 15.7016 15.4525H12.0066L12.9151 10.365C12.9392 10.2296 12.8491 10.1003 12.7137 10.0761C12.5784 10.0519 12.4489 10.142 12.4248 10.2774L11.464 15.6577C11.451 15.7303 11.4709 15.8049 11.5182 15.8614C11.5655 15.9179 11.6354 15.9505 11.7091 15.9505H15.3687L12.801 24.6807C12.7666 24.7976 12.8219 24.9222 12.9316 24.9752C12.9664 24.9919 13.0033 25 13.0398 25C13.1187 25 13.1955 24.9625 13.2435 24.8944L16.2847 20.5779C16.3639 20.4654 16.337 20.3101 16.2246 20.2309Z" fill="white"/>
</g>
<g clip-path="url(#clip2_194_989)">
<path d="M29.7885 5.2835L29.0842 5.14719C29.0144 4.89418 28.9136 4.65104 28.7838 4.42244L29.1855 3.8279C29.2555 3.72438 29.2421 3.58512 29.1538 3.49678L28.5034 2.84639C28.415 2.75803 28.2758 2.74468 28.1723 2.81462L27.5777 3.21635C27.3491 3.08654 27.106 2.98575 26.853 2.91595L26.7166 2.2117C26.6929 2.08903 26.585 2 26.4601 2H25.5403C25.4153 2 25.3074 2.08903 25.2837 2.21169L25.1474 2.91593C24.8944 2.98573 24.6512 3.08651 24.4226 3.21634L23.8281 2.81461C23.7246 2.74468 23.5853 2.75803 23.497 2.84637L22.8466 3.49678C22.7582 3.58512 22.7449 3.72438 22.8148 3.82788L23.2165 4.42244C23.0867 4.65102 22.9859 4.89416 22.9161 5.14719L22.2119 5.28349C22.0892 5.30722 22.0002 5.41513 22.0002 5.54008V6.45989C22.0002 6.58483 22.0892 6.69273 22.2119 6.71648L22.9161 6.85279C22.9859 7.10582 23.0867 7.34895 23.2165 7.57754L22.8148 8.17209C22.7449 8.2756 22.7582 8.41485 22.8466 8.50322L22.9149 8.57151C22.9621 8.6188 23.0389 8.61882 23.0862 8.57149C23.1335 8.52418 23.1335 8.44746 23.0862 8.40015L23.0179 8.33188C23.0115 8.32544 23.0105 8.31529 23.0156 8.30774L23.46 7.65006C23.4863 7.61102 23.4877 7.56024 23.4634 7.51985C23.3136 7.27029 23.2019 7.00082 23.1315 6.71897C23.1201 6.67326 23.0832 6.63833 23.037 6.62939L22.2579 6.47861C22.249 6.47687 22.2425 6.46901 22.2425 6.4599V5.5401C22.2425 5.53099 22.249 5.52313 22.2579 5.52139L23.037 5.37061C23.0832 5.36166 23.1201 5.32672 23.1315 5.28103C23.2019 4.99916 23.3136 4.72971 23.4634 4.48015C23.4877 4.43976 23.4863 4.38898 23.46 4.34994L23.0156 3.69224C23.0105 3.6847 23.0115 3.67456 23.0179 3.66812L23.6683 3.01773C23.6747 3.01128 23.6849 3.01031 23.6924 3.0154L24.3501 3.45979C24.3892 3.48618 24.44 3.48753 24.4803 3.46328C24.7299 3.3134 24.9993 3.20171 25.2812 3.13131C25.3269 3.1199 25.3618 3.08303 25.3708 3.03679L25.5216 2.25776C25.5233 2.24883 25.5312 2.24233 25.5403 2.24233H26.4601C26.4692 2.24233 26.477 2.24881 26.4788 2.25776L26.6296 3.03679C26.6385 3.08303 26.6734 3.1199 26.7191 3.13131C27.001 3.20171 27.2704 3.3134 27.52 3.46328C27.5604 3.48753 27.6112 3.48618 27.6502 3.45979L28.3079 3.01542C28.3155 3.01031 28.3256 3.01128 28.332 3.01773L28.9824 3.66813C28.9889 3.67457 28.9898 3.68471 28.9847 3.69227L28.5404 4.34996C28.514 4.38899 28.5126 4.43977 28.5369 4.48015C28.6868 4.72972 28.7984 4.99918 28.8689 5.28105C28.8803 5.32674 28.9171 5.36167 28.9634 5.37063L29.7424 5.52141C29.7513 5.52314 29.7578 5.531 29.7578 5.54011V6.45992C29.7578 6.46903 29.7513 6.47689 29.7424 6.47862L28.9634 6.6294C28.9171 6.63836 28.8803 6.67329 28.8689 6.71898C28.7984 7.00085 28.6868 7.27032 28.5369 7.51988C28.5126 7.56027 28.514 7.61104 28.5404 7.65007L28.9847 8.30777C28.9898 8.31532 28.9889 8.32546 28.9824 8.3319L28.332 8.9823C28.3256 8.98871 28.3155 8.98971 28.3079 8.9846L27.6502 8.54022C27.6111 8.51383 27.5604 8.51251 27.52 8.53674C27.2705 8.6866 27.001 8.79829 26.7191 8.86871C26.6734 8.88011 26.6385 8.91699 26.6296 8.96322L26.4788 9.74225C26.477 9.75119 26.4692 9.75767 26.4601 9.75767H25.5403C25.5311 9.75767 25.5233 9.75119 25.5216 9.74225L25.3708 8.96322C25.3618 8.91699 25.3269 8.88011 25.2812 8.86871C24.9993 8.7983 24.7299 8.68661 24.4803 8.53674C24.4399 8.51249 24.3891 8.51385 24.3501 8.54022L23.6924 8.9846C23.6848 8.98972 23.6747 8.98872 23.6683 8.9823L23.4577 8.77171C23.4103 8.72438 23.3336 8.72441 23.2864 8.77171C23.239 8.81902 23.239 8.89572 23.2864 8.94304L23.497 9.15364C23.5853 9.24196 23.7245 9.25533 23.8281 9.18538L24.4226 8.78366C24.6512 8.91347 24.8943 9.01427 25.1474 9.08407L25.2837 9.78831C25.3074 9.91097 25.4153 10 25.5403 10H26.4601C26.585 10 26.6929 9.91097 26.7166 9.78831L26.853 9.08405C27.106 9.01425 27.3491 8.91347 27.5777 8.78365L28.1723 9.18538C28.2758 9.25533 28.4151 9.24197 28.5034 9.15363L29.1538 8.50322C29.2421 8.41487 29.2555 8.27562 29.1855 8.17212L28.7838 7.57756C28.9136 7.34898 29.0144 7.10584 29.0842 6.85281L29.7885 6.7165C29.9111 6.69276 30.0002 6.58484 30.0002 6.4599V5.5401C30.0002 5.41514 29.9111 5.30722 29.7885 5.2835Z" fill="white"/>
<path d="M27.3339 4.09749C27.2792 4.05904 27.2036 4.07224 27.1651 4.12699C27.1267 4.18174 27.1399 4.25731 27.1946 4.29577C27.7496 4.68562 28.081 5.32269 28.081 5.99995C28.081 7.14743 27.1474 8.08098 26 8.08098C24.8525 8.08098 23.9189 7.14743 23.9189 5.99995C23.9189 4.85247 24.8525 3.91893 26 3.91893C26.2526 3.91893 26.4995 3.96367 26.7337 4.05192C26.7963 4.07549 26.8662 4.04387 26.8897 3.98126C26.9133 3.91863 26.8817 3.84876 26.8191 3.82517C26.5575 3.7266 26.2819 3.67664 26 3.67664C24.7189 3.67664 23.6766 4.71887 23.6766 5.99995C23.6766 7.28104 24.7189 8.32329 26 8.32329C27.2811 8.32329 28.3233 7.28104 28.3233 5.99995C28.3233 5.24385 27.9534 4.53265 27.3339 4.09749Z" fill="white"/>
</g>
</g>
<defs>
<clipPath id="clip0_194_989">
<rect width="32" height="32" fill="white"/>
</clipPath>
<clipPath id="clip1_194_989">
<rect width="17" height="17" fill="white" transform="translate(8 8)"/>
</clipPath>
<clipPath id="clip2_194_989">
<rect width="8" height="8" fill="white" transform="translate(22 2)"/>
</clipPath>
</defs>
</svg>
