<svg width="31" height="23" viewBox="0 0 31 23" fill="none" xmlns="http://www.w3.org/2000/svg">
<rect x="0.356018" y="5.96497" width="24.3743" height="16.3333" rx="0.95" fill="#11EFE3" stroke="#11EFE3" stroke-width="0.5"/>
<circle cx="12.5432" cy="14.1314" r="6.2139" fill="#11EFE3" stroke="white" stroke-width="0.5"/>
<mask id="path-3-inside-1_238_123" fill="white">
<path d="M15.9514 12.2429C16.1501 12.1329 16.4024 12.2041 16.493 12.4123C16.8641 13.2647 16.9509 14.2182 16.7337 15.1297C16.4847 16.1751 15.854 17.0897 14.9653 17.6939C14.0766 18.2982 12.9941 18.5484 11.9304 18.3955C11.003 18.2622 10.1481 17.8309 9.49192 17.1724C9.33159 17.0115 9.35817 16.7507 9.5336 16.6064V16.6064C9.70903 16.4622 9.96667 16.4895 10.1306 16.6468C10.6537 17.1486 11.3232 17.4773 12.0474 17.5814C12.908 17.705 13.7838 17.5026 14.5028 17.0137C15.2218 16.5249 15.7321 15.7849 15.9336 14.9391C16.1032 14.2274 16.0437 13.4839 15.7694 12.8129C15.6835 12.6027 15.7528 12.353 15.9514 12.2429V12.2429Z"/>
</mask>
<path d="M15.9514 12.2429C16.1501 12.1329 16.4024 12.2041 16.493 12.4123C16.8641 13.2647 16.9509 14.2182 16.7337 15.1297C16.4847 16.1751 15.854 17.0897 14.9653 17.6939C14.0766 18.2982 12.9941 18.5484 11.9304 18.3955C11.003 18.2622 10.1481 17.8309 9.49192 17.1724C9.33159 17.0115 9.35817 16.7507 9.5336 16.6064V16.6064C9.70903 16.4622 9.96667 16.4895 10.1306 16.6468C10.6537 17.1486 11.3232 17.4773 12.0474 17.5814C12.908 17.705 13.7838 17.5026 14.5028 17.0137C15.2218 16.5249 15.7321 15.7849 15.9336 14.9391C16.1032 14.2274 16.0437 13.4839 15.7694 12.8129C15.6835 12.6027 15.7528 12.353 15.9514 12.2429V12.2429Z" fill="white" stroke="white" stroke-width="2" mask="url(#path-3-inside-1_238_123)"/>
<mask id="path-4-inside-2_238_123" fill="white">
<path d="M8.9553 15.6519C8.74617 15.7406 8.50275 15.6433 8.43446 15.4267C8.17839 14.6143 8.16801 13.7409 8.40973 12.9178C8.69022 11.9627 9.29287 11.1341 10.1152 10.5731C10.9376 10.0121 11.9288 9.75315 12.9205 9.84039C13.7751 9.91558 14.5845 10.2438 15.2474 10.7786C15.4242 10.9212 15.426 11.1833 15.2672 11.3457V11.3457C15.1084 11.5081 14.8493 11.5088 14.6694 11.3702C14.1449 10.9663 13.5135 10.7183 12.8484 10.6597C12.0461 10.5892 11.2441 10.7986 10.5788 11.2525C9.91344 11.7065 9.42586 12.3768 9.19892 13.1496C9.01079 13.7902 9.01142 14.4685 9.19617 15.1042C9.25956 15.3223 9.16443 15.5633 8.9553 15.6519V15.6519Z"/>
</mask>
<path d="M8.9553 15.6519C8.74617 15.7406 8.50275 15.6433 8.43446 15.4267C8.17839 14.6143 8.16801 13.7409 8.40973 12.9178C8.69022 11.9627 9.29287 11.1341 10.1152 10.5731C10.9376 10.0121 11.9288 9.75315 12.9205 9.84039C13.7751 9.91558 14.5845 10.2438 15.2474 10.7786C15.4242 10.9212 15.426 11.1833 15.2672 11.3457V11.3457C15.1084 11.5081 14.8493 11.5088 14.6694 11.3702C14.1449 10.9663 13.5135 10.7183 12.8484 10.6597C12.0461 10.5892 11.2441 10.7986 10.5788 11.2525C9.91344 11.7065 9.42586 12.3768 9.19892 13.1496C9.01079 13.7902 9.01142 14.4685 9.19617 15.1042C9.25956 15.3223 9.16443 15.5633 8.9553 15.6519V15.6519Z" fill="white" stroke="white" stroke-width="2" mask="url(#path-4-inside-2_238_123)"/>
<mask id="path-5-inside-3_238_123" fill="white">
<path d="M12.9051 11.85C12.938 11.6427 13.1339 11.4988 13.3345 11.5605C13.7422 11.686 14.116 11.9073 14.4237 12.208C14.7313 12.5088 14.961 12.8775 15.0956 13.2823C15.1619 13.4814 15.0224 13.6805 14.816 13.7181V13.7181C14.6096 13.7556 14.4152 13.6165 14.338 13.4214C14.2387 13.1705 14.0874 12.9419 13.8925 12.7513C13.6976 12.5608 13.4656 12.4147 13.2126 12.3211C13.0158 12.2483 12.8723 12.0572 12.9051 11.85V11.85Z"/>
</mask>
<path d="M12.9051 11.85C12.938 11.6427 13.1339 11.4988 13.3345 11.5605C13.7422 11.686 14.116 11.9073 14.4237 12.208C14.7313 12.5088 14.961 12.8775 15.0956 13.2823C15.1619 13.4814 15.0224 13.6805 14.816 13.7181V13.7181C14.6096 13.7556 14.4152 13.6165 14.338 13.4214C14.2387 13.1705 14.0874 12.9419 13.8925 12.7513C13.6976 12.5608 13.4656 12.4147 13.2126 12.3211C13.0158 12.2483 12.8723 12.0572 12.9051 11.85V11.85Z" fill="white" stroke="white" stroke-width="4" mask="url(#path-5-inside-3_238_123)"/>
<mask id="path-6-inside-4_238_123" fill="white">
<path d="M11.9438 16.3617C11.8892 16.5647 11.6789 16.6875 11.4857 16.6049C11.0856 16.4338 10.7312 16.1675 10.4546 15.8268C10.178 15.4861 9.99024 15.0845 9.90509 14.6578C9.86395 14.4517 10.0273 14.2711 10.2372 14.2595V14.2595C10.4471 14.2478 10.623 14.4103 10.6755 14.6138C10.7444 14.8806 10.8701 15.1309 11.0456 15.3471C11.221 15.5632 11.4402 15.7377 11.6871 15.8599C11.8755 15.9532 11.9983 16.1587 11.9438 16.3617V16.3617Z"/>
</mask>
<path d="M11.9438 16.3617C11.8892 16.5647 11.6789 16.6875 11.4857 16.6049C11.0856 16.4338 10.7312 16.1675 10.4546 15.8268C10.178 15.4861 9.99024 15.0845 9.90509 14.6578C9.86395 14.4517 10.0273 14.2711 10.2372 14.2595V14.2595C10.4471 14.2478 10.623 14.4103 10.6755 14.6138C10.7444 14.8806 10.8701 15.1309 11.0456 15.3471C11.221 15.5632 11.4402 15.7377 11.6871 15.8599C11.8755 15.9532 11.9983 16.1587 11.9438 16.3617V16.3617Z" fill="white" stroke="white" stroke-width="4" mask="url(#path-6-inside-4_238_123)"/>
<circle cx="24.0468" cy="6.24934" r="6.13299" stroke="white" stroke-width="0.2"/>
<circle cx="24.0468" cy="6.24934" r="6.13299" fill="#9562FF" style="mix-blend-mode:multiply"/>
<circle cx="24.0468" cy="6.24934" r="6.13299" stroke="white" stroke-width="0.2"/>
<path d="M22.9411 4.34985L25.1368 4.34985L26.2347 6.25137L25.1368 8.15289L22.9411 8.15289L21.8433 6.25137L22.9411 4.34985Z" stroke="white" stroke-width="0.5"/>
<line x1="21.7885" y1="6.30123" x2="25.3556" y2="0.149499" stroke="white" stroke-width="0.5"/>
<line x1="23.0551" y1="4.24036" x2="30.0156" y2="4.24036" stroke="white" stroke-width="0.5"/>
<line x1="25.0448" y1="4.43997" x2="28.4906" y2="10.3471" stroke="white" stroke-width="0.2"/>
<line x1="25.7002" y1="5.30123" x2="28.621" y2="10.3912" stroke="white" stroke-width="0.5"/>
<line x1="26.1946" y1="6.37403" x2="22.7901" y2="12.2857" stroke="white" stroke-width="0.5"/>
<line x1="25.1649" y1="8.1615" x2="18.237" y2="8.1615" stroke="white" stroke-width="0.5"/>
<line x1="22.8373" y1="8.03436" x2="19.465" y2="2.05841" stroke="white" stroke-width="0.5"/>
<path d="M7.69412 3.53726L6.68732 5.60673H17.4288L16.3181 3.50713C16.1449 3.17961 15.8047 2.97473 15.4342 2.97473H8.59335C8.21066 2.97473 7.86153 3.19313 7.69412 3.53726Z" stroke="#11EFE3" stroke-width="0.5"/>
<path d="M2.35753 4.20896C2.35753 4.0985 2.44708 4.00896 2.55753 4.00896H4.76875C4.87921 4.00896 4.96875 4.0985 4.96875 4.20896V5.96191H2.35753V4.20896Z" stroke="#11EFE3" stroke-width="0.4"/>
</svg>
