<svg width="32" height="32" viewBox="0 0 32 32" fill="none" xmlns="http://www.w3.org/2000/svg">
<g clip-path="url(#clip0_194_981)">
<rect width="32" height="32" fill="white" fill-opacity="0.933333"/>
<rect x="4" y="4" width="24" height="24" rx="12" fill="#11EFE3"/>
<g clip-path="url(#clip1_194_981)">
<path d="M23.5695 21.7681C23.8659 21.3492 24.0173 20.8447 23.9984 20.3256C23.9768 19.7303 23.7326 19.1701 23.311 18.7486L22.2653 17.7029C22.4807 16.9113 22.544 16.0959 22.4531 15.2766C22.4388 15.148 22.3229 15.0555 22.1943 15.0695C22.0656 15.0838 21.973 15.1996 21.9873 15.3283C22.0616 15.9979 22.0246 16.6646 21.8784 17.3159L21.5429 16.9804C21.3709 16.8084 21.142 16.7137 20.8986 16.7137C20.6546 16.7137 20.4257 16.8084 20.2541 16.9805C19.8991 17.3359 19.8991 17.914 20.2542 18.2691L21.1348 19.1494C20.8889 19.5489 20.595 19.9211 20.2592 20.2571C18.7939 21.7225 16.6889 22.3251 14.6828 21.8774L15.0188 21.5414C15.1908 21.3693 15.2855 21.1407 15.2855 20.8974C15.2855 20.6535 15.1906 20.4246 15.0186 20.253C14.6635 19.898 14.0855 19.898 13.7299 20.253L12.8482 21.1346C12.4461 20.8876 12.0728 20.5933 11.737 20.2571C11.3834 19.9035 11.0755 19.5086 10.8214 19.0838C10.8189 19.0788 10.8171 19.0735 10.8142 19.0688C10.7149 18.9006 10.6244 18.7287 10.5445 18.5569C10.4289 18.3107 10.3291 18.0534 10.2481 17.7923C10.2445 17.7806 10.2397 17.7695 10.2345 17.7587C10.0059 17.0096 9.92575 16.2331 9.99655 15.45C10.0083 15.3211 9.91318 15.2072 9.78427 15.1955C9.65573 15.1837 9.54147 15.2789 9.52975 15.4078C9.45639 16.2173 9.53305 17.0206 9.75693 17.7975L8.74765 18.8068C8.32822 19.2261 8.0842 19.7831 8.06039 20.3751C8.03964 20.891 8.18735 21.3935 8.4791 21.8119L8.45566 21.8354C8.27939 22.0117 8.18234 22.2459 8.18234 22.4951C8.18234 22.7442 8.27939 22.9784 8.45566 23.1547L8.89023 23.5893C9.07199 23.7712 9.31088 23.8621 9.54977 23.8621C9.78866 23.8621 10.0274 23.7712 10.2093 23.5893L10.2303 23.5683C10.6281 23.85 11.0992 23.9991 11.5833 23.9991C11.7273 23.9991 11.8724 23.9859 12.0169 23.9592C12.1443 23.9356 12.2284 23.8133 12.2048 23.6861C12.1812 23.5588 12.0587 23.4749 11.9317 23.4982C11.4532 23.5867 10.969 23.4891 10.5683 23.2304L11.062 22.7368C11.1831 22.6157 11.2667 22.4672 11.3072 22.3052C11.6534 22.5456 12.1336 22.512 12.4419 22.2037L13.049 21.5966C13.0494 21.5962 13.0498 21.5959 13.0503 21.5954L14.0612 20.5845C14.234 20.412 14.5149 20.412 14.6875 20.5847C14.7708 20.6678 14.8167 20.7789 14.8167 20.8974C14.8167 21.0154 14.7707 21.1265 14.6872 21.21L14.0622 21.835C14.0612 21.8359 14.0605 21.8367 14.0597 21.8376L12.919 22.9781C12.857 23.0401 12.7905 23.0981 12.7212 23.1506C12.6179 23.2286 12.5975 23.3755 12.6756 23.4788C12.7216 23.5397 12.7917 23.5718 12.8626 23.5718C12.912 23.5718 12.9616 23.5563 13.0039 23.5243C13.0903 23.459 13.1733 23.3868 13.2505 23.3095L14.2957 22.2645C14.8581 22.4168 15.4299 22.4913 15.9975 22.4913C16.6075 22.4913 17.2122 22.4048 17.7943 22.2374L18.8078 23.2513C19.2273 23.6706 19.7843 23.9146 20.3763 23.9383C20.4082 23.9396 20.4399 23.9402 20.4716 23.9402C20.9539 23.9402 21.4207 23.7931 21.8133 23.5195L21.837 23.5431C22.0188 23.7249 22.2576 23.8159 22.4965 23.8159C22.7354 23.8159 22.9742 23.7249 23.1561 23.5431L23.5906 23.1086C23.7669 22.9323 23.864 22.6981 23.864 22.4489C23.864 22.1998 23.7669 21.9655 23.5906 21.7894L23.5695 21.7681ZM8.52866 20.394C8.5477 19.92 8.74313 19.4741 9.07895 19.1382L9.92209 18.2952C10.0332 18.5893 10.1657 18.8753 10.3186 19.1502L9.85324 19.6154C9.68539 19.783 9.59299 20.0062 9.59299 20.2436C9.59299 20.4222 9.64523 20.5927 9.74264 20.7376C9.58334 20.7769 9.43246 20.8587 9.3082 20.9828L8.81699 21.4741C8.61459 21.154 8.51315 20.7786 8.52866 20.394ZM10.7306 22.4053L10.0493 23.0865C10.0493 23.0866 10.0492 23.0866 10.049 23.0867L9.8779 23.2579C9.69699 23.4388 9.40256 23.4388 9.22153 23.2579L8.78696 22.8233C8.69931 22.7357 8.65097 22.6191 8.65097 22.4951C8.65097 22.3712 8.69931 22.2546 8.78696 22.1669L8.95456 21.9993C8.95517 21.9987 8.95578 21.9982 8.95627 21.9976L9.63962 21.3144C9.73007 21.2239 9.84884 21.1786 9.96774 21.1786C10.086 21.1786 10.2042 21.2236 10.2945 21.3132L10.7097 21.7281L10.7306 21.749C10.8182 21.8366 10.8664 21.9532 10.8664 22.0771C10.8665 22.2011 10.8182 22.3177 10.7306 22.4053ZM12.1104 21.8723C12.0312 21.9516 11.9257 21.9953 11.8137 21.9953C11.7016 21.9953 11.5962 21.9516 11.5169 21.8723L11.0643 21.4197C11.0643 21.4197 11.062 21.4175 11.062 21.4174L10.8596 21.215L10.6274 20.983C10.6269 20.9825 10.6263 20.982 10.6258 20.9815L10.1847 20.5405C10.1053 20.4612 10.0616 20.3558 10.0616 20.2436C10.0616 20.1315 10.1053 20.0262 10.1847 19.947L10.5693 19.5623C10.7827 19.8862 11.0255 20.1917 11.2948 20.4743L11.1743 20.5948C11.0827 20.6863 11.0827 20.8347 11.1743 20.9262C11.2201 20.972 11.2801 20.9948 11.3401 20.9948C11.4 20.9948 11.46 20.972 11.5058 20.9262L11.6302 20.8018C11.9039 21.051 12.1978 21.2759 12.5085 21.4743L12.1104 21.8723ZM20.5858 17.3117C20.6689 17.2283 20.78 17.1824 20.8985 17.1824C21.0169 17.1824 21.128 17.2285 21.2115 17.3118L22.9796 19.08C23.6097 19.7101 23.7016 20.6987 23.2318 21.4304L22.7381 20.9367C22.6146 20.8133 22.4648 20.7319 22.3066 20.6922C22.4097 20.5445 22.4655 20.3691 22.4655 20.1851C22.4655 19.9478 22.3731 19.7248 22.2053 19.5569L20.5856 17.9377C20.4132 17.7652 20.4132 17.4844 20.5858 17.3117ZM20.4738 20.7025L20.5959 20.8245C20.6417 20.8702 20.7017 20.8931 20.7617 20.8931C20.8216 20.8931 20.8817 20.8702 20.9274 20.8244C21.0189 20.7328 21.0189 20.5845 20.9273 20.493L20.8011 20.3668C21.0509 20.0926 21.2761 19.7989 21.4743 19.489L21.8739 19.8884C21.9532 19.9676 21.9968 20.0729 21.9968 20.1851C21.9968 20.2972 21.9532 20.4025 21.8739 20.4819L21.4201 20.9356C21.4198 20.936 21.4193 20.9363 21.4189 20.9367L20.9843 21.3713C20.9838 21.3716 20.9835 21.3721 20.9831 21.3725L20.5417 21.814C20.378 21.9776 20.1118 21.9776 19.948 21.814L19.5606 21.4266C19.883 21.215 20.1889 20.9734 20.4738 20.7025ZM20.395 23.47C19.921 23.451 19.4751 23.2555 19.1392 22.9199L18.2937 22.0742C18.4506 22.0151 18.6055 21.9499 18.757 21.879C18.8886 21.8176 19.0202 21.7504 19.1497 21.6788L19.6165 22.1454C19.9211 22.4499 20.3933 22.4866 20.7382 22.256C20.7785 22.4191 20.8624 22.5688 20.9842 22.6906L21.4752 23.1815C21.155 23.3838 20.7794 23.4853 20.395 23.47ZM23.2592 22.777L22.8245 23.2116C22.6438 23.3925 22.3493 23.3926 22.1683 23.2116L21.3157 22.3591C21.228 22.2714 21.1798 22.1548 21.1798 22.0309C21.1798 21.9073 21.2279 21.791 21.3151 21.7034L21.7509 21.2676C21.8414 21.1775 21.9599 21.1325 22.0784 21.1325C22.1972 21.1325 22.3161 21.1777 22.4066 21.2681L23.0919 21.9534C23.092 21.9534 23.0921 21.9535 23.0921 21.9537L23.2592 22.1207C23.347 22.2083 23.3952 22.3249 23.3952 22.4489C23.3952 22.5729 23.3469 22.6894 23.2592 22.777Z" fill="white"/>
<path d="M10.4574 15.0166C10.6294 15.1886 10.8582 15.2833 11.1015 15.2833C11.3455 15.2833 11.5744 15.1886 11.746 15.0165C12.101 14.6612 12.101 14.083 11.7459 13.7279L10.8614 12.8435C11.0904 12.4712 11.3612 12.1231 11.6691 11.8053C11.6757 11.8 11.6822 11.7943 11.6884 11.7881C11.6961 11.7804 11.7029 11.7721 11.7094 11.7636C11.7185 11.7543 11.7278 11.7449 11.7371 11.7355C12.0869 11.3858 12.4767 11.0813 12.8958 10.8294C12.9077 10.8247 12.9195 10.8191 12.9308 10.8124C13.0976 10.7139 13.2693 10.6232 13.4419 10.5428C13.689 10.427 13.9463 10.3273 14.2069 10.2465C14.2206 10.2422 14.2336 10.2365 14.246 10.2299C15.2499 9.92569 16.3047 9.88797 17.3227 10.1172L16.9829 10.4569C16.8107 10.6291 16.7158 10.8578 16.7158 11.101C16.7158 11.3446 16.8108 11.5735 16.9829 11.7453C17.3382 12.1005 17.9162 12.1005 18.2713 11.7453L19.1547 10.862C19.5541 11.1079 19.9251 11.401 20.2592 11.7355C20.6361 12.1127 20.9607 12.5357 21.224 12.9926C21.3269 13.1715 21.6199 13.7904 21.7468 14.1807C21.7501 14.198 21.7555 14.2149 21.7627 14.2311C21.7628 14.2315 21.763 14.2317 21.763 14.232C21.8101 14.3876 21.9033 14.371 21.9769 14.371H21.9772C22.0371 14.3709 22.0969 14.348 22.1427 14.3024L23.2539 13.1916C23.6734 12.7721 23.9174 12.2152 23.9411 11.6232C23.9618 11.1073 23.8141 10.6048 23.5224 10.1863L23.5458 10.1629C23.7219 9.98672 23.819 9.75247 23.819 9.5032C23.819 9.25406 23.7219 9.01981 23.5458 8.84366L23.1112 8.40909C22.7475 8.04544 22.1558 8.04544 21.792 8.40909L21.771 8.43009C21.3521 8.1337 20.8479 7.98221 20.3281 8.00137C19.7327 8.0231 19.1725 8.26724 18.7509 8.68887L17.7094 9.73038C16.5562 9.41605 15.3492 9.42447 14.2006 9.75455L13.1922 8.74588C12.7727 8.32657 12.2157 8.08255 11.6237 8.05887C11.1083 8.038 10.6053 8.18582 10.1867 8.47757L10.1632 8.45401C9.79947 8.09036 9.2078 8.09049 8.84403 8.45401L8.40958 8.88858C8.23331 9.06473 8.13627 9.29898 8.13627 9.54813C8.13627 9.79739 8.23331 10.0316 8.40958 10.2078L8.4307 10.2289C8.13419 10.648 7.98295 11.1525 8.00175 11.6715C8.02335 12.2669 8.26749 12.8269 8.68912 13.2486L10.4574 15.0166ZM20.9297 10.5711C20.9329 10.5742 20.9361 10.5777 20.9394 10.5808L21.8167 11.4578C21.896 11.5371 21.9397 11.6426 21.9397 11.7547C21.9397 11.8668 21.8961 11.9722 21.8167 12.0514L21.4313 12.4368C21.2184 12.1128 20.9759 11.8072 20.7067 11.524L20.8272 11.4036C20.9187 11.312 20.9187 11.1636 20.8272 11.0722C20.7356 10.9806 20.5872 10.9806 20.4958 11.0722L20.3718 11.1961C20.0983 10.9464 19.8047 10.7211 19.4944 10.5225L19.8909 10.126C20.0546 9.96231 20.3211 9.96231 20.4848 10.126L20.9297 10.5711ZM23.4728 11.6044C23.4539 12.0784 23.2584 12.5242 22.9226 12.86L22.0733 13.709C21.9529 13.3899 21.7763 13.032 21.6804 12.8506L22.148 12.383C22.3159 12.2152 22.4083 11.9922 22.4083 11.7548C22.4083 11.5762 22.3561 11.4058 22.2587 11.2608C22.418 11.2215 22.569 11.1397 22.6933 11.0154L23.1843 10.5243C23.3869 10.8445 23.4883 11.2198 23.4728 11.6044ZM22.4517 8.60477C22.5706 8.60477 22.6894 8.65006 22.7798 8.74051L23.2145 9.17508C23.3021 9.26273 23.3504 9.37918 23.3504 9.5032C23.3504 9.62723 23.3021 9.7438 23.2145 9.83145L23.044 10.002C23.0435 10.0025 23.0429 10.003 23.0425 10.0034L22.3618 10.684C22.1809 10.8649 21.8865 10.8649 21.7056 10.684L21.271 10.2494C21.09 10.0684 21.09 9.77396 21.2709 9.59305L22.1236 8.74051C22.214 8.64993 22.3328 8.60477 22.4517 8.60477ZM19.0824 9.02017C19.7127 8.38992 20.7013 8.29801 21.4332 8.76798L20.9395 9.26163C20.8159 9.38516 20.7344 9.53506 20.6948 9.69339C20.3487 9.45267 19.8679 9.48611 19.5595 9.79459L17.9401 11.4138C17.7676 11.5863 17.487 11.5863 17.3142 11.4137C17.2306 11.3304 17.1847 11.2193 17.1847 11.101C17.1847 10.9831 17.2307 10.872 17.3145 10.7882L19.0824 9.02017ZM10.1265 12.1087C10.0472 12.0294 10.0036 11.9241 10.0036 11.8119C10.0036 11.6999 10.0472 11.5945 10.1265 11.5152L11.4588 10.1831C11.6225 10.0194 11.8887 10.0194 12.0524 10.1831L12.4352 10.5658C12.1114 10.7788 11.8056 11.0215 11.5225 11.2908L11.4042 11.1725C11.3127 11.0811 11.1643 11.0811 11.0728 11.1725C10.9814 11.2641 10.9814 11.4125 11.0728 11.5041L11.1946 11.6258C10.945 11.8996 10.72 12.1938 10.5218 12.5039L10.1265 12.1087ZM11.605 8.52713C12.079 8.54605 12.5251 8.74149 12.8609 9.0773L13.7029 9.91946C13.4085 10.0305 13.1223 10.1631 12.8477 10.3155L12.3838 9.85159C12.0794 9.54715 11.607 9.51041 11.262 9.74124C11.2217 9.57803 11.1379 9.42838 11.0159 9.30655L10.5248 8.81558C10.8451 8.61307 11.2206 8.51163 11.605 8.52713ZM8.741 9.22L9.17557 8.78543C9.26603 8.69498 9.3848 8.64981 9.5037 8.64981C9.62259 8.64981 9.74137 8.69498 9.83194 8.78543L10.0017 8.95535C10.0026 8.95609 10.0035 8.95706 10.0043 8.95779L10.6846 9.63797C10.7723 9.72574 10.8205 9.84219 10.8205 9.96622C10.8205 10.0902 10.7723 10.2067 10.6846 10.2943L10.2499 10.7289C10.069 10.9098 9.77457 10.9099 9.59354 10.7289L8.741 9.87637C8.65323 9.78873 8.60502 9.67215 8.60502 9.54813C8.60502 9.42422 8.65323 9.30765 8.741 9.22ZM8.76859 10.5668L9.26212 11.0603C9.38566 11.1839 9.53556 11.2653 9.69376 11.305C9.59061 11.4527 9.53483 11.628 9.53483 11.8119C9.53483 12.0492 9.62735 12.2724 9.79508 12.4401L11.4145 14.0594C11.5869 14.2318 11.5869 14.5126 11.4143 14.6853C11.3311 14.7687 11.22 14.8146 11.1015 14.8146C10.9834 14.8146 10.8723 14.7687 10.7889 14.6852L9.02054 12.917C8.3903 12.2869 8.2985 11.2985 8.76859 10.5668Z" fill="white"/>
<path d="M12.8424 16.8251L11.6921 17.8447C11.5106 18.0055 11.4938 18.2841 11.6547 18.4656L12.2884 19.1806C12.2892 19.1813 12.2898 19.1822 12.2904 19.183C12.291 19.1836 12.2915 19.1841 12.2921 19.1846L12.9 19.8704C12.9867 19.9683 13.1078 20.0182 13.2294 20.0182C13.3331 20.0182 13.4373 19.9819 13.5209 19.9078L14.6711 18.8881C14.8528 18.7273 14.8695 18.4487 14.7086 18.2671L13.4634 16.8625C13.3025 16.681 13.0239 16.6642 12.8424 16.8251ZM13.1317 17.195L13.5836 17.7046L12.4835 18.6941L12.0245 18.1763L13.1317 17.195ZM13.2316 19.5379L12.7946 19.0448L13.8945 18.0555L14.3387 18.5564L13.2316 19.5379Z" fill="white"/>
<path d="M18.5684 12.1728L16.9183 13.6352C16.8233 13.7196 16.7667 13.8359 16.759 13.9628C16.7515 14.0896 16.7936 14.2118 16.8779 14.3069L18.0757 15.658C18.1599 15.753 18.2763 15.8096 18.4031 15.8173C18.4129 15.8179 18.4226 15.8181 18.4323 15.8181C18.5486 15.8181 18.6596 15.7761 18.7472 15.6984L20.3972 14.2358C20.4923 14.1516 20.5488 14.0353 20.5565 13.9084C20.5642 13.7815 20.522 13.6593 20.4376 13.5642L19.24 12.2133C19.0659 12.017 18.7647 11.9989 18.5684 12.1728ZM20.0886 13.8802C20.0885 13.8832 20.0872 13.8844 20.0863 13.885V13.8851L18.4363 15.3475C18.4354 15.3483 18.4345 15.3497 18.4313 15.3494C18.4284 15.3492 18.4271 15.3478 18.4264 15.347L17.2288 13.996C17.228 13.9952 17.2268 13.9938 17.2269 13.991C17.2272 13.988 17.2285 13.9868 17.2293 13.9861L18.8793 12.5237C18.8806 12.5225 18.8823 12.5218 18.8839 12.5218C18.886 12.5218 18.8878 12.5226 18.8892 12.5242L20.0869 13.8752C20.0877 13.876 20.0889 13.8774 20.0886 13.8802Z" fill="white"/>
</g>
<circle cx="26.0238" cy="6.02381" r="6.02381" fill="#9966FF" style="mix-blend-mode:multiply"/>
<g clip-path="url(#clip2_194_981)">
<path d="M27.823 6.00024L29.9657 3.85757C29.9877 3.8356 30 3.80579 30 3.77471C30 3.74363 29.9877 3.71382 29.9657 3.69185L28.3084 2.03457C28.2626 1.9888 28.1884 1.9888 28.1427 2.03457L26 4.17724L23.8573 2.03457C23.8116 1.9888 23.7374 1.9888 23.6916 2.03457L22.0343 3.69185C22.0123 3.71382 22 3.74363 22 3.77471C22 3.80579 22.0123 3.8356 22.0343 3.85757L24.177 6.00024L22.0343 8.14291C22.0123 8.16488 22 8.19469 22 8.22577C22 8.25685 22.0123 8.28666 22.0343 8.30863L23.6916 9.96591C23.7374 10.0117 23.8116 10.0117 23.8573 9.96591L26 7.82324L28.1427 9.96591C28.1655 9.98879 28.1955 10.0002 28.2255 10.0002C28.2555 10.0002 28.2855 9.9888 28.3084 9.96591L29.9657 8.30863C29.9877 8.28666 30 8.25685 30 8.22577C30 8.19469 29.9877 8.16488 29.9657 8.14291L27.823 6.00024ZM28.2255 9.71732L26.0829 7.57465C26.0609 7.55266 26.0311 7.54032 26 7.54032C25.9689 7.54032 25.9391 7.55266 25.9171 7.57465L23.7745 9.71732L22.2829 8.22577L24.4256 6.0831C24.4713 6.03733 24.4713 5.96313 24.4256 5.91738L22.2829 3.77471L23.7745 2.28316L25.9171 4.42583C25.9391 4.44782 25.9689 4.46016 26 4.46016C26.0311 4.46016 26.0609 4.44782 26.0829 4.42583L28.2255 2.28316L29.7171 3.77471L27.5744 5.91738C27.5287 5.96315 27.5287 6.03735 27.5744 6.0831L29.7171 8.22577L28.2255 9.71732Z" fill="white"/>
<path d="M29.3028 3.85738C29.3247 3.83541 29.3371 3.8056 29.3371 3.77452C29.3371 3.74344 29.3247 3.71363 29.3028 3.69166L28.3084 2.69729C28.2626 2.65154 28.1884 2.65152 28.1427 2.69729L26 4.83996L23.8573 2.69729C23.8116 2.65152 23.7374 2.65152 23.6916 2.69729L22.6972 3.69166C22.6752 3.71363 22.6629 3.74344 22.6629 3.77452C22.6629 3.8056 22.6752 3.83541 22.6972 3.85738L23.4785 4.63869C23.5243 4.68444 23.5985 4.68446 23.6443 4.63869C23.69 4.59293 23.69 4.51873 23.6443 4.47298L22.9458 3.77452L23.7745 2.94588L25.9171 5.08855C25.9391 5.11054 25.9689 5.12288 26 5.12288C26.0311 5.12288 26.0609 5.11054 26.0829 5.08855L28.2255 2.94588L29.0542 3.77452L26.9115 5.91719C26.8895 5.93916 26.8772 5.96898 26.8772 6.00005C26.8772 6.03113 26.8895 6.06094 26.9115 6.08291L29.0542 8.22558L28.2255 9.05423L26.0829 6.91155C26.0609 6.88957 26.0311 6.87723 26 6.87723C25.9689 6.87723 25.9391 6.88957 25.9171 6.91155L23.7745 9.05423L22.9458 8.22558L25.0885 6.08291C25.1105 6.06094 25.1228 6.03113 25.1228 6.00005C25.1228 5.96898 25.1105 5.93916 25.0885 5.91719L23.9757 4.80443C23.9299 4.75866 23.8558 4.75866 23.81 4.80443C23.7642 4.85019 23.7642 4.9244 23.81 4.97015L24.8399 6.00005L22.6972 8.14273C22.6752 8.16469 22.6629 8.19451 22.6629 8.22558C22.6629 8.25666 22.6752 8.28648 22.6972 8.30844L23.6916 9.30282C23.7374 9.34857 23.8116 9.3486 23.8573 9.30282L26 7.16015L28.1427 9.30282C28.1655 9.32571 28.1955 9.33715 28.2255 9.33715C28.2555 9.33715 28.2855 9.32571 28.3084 9.30282L29.3028 8.30844C29.3248 8.28648 29.3371 8.25666 29.3371 8.22558C29.3371 8.19451 29.3248 8.16469 29.3028 8.14273L27.1601 6.00005L29.3028 3.85738Z" fill="white"/>
</g>
</g>
<defs>
<clipPath id="clip0_194_981">
<rect width="32" height="32" fill="white"/>
</clipPath>
<clipPath id="clip1_194_981">
<rect width="16" height="16" fill="white" transform="translate(8 8)"/>
</clipPath>
<clipPath id="clip2_194_981">
<rect width="8" height="8" fill="white" transform="translate(22 2)"/>
</clipPath>
</defs>
</svg>
