<svg width="29" height="31" viewBox="0 0 29 31" fill="none" xmlns="http://www.w3.org/2000/svg">
<circle cx="13.5235" cy="17.5768" r="12.8633" fill="#11EFE3"/>
<path d="M24.5328 17.5768C24.5328 23.5771 19.6093 28.4513 13.5235 28.4513C7.43762 28.4513 2.51416 23.5771 2.51416 17.5768C2.51416 11.5765 7.43762 6.70227 13.5235 6.70227C19.6093 6.70227 24.5328 11.5765 24.5328 17.5768Z" stroke="white"/>
<path d="M7.92333 16.1473H7.00333V15.5233C7.254 15.5233 7.454 15.502 7.60333 15.4593C7.758 15.4166 7.88066 15.3473 7.97133 15.2513C8.062 15.15 8.142 15.006 8.21133 14.8193H8.80333V20.4193H7.92333V16.1473ZM11.1665 20.4993C10.7345 20.4993 10.4038 20.3766 10.1745 20.1313C9.94512 19.886 9.83046 19.5393 9.83046 19.0913V16.1473C9.83046 15.6993 9.94512 15.3526 10.1745 15.1073C10.4038 14.862 10.7345 14.7393 11.1665 14.7393C11.5985 14.7393 11.9291 14.862 12.1585 15.1073C12.3878 15.3526 12.5025 15.6993 12.5025 16.1473V19.0913C12.5025 19.5393 12.3878 19.886 12.1585 20.1313C11.9291 20.3766 11.5985 20.4993 11.1665 20.4993ZM11.1665 19.6993C11.4705 19.6993 11.6225 19.5153 11.6225 19.1473V16.0913C11.6225 15.7233 11.4705 15.5393 11.1665 15.5393C10.8625 15.5393 10.7105 15.7233 10.7105 16.0913V19.1473C10.7105 19.5153 10.8625 19.6993 11.1665 19.6993ZM14.3696 20.4993C13.9376 20.4993 13.6069 20.3766 13.3776 20.1313C13.1482 19.886 13.0336 19.5393 13.0336 19.0913V16.1473C13.0336 15.6993 13.1482 15.3526 13.3776 15.1073C13.6069 14.862 13.9376 14.7393 14.3696 14.7393C14.8016 14.7393 15.1322 14.862 15.3616 15.1073C15.5909 15.3526 15.7056 15.6993 15.7056 16.1473V19.0913C15.7056 19.5393 15.5909 19.886 15.3616 20.1313C15.1322 20.3766 14.8016 20.4993 14.3696 20.4993ZM14.3696 19.6993C14.6736 19.6993 14.8256 19.5153 14.8256 19.1473V16.0913C14.8256 15.7233 14.6736 15.5393 14.3696 15.5393C14.0656 15.5393 13.9136 15.7233 13.9136 16.0913V19.1473C13.9136 19.5153 14.0656 19.6993 14.3696 19.6993ZM17.1007 17.9313C16.8234 17.9313 16.6127 17.854 16.4687 17.6993C16.3247 17.5446 16.2527 17.3233 16.2527 17.0353V15.6353C16.2527 15.3473 16.3247 15.126 16.4687 14.9713C16.6127 14.8166 16.8234 14.7393 17.1007 14.7393C17.378 14.7393 17.5887 14.8166 17.7327 14.9713C17.8767 15.126 17.9487 15.3473 17.9487 15.6353V17.0353C17.9487 17.3233 17.8767 17.5446 17.7327 17.6993C17.5887 17.854 17.378 17.9313 17.1007 17.9313ZM19.1327 14.8193H19.6927L17.5247 20.4193H16.9647L19.1327 14.8193ZM17.1007 17.4273C17.2927 17.4273 17.3887 17.31 17.3887 17.0753V15.5953C17.3887 15.3606 17.2927 15.2433 17.1007 15.2433C16.9087 15.2433 16.8127 15.3606 16.8127 15.5953V17.0753C16.8127 17.31 16.9087 17.4273 17.1007 17.4273ZM19.5567 20.4993C19.2794 20.4993 19.0687 20.422 18.9247 20.2673C18.7807 20.1126 18.7087 19.8913 18.7087 19.6033V18.2033C18.7087 17.9153 18.7807 17.694 18.9247 17.5393C19.0687 17.3846 19.2794 17.3073 19.5567 17.3073C19.834 17.3073 20.0447 17.3846 20.1887 17.5393C20.3327 17.694 20.4047 17.9153 20.4047 18.2033V19.6033C20.4047 19.8913 20.3327 20.1126 20.1887 20.2673C20.0447 20.422 19.834 20.4993 19.5567 20.4993ZM19.5567 19.9953C19.7487 19.9953 19.8447 19.878 19.8447 19.6433V18.1633C19.8447 17.9286 19.7487 17.8113 19.5567 17.8113C19.3647 17.8113 19.2687 17.9286 19.2687 18.1633V19.6433C19.2687 19.878 19.3647 19.9953 19.5567 19.9953Z" fill="white"/>
<path d="M20.0037 0.865539C20.2814 0.560791 20.7609 0.560791 21.0386 0.86554L21.8346 1.73924C22.0188 1.94141 22.3039 2.01779 22.5645 1.9348L23.6907 1.57617C24.0835 1.45108 24.4988 1.69086 24.5869 2.09361L24.8394 3.24827C24.8979 3.51544 25.1066 3.72412 25.3737 3.78255L26.5284 4.03508C26.9311 4.12316 27.1709 4.53848 27.0458 4.93131L26.6872 6.05755C26.6042 6.31814 26.6806 6.6032 26.8828 6.78739L27.7565 7.58341C28.0612 7.86107 28.0612 8.34064 27.7565 8.6183L26.8828 9.41432C26.6806 9.59851 26.6042 9.88357 26.6872 10.1442L27.0458 11.2704C27.1709 11.6632 26.9311 12.0785 26.5284 12.1666L25.3737 12.4192C25.1066 12.4776 24.8979 12.6863 24.8394 12.9534L24.5869 14.1081C24.4988 14.5108 24.0835 14.7506 23.6907 14.6255L22.5645 14.2669C22.3039 14.1839 22.0188 14.2603 21.8346 14.4625L21.0386 15.3362C20.7609 15.6409 20.2814 15.6409 20.0037 15.3362L19.2077 14.4625C19.0235 14.2603 18.7384 14.1839 18.4778 14.2669L17.3516 14.6255C16.9588 14.7506 16.5435 14.5108 16.4554 14.1081L16.2028 12.9534C16.1444 12.6863 15.9357 12.4776 15.6686 12.4192L14.5139 12.1666C14.1111 12.0785 13.8714 11.6632 13.9965 11.2704L14.3551 10.1442C14.4381 9.88357 14.3617 9.59851 14.1595 9.41432L13.2858 8.6183C12.9811 8.34064 12.9811 7.86107 13.2858 7.58341L14.1595 6.78739C14.3617 6.6032 14.4381 6.31814 14.3551 6.05755L13.9965 4.93131C13.8714 4.53848 14.1111 4.12316 14.5139 4.03508L15.6686 3.78255C15.9357 3.72412 16.1444 3.51544 16.2028 3.24827L16.4554 2.09361C16.5435 1.69086 16.9588 1.45108 17.3516 1.57617L18.4778 1.9348C18.7384 2.01779 19.0235 1.9414 19.2077 1.73924L20.0037 0.865539Z" fill="#9966FF" style="mix-blend-mode:multiply"/>
<path d="M19.1886 11.4313L16.2576 8.50015C16.0928 8.33539 16.1032 8.06525 16.2801 7.91361L17.0364 7.26537C17.1984 7.1265 17.4409 7.13925 17.5874 7.29436L19.4082 9.22131C19.4489 9.26439 19.5179 9.26282 19.5566 9.21793L23.3968 4.76353C23.5361 4.60195 23.7777 4.57813 23.9459 4.70939L24.749 5.33623C24.9329 5.47976 24.9555 5.74955 24.798 5.92163L19.7665 11.4185C19.6127 11.5866 19.3497 11.5924 19.1886 11.4313Z" fill="white"/>
</svg>
