<svg width="33" height="27" viewBox="0 0 33 27" fill="none" xmlns="http://www.w3.org/2000/svg">
<path d="M0.906006 8.26237L5.64411 1.21606H16.396H27.1479L32.2505 8.26237L16.4567 26L0.906006 8.26237Z" fill="#11EFE3"/>
<path d="M0.906006 8.26237L5.64411 1.21606M0.906006 8.26237L16.4567 26M0.906006 8.26237H22.6527M5.64411 1.21606L9.77476 8.26237M5.64411 1.21606H16.396M27.1479 1.21606L32.2505 8.26237M27.1479 1.21606L23.2602 8.26237L16.4567 26M27.1479 1.21606H16.396M32.2505 8.26237L16.4567 26M32.2505 8.26237H22.6527M16.4567 26L9.77476 8.26237M9.77476 8.26237L16.396 1.21606M16.396 1.21606L22.6527 8.26237" stroke="white" stroke-width="0.8" stroke-linejoin="round"/>
</svg>
