<svg width="32" height="32" viewBox="0 0 32 32" fill="none" xmlns="http://www.w3.org/2000/svg">
<g clip-path="url(#clip0_194_983)">
<rect width="32" height="32" fill="white" fill-opacity="0.933333"/>
<rect x="4" y="4" width="24" height="24" rx="12" fill="#11EFE3"/>
<circle cx="26.0238" cy="6.02381" r="6.02381" fill="#9966FF" style="mix-blend-mode:multiply"/>
<g clip-path="url(#clip1_194_983)">
<path d="M22.0317 15.026C21.9446 14.787 21.7784 14.5992 21.5735 14.4812C21.8175 14.1847 21.9035 13.7704 21.7628 13.3842C21.6453 13.0617 21.394 12.8259 21.0944 12.7161C21.236 12.4751 21.297 12.095 21.176 11.774C21.0683 11.4951 20.8359 11.2205 20.5079 11.1053C20.6494 10.8644 20.7101 10.4846 20.5892 10.1637C20.4034 9.62214 19.7368 9.2729 19.1527 9.49442L18.8857 9.5917C18.914 9.53372 18.9395 9.47413 18.9619 9.41317C19.0555 9.1584 19.0186 8.87338 18.8632 8.65084C18.7078 8.42827 18.453 8.29542 18.1816 8.29542H17.0451C16.9758 8.29542 16.9061 8.29893 16.8368 8.30529C16.5812 8.13022 16.2754 8.03333 15.9622 8.03333H15.8266C15.681 8.03333 15.5629 8.15138 15.5629 8.297C15.5629 8.44261 15.681 8.56067 15.8266 8.56067H15.9622C16.2399 8.56067 16.5089 8.67612 16.7015 8.87883L17.778 9.99536L16.6102 10.4209C16.4417 10.4823 16.2505 10.4402 16.1234 10.3135C16.0718 10.2649 15.8204 10.0056 15.7795 9.97455C15.6013 9.81202 14.8169 9.68106 14.3143 9.59992C14.0027 9.54603 13.7729 9.27743 13.7678 8.96124C13.7663 8.78472 13.9125 8.56345 14.162 8.5607H14.6124C14.758 8.5607 14.876 8.44265 14.876 8.29703C14.876 8.15142 14.758 8.03336 14.6124 8.03336H14.162C13.913 8.03336 13.6797 8.13109 13.5051 8.30853C13.3305 8.48596 13.2365 8.72081 13.2405 8.96971C13.2442 9.20217 13.3155 9.42031 13.4367 9.60368C12.9747 9.37422 12.3982 9.48855 12.0632 9.90747C11.8488 10.1756 11.778 10.5128 11.84 10.8258C11.5585 10.8294 11.1979 10.9795 10.9929 11.246C10.8143 11.4779 10.6963 11.8243 10.7693 12.1649C10.4503 12.1733 10.137 12.3165 9.92258 12.5846C9.66601 12.9055 9.61503 13.3253 9.75141 13.6841C9.51143 13.732 9.29796 13.8612 9.14338 14.0546C8.76742 14.517 8.87914 15.2339 9.38139 15.5783L7.06181 18.3392C6.96812 18.4507 6.98257 18.617 7.09408 18.7107C7.14351 18.7522 7.20367 18.7725 7.26354 18.7725C7.33874 18.7725 7.41341 18.7405 7.46555 18.6784L9.79335 15.9077L10.3403 16.345C10.3889 16.3838 10.447 16.4028 10.5048 16.4028C10.5822 16.4028 10.6588 16.3689 10.7109 16.3037C10.8018 16.19 10.7834 16.0241 10.6697 15.9331L9.63571 15.1064C9.44762 14.9578 9.36321 14.6233 9.55523 14.3838C9.70373 14.1957 10.0384 14.1115 10.2778 14.3034L11.4367 15.23C11.658 15.4071 11.6941 15.7312 11.5171 15.9526C11.4262 16.0663 11.4447 16.2323 11.5584 16.3232C11.6721 16.4141 11.838 16.3957 11.929 16.2819C12.1293 16.0314 12.1948 15.716 12.1355 15.4238C12.4432 15.4069 12.7427 15.2642 12.9499 15.0052C13.1643 14.737 13.235 14.3998 13.173 14.0867C13.4545 14.0835 13.8152 13.9331 14.0202 13.6667C14.2346 13.3985 14.3054 13.0612 14.2433 12.7482C14.5248 12.745 14.8855 12.5946 15.0905 12.3281C15.2774 12.0944 15.3622 11.8018 15.329 11.5043C15.2959 11.2068 15.1489 10.94 14.9152 10.753L14.3119 10.2707C14.3375 10.2361 14.3495 10.2191 14.4049 10.1508C14.7447 10.1975 15.4446 10.3471 15.4526 10.3895L15.7511 10.687C16.0071 10.935 16.4103 11.053 16.7908 10.9163L19.3332 9.98991C19.5883 9.89063 19.9832 10.0185 20.0937 10.3442C20.193 10.5996 20.0652 10.9942 19.7389 11.1049L18.6589 11.5012C18.5222 11.5513 18.452 11.7028 18.5022 11.8396C18.5413 11.9463 18.6423 12.0125 18.7498 12.0125C18.7799 12.0125 18.8106 12.0072 18.8405 11.9962L19.9199 11.6002C20.175 11.5009 20.5699 11.6288 20.6805 11.9545C20.7797 12.2099 20.652 12.6045 20.3256 12.7152L19.2457 13.1115C19.1089 13.1616 19.0388 13.3131 19.0889 13.4498C19.1281 13.5566 19.229 13.6228 19.3365 13.6227C19.3666 13.6227 19.3973 13.6175 19.4273 13.6065L20.5067 13.2105C20.8143 13.0984 21.1552 13.2575 21.2673 13.5648C21.3793 13.8721 21.2203 14.2133 20.913 14.3253L19.8323 14.7218C19.6956 14.7721 19.6255 14.9236 19.6758 15.0603C19.715 15.167 19.8159 15.2331 19.9233 15.2331C19.9535 15.2331 19.9842 15.2278 20.0142 15.2168L20.8772 14.8997L20.8774 14.8996C21.1438 14.8028 21.4392 14.9404 21.5362 15.2067C21.6362 15.4702 21.4698 15.7941 21.1806 15.8893L16.7254 18.594C16.4371 18.7691 16.1064 18.8616 15.769 18.8616H13.5878C13.1866 18.8616 12.8247 19.0996 12.6659 19.468L10.8844 23.5984C10.8267 23.7322 10.8884 23.8873 11.0221 23.945C11.0562 23.9596 11.0916 23.9666 11.1264 23.9666C11.2285 23.9666 11.3257 23.907 11.3687 23.8073L13.1501 19.6767C13.2255 19.5018 13.3974 19.3888 13.5878 19.3888H15.7691C16.2029 19.3888 16.6282 19.2698 16.9991 19.0447L17.696 18.6216L20.5231 23.8286C20.5709 23.9166 20.6615 23.9666 20.7551 23.9666C20.7976 23.9666 20.8407 23.9563 20.8807 23.9346C21.0086 23.8651 21.056 23.705 20.9866 23.577L18.1473 18.3476L21.4375 16.3502C21.9586 16.1434 22.2248 15.5562 22.0317 15.026ZM12.538 14.6759C12.3337 14.9314 11.9597 14.9731 11.7042 14.7687L10.4272 13.7477C10.1718 13.5434 10.1301 13.1694 10.3344 12.9139C10.5387 12.6584 10.9128 12.6167 11.1683 12.821L12.4451 13.842C12.7007 14.0463 12.7423 14.4204 12.538 14.6759ZM13.6083 13.3373C13.4369 13.5543 13.0509 13.6518 12.7745 13.4302L11.4976 12.4092C11.2421 12.2049 11.2004 11.8308 11.4047 11.5753C11.5762 11.3582 11.9622 11.2609 12.2386 11.4824L13.5155 12.5034C13.771 12.7077 13.8126 13.0818 13.6083 13.3373ZM14.8049 11.5626C14.8225 11.7201 14.7777 11.875 14.6787 11.9987C14.5073 12.2158 14.1211 12.3132 13.8448 12.0916L12.5679 11.0706C12.3125 10.8663 12.2708 10.4923 12.4751 10.2367C12.574 10.113 12.7153 10.0352 12.8728 10.0176C13.0303 10.0001 13.1852 10.0449 13.3089 10.1439L14.5858 11.1649C14.7096 11.2638 14.7874 11.4051 14.8049 11.5626ZM17.3799 8.82276H18.1815C18.2822 8.82276 18.3731 8.87011 18.4307 8.9527C18.4884 9.03528 18.5015 9.13688 18.4668 9.23145C18.4067 9.39528 18.3154 9.54448 18.1995 9.67284L17.3799 8.82276Z" fill="white"/>
<path d="M24.9291 19.5922L22.3634 16.8449C22.2641 16.7385 22.0973 16.7328 21.9907 16.8322C21.8843 16.9316 21.8786 17.0984 21.978 17.2049L24.5436 19.9521C24.5956 20.0077 24.6659 20.0358 24.7364 20.0358C24.8008 20.0358 24.8655 20.0123 24.9163 19.9649C25.0228 19.8654 25.0284 19.6986 24.9291 19.5922Z" fill="white"/>
</g>
<g clip-path="url(#clip2_194_983)">
<path d="M28.9989 8.6651L28.9374 8.29047C28.9546 8.26492 28.9647 8.23416 28.9647 8.20111V7.92311C28.9647 7.83467 28.8927 7.76267 28.8042 7.76267H28.7759V4.78033H28.8042C28.8927 4.78033 28.9647 4.70837 28.9647 4.61989V4.34189C28.9647 4.25798 28.8999 4.189 28.8177 4.18213C28.8901 4.08453 28.9331 3.96391 28.9331 3.83331C28.9331 3.50949 28.6697 3.24609 28.346 3.24609C28.0221 3.24609 27.7587 3.50949 27.7587 3.83331C27.7587 3.96387 27.8017 4.08453 27.874 4.18213C27.7919 4.18909 27.7272 4.25803 27.7272 4.34189V4.61989C27.7272 4.63765 27.7302 4.65463 27.7355 4.67061C27.7137 4.69656 27.6916 4.72224 27.6689 4.74715C27.5255 4.90489 27.366 5.0446 27.1949 5.16234C26.8879 5.37355 26.5434 5.5058 26.1985 5.5448C25.837 5.58559 25.4868 5.52731 25.1577 5.37145C25.1355 5.36096 25.113 5.34984 25.0906 5.33839C25.0474 5.31633 24.9944 5.33345 24.9723 5.37666C24.9502 5.41992 24.9674 5.47284 25.0106 5.49495C25.0345 5.50717 25.0587 5.51912 25.0825 5.53034C25.4416 5.70044 25.8237 5.76402 26.2183 5.71948C26.5918 5.67723 26.9639 5.53468 27.2945 5.30718C27.4768 5.18179 27.6465 5.03316 27.799 4.86539C27.8244 4.83746 27.8492 4.80876 27.8737 4.77965C27.8783 4.78006 27.8829 4.78038 27.8876 4.78038H27.916V5.06245C27.9055 5.07417 27.895 5.08603 27.8843 5.09757C27.8207 5.1655 27.752 5.23105 27.68 5.29225C27.3045 5.61163 26.8265 5.8255 26.3339 5.89453C25.8199 5.96654 25.3374 5.88721 24.8585 5.65201C24.5722 5.51143 24.3193 5.32489 24.1068 5.09757C24.0991 5.08933 24.0916 5.08095 24.0841 5.07262V4.78033H24.1124C24.1169 4.78033 24.1214 4.78001 24.1258 4.77965C24.2553 4.93552 24.389 5.0685 24.5325 5.18463C24.5702 5.21516 24.6256 5.20935 24.6561 5.17163C24.6866 5.13396 24.6808 5.07857 24.6431 5.04804C24.5118 4.9417 24.3887 4.8197 24.2691 4.67697C24.2666 4.6777 24.2639 4.6783 24.2614 4.67903C24.2687 4.66072 24.2728 4.64081 24.2728 4.61993V4.34193C24.2728 4.25798 24.208 4.189 24.1258 4.18213C24.1982 4.08453 24.2413 3.96391 24.2413 3.83331C24.2413 3.50954 23.9779 3.24609 23.6541 3.24609C23.3303 3.24609 23.0669 3.50954 23.0669 3.83331C23.0669 3.96387 23.1098 4.08453 23.1822 4.18213C23.1001 4.18909 23.0353 4.25803 23.0353 4.34189V4.61989C23.0353 4.70837 23.1073 4.78033 23.1957 4.78033H23.2241V7.76267H23.1957C23.1073 7.76267 23.0353 7.83463 23.0353 7.92311V8.20107C23.0353 8.23416 23.0454 8.26497 23.0626 8.29051L23.0012 8.6651C22.997 8.69051 23.0042 8.71651 23.0209 8.7361C23.0375 8.75574 23.062 8.76709 23.0878 8.76709H24.2204C24.2461 8.76709 24.2706 8.75578 24.2873 8.73615C24.3039 8.71651 24.3112 8.69055 24.307 8.6651L24.2455 8.29047C24.2628 8.26492 24.2728 8.23416 24.2728 8.20111V7.92311C24.2728 7.83467 24.2009 7.76267 24.1124 7.76267H24.084V5.3242C24.2877 5.51926 24.5215 5.68236 24.781 5.80975C25.171 6.00133 25.5637 6.09604 25.972 6.09604C26.0991 6.09604 26.2277 6.08688 26.3582 6.06857C26.8835 5.99501 27.3934 5.76682 27.7939 5.42615C27.8358 5.39049 27.8765 5.35336 27.916 5.31532V5.93225C27.916 5.98073 27.9553 6.02001 28.0037 6.02001C28.0522 6.02001 28.0915 5.98073 28.0915 5.93225V4.78033H28.6004V7.76267H28.0915V6.47855C28.0915 6.43007 28.0522 6.39079 28.0037 6.39079C27.9553 6.39079 27.916 6.43007 27.916 6.47855V7.76267H27.8876C27.7992 7.76267 27.7272 7.83463 27.7272 7.92311V8.20111C27.7272 8.23421 27.7373 8.26497 27.7545 8.29056L27.693 8.6651C27.6888 8.69051 27.6961 8.71646 27.7127 8.7361C27.7294 8.75574 27.7539 8.76705 27.7796 8.76705H28.9123C28.938 8.76705 28.9625 8.75574 28.9791 8.7361C28.9958 8.71646 29.003 8.69055 28.9989 8.6651ZM23.6541 3.4216C23.8811 3.4216 24.0658 3.60631 24.0658 3.83331C24.0658 3.97975 23.9889 4.10848 23.8734 4.18144H23.4348C23.3193 4.10848 23.2424 3.97971 23.2424 3.83331C23.2424 3.60631 23.4271 3.4216 23.6541 3.4216ZM24.117 8.59154H23.1911L23.2288 8.36156H24.0793L24.117 8.59154ZM24.0973 7.93817V8.18601H23.2109V7.93817H23.2995C23.3036 7.93877 23.3077 7.93918 23.3119 7.93918H23.9963C24.0005 7.93918 24.0046 7.93877 24.0086 7.93817H24.0973ZM23.3996 7.76267V4.78033H23.9085V7.76267H23.3996ZM23.2109 4.60483V4.35699H24.0973V4.60483H23.2109ZM28.346 3.4216C28.573 3.4216 28.7576 3.60631 28.7576 3.83331C28.7576 3.97984 28.6805 4.10852 28.5649 4.18144H28.1267C28.0112 4.10848 27.9342 3.97975 27.9342 3.83331C27.9342 3.60631 28.119 3.4216 28.346 3.4216ZM27.9027 4.60483V4.35699H28.7892V4.60483H27.9027ZM27.9027 7.93817H28.7892V8.18601H27.9027V7.93817ZM27.883 8.59154L27.9207 8.36156H28.7712L28.8089 8.59154H27.883Z" fill="white"/>
</g>
</g>
<defs>
<clipPath id="clip0_194_983">
<rect width="32" height="32" fill="white"/>
</clipPath>
<clipPath id="clip1_194_983">
<rect width="18" height="18" fill="white" transform="translate(7 7)"/>
</clipPath>
<clipPath id="clip2_194_983">
<rect width="6" height="6" fill="white" transform="translate(23 3)"/>
</clipPath>
</defs>
</svg>
