<svg width="32" height="32" viewBox="0 0 32 32" fill="none" xmlns="http://www.w3.org/2000/svg">
<g clip-path="url(#clip0_194_982)">
<rect width="32" height="32" fill="white" fill-opacity="0.933333"/>
<rect x="4" y="4" width="24" height="24" rx="12" fill="#11EFE3"/>
<circle cx="26.0238" cy="6.02381" r="6.02381" fill="#9966FF" style="mix-blend-mode:multiply"/>
<g clip-path="url(#clip1_194_982)">
<path d="M26.9705 7.88358C27.2043 7.88358 27.4382 7.79456 27.6163 7.6165C27.9724 7.26042 27.9724 6.68102 27.6163 6.32494C27.2602 5.96884 26.6808 5.96884 26.3247 6.32494C25.9686 6.68102 25.9686 7.26042 26.3247 7.6165C26.5027 7.79454 26.7366 7.88358 26.9705 7.88358ZM26.4903 6.49058C26.6227 6.35819 26.7966 6.29201 26.9705 6.29201C27.1443 6.29201 27.3183 6.35822 27.4506 6.49058C27.7154 6.75533 27.7154 7.18611 27.4506 7.45085C27.1859 7.71561 26.7551 7.7156 26.4903 7.45085C26.2256 7.18611 26.2256 6.75533 26.4903 6.49058Z" fill="white"/>
<path d="M25.9073 5.90755C25.4716 6.34337 25.3456 6.9915 25.5864 7.55875C25.6116 7.6183 25.6804 7.64605 25.7399 7.6208C25.7995 7.59551 25.8273 7.52676 25.802 7.46721C25.5987 6.98831 25.7051 6.44113 26.073 6.07321C26.5679 5.57833 27.3731 5.57835 27.868 6.07321C28.3629 6.56809 28.3629 7.3733 27.868 7.86818C27.6302 8.10591 27.3142 8.23793 26.978 8.23991C26.9754 8.23993 26.9729 8.23993 26.9704 8.23993C26.6373 8.23993 26.323 8.1121 26.0845 7.87954C26.0382 7.83435 25.964 7.83529 25.9189 7.8816C25.8737 7.9279 25.8747 8.00207 25.921 8.04724C26.2035 8.32278 26.5758 8.4742 26.9703 8.47418C26.9733 8.47418 26.9764 8.47418 26.9794 8.47415C27.3776 8.47182 27.752 8.31543 28.0337 8.03381C28.6198 7.4476 28.6198 6.49376 28.0337 5.90754C27.4474 5.32135 26.4936 5.32135 25.9073 5.90755Z" fill="white"/>
<path d="M29.7756 6.44476H29.3588C29.2969 6.16233 29.1868 5.89624 29.0314 5.65357L29.3259 5.3591C29.3683 5.31673 29.3916 5.26039 29.3916 5.20047C29.3916 5.14054 29.3683 5.08421 29.3259 5.04186L28.8994 4.61535C28.857 4.57298 28.8007 4.54963 28.7408 4.54963C28.6808 4.54963 28.6245 4.57297 28.5821 4.61534L28.2877 4.90982C28.045 4.75443 27.7789 4.64432 27.4965 4.58241V4.16563C27.4965 4.04195 27.3959 3.94131 27.2722 3.94131H26.669C26.5993 3.94131 26.537 3.97326 26.4958 4.02327H26.4192C26.3694 3.80489 26.284 3.59864 26.1653 3.40946L26.3905 3.18418C26.47 3.10473 26.47 2.97548 26.3905 2.89602L26.0458 2.5513C26.0073 2.51282 25.9562 2.49163 25.9017 2.49163C25.8473 2.49163 25.7961 2.51282 25.7577 2.55132L25.5324 2.77659C25.3432 2.65786 25.137 2.57251 24.9186 2.5226V2.20376C24.9186 2.09141 24.8272 2 24.7148 2H24.2273C24.115 2 24.0236 2.09141 24.0236 2.20376V2.52261C23.8052 2.57253 23.5989 2.65789 23.4098 2.7766L23.1845 2.55134C23.146 2.51284 23.0949 2.49164 23.0404 2.49164C22.986 2.49164 22.9348 2.51284 22.8963 2.55134L22.5516 2.89603C22.4722 2.97548 22.4722 3.10473 22.5516 3.18419L22.7769 3.40948C22.6582 3.59861 22.5728 3.80489 22.5229 4.02329H22.2041C22.0917 4.02329 22.0003 4.1147 22.0003 4.22705V4.71454C22.0003 4.82689 22.0917 4.9183 22.2041 4.9183H22.5229C22.5728 5.13672 22.6582 5.343 22.7769 5.53211L22.5516 5.7574C22.4722 5.83684 22.4722 5.96611 22.5516 6.04556L22.8963 6.39027C22.9758 6.4697 23.105 6.46973 23.1845 6.39027L23.4098 6.16499C23.5989 6.28371 23.8051 6.36906 24.0236 6.41898V6.49563C23.9734 6.5368 23.9413 6.59925 23.9413 6.66911V7.27229C23.9413 7.39599 24.0419 7.49661 24.1656 7.49661H24.5824C24.6443 7.77906 24.7544 8.04517 24.9098 8.2878L24.6153 8.58227C24.5729 8.62465 24.5496 8.68098 24.5496 8.7409C24.5496 8.80083 24.5729 8.85716 24.6153 8.89952L25.0418 9.32602C25.0842 9.36839 25.1405 9.39174 25.2004 9.39174C25.2603 9.39174 25.3167 9.36841 25.359 9.32604L25.6535 9.03155C25.8962 9.18694 26.1623 9.29706 26.4447 9.35894V9.77573C26.4447 9.89942 26.5453 10 26.669 10H27.2722C27.3959 10 27.4965 9.89942 27.4965 9.77573V9.35889C27.7789 9.297 28.045 9.18688 28.2877 9.0315L28.5822 9.32599C28.6245 9.36834 28.6808 9.39169 28.7408 9.39169C28.8007 9.39169 28.857 9.36836 28.8994 9.32599L29.3259 8.89948C29.3683 8.85711 29.3916 8.80078 29.3916 8.74086C29.3916 8.68093 29.3683 8.6246 29.3259 8.58224L29.0314 8.28776C29.1868 8.04514 29.2969 7.77901 29.3588 7.49656H29.7756C29.8993 7.49656 29.9999 7.39594 29.9999 7.27225V6.66906C29.9999 6.54538 29.8993 6.44476 29.7756 6.44476ZM24.0967 6.19521C23.8892 6.15038 23.6939 6.06959 23.5162 5.95504C23.4359 5.9033 23.3288 5.9146 23.2615 5.98195L23.0404 6.20303L22.7388 5.90145L22.9599 5.68035C23.0272 5.61301 23.0386 5.50589 22.9868 5.4256C22.8723 5.24795 22.7914 5.05266 22.7466 4.84517C22.7264 4.75179 22.6427 4.68401 22.5475 4.68401H22.2346V4.25754H22.5475C22.6427 4.25754 22.7264 4.18975 22.7467 4.09633C22.7915 3.88886 22.8723 3.6936 22.9868 3.51593C23.0386 3.43567 23.0273 3.32853 22.9599 3.26119L22.7388 3.04011L23.0404 2.73853L23.2615 2.95961C23.3288 3.02696 23.4359 3.03826 23.5163 2.98651C23.6939 2.87195 23.8892 2.79114 24.0967 2.74634C24.19 2.72616 24.2578 2.64239 24.2578 2.54715V2.23427H24.6843V2.54717C24.6843 2.6424 24.7521 2.72618 24.8455 2.74635C25.053 2.79116 25.2482 2.87197 25.4259 2.98651C25.5062 3.03825 25.6133 3.02697 25.6807 2.95961L25.9018 2.73853L26.2033 3.04011L25.9823 3.26117C25.9149 3.32852 25.9036 3.43566 25.9554 3.51593C26.0699 3.69363 26.1507 3.88891 26.1955 4.09633C26.2157 4.18974 26.2995 4.25754 26.3947 4.25754H26.4447V4.58241C26.1623 4.64431 25.8962 4.75443 25.6535 4.90982L25.359 4.61534C25.3555 4.61184 25.3518 4.60868 25.3481 4.60545C25.3892 4.33562 25.3062 4.05038 25.0989 3.84303C24.8536 3.5977 24.485 3.51768 24.1599 3.63912C24.0993 3.66177 24.0685 3.72925 24.0912 3.78985C24.1138 3.85045 24.1813 3.88121 24.2419 3.85858C24.4812 3.76914 24.7526 3.82805 24.9332 4.00867C25.0848 4.16024 25.1459 4.3683 25.1171 4.56569C25.0893 4.57682 25.0637 4.5935 25.0418 4.61534L24.6153 5.04184C24.5934 5.06372 24.5767 5.08938 24.5656 5.11727C24.5346 5.12179 24.503 5.12432 24.4711 5.12432C24.2965 5.12432 24.1324 5.05633 24.009 4.93291C23.8027 4.72663 23.7582 4.40515 23.9009 4.15113C23.9325 4.09472 23.9125 4.02332 23.856 3.99166C23.7997 3.96 23.7282 3.98006 23.6966 4.03647C23.5028 4.38165 23.5632 4.8184 23.8433 5.09856C24.0164 5.27164 24.2438 5.35818 24.4711 5.35818C24.5159 5.35818 24.5607 5.35463 24.6051 5.34787C24.6084 5.35166 24.6117 5.35551 24.6153 5.3591L24.9098 5.65358C24.7544 5.89622 24.6443 6.16235 24.5824 6.44478H24.2578V6.39441C24.2578 6.29917 24.1901 6.2154 24.0967 6.19521ZM29.7657 7.2623H29.3507C29.2459 7.2623 29.1537 7.33695 29.1314 7.43983C29.0753 7.6998 28.974 7.94451 28.8305 8.16714C28.7735 8.25554 28.7859 8.37351 28.86 8.44763L29.1532 8.74084L28.7408 9.15329L28.4476 8.86007C28.3735 8.78596 28.2555 8.77351 28.1671 8.8305C27.9445 8.97406 27.6997 9.07531 27.4398 9.13147C27.3369 9.15369 27.2623 9.24592 27.2623 9.35076V9.7657H26.679V9.35076C26.679 9.24593 26.6043 9.15371 26.5014 9.13147C26.2415 9.07532 25.9968 8.97406 25.7741 8.8305C25.6857 8.77353 25.5678 8.78594 25.4936 8.86007L25.2004 9.15327L24.788 8.74082L25.0812 8.44762C25.1553 8.37348 25.1678 8.25552 25.1108 8.16713C24.9672 7.94448 24.8659 7.69978 24.8098 7.43979C24.7875 7.33694 24.6953 7.26227 24.5905 7.26227H24.1756V6.67898H24.5905C24.6953 6.67898 24.7875 6.60433 24.8098 6.50145C24.8659 6.24148 24.9672 5.99677 25.1107 5.77414C25.1678 5.68573 25.1553 5.56777 25.0812 5.49364L24.788 5.20044L25.2004 4.78799L25.4936 5.0812C25.5677 5.15532 25.6857 5.16775 25.7741 5.11078C25.9968 4.96722 26.2415 4.86595 26.5014 4.80981C26.6043 4.78758 26.679 4.69536 26.679 4.59052V4.17556H27.2623V4.5905C27.2623 4.69535 27.3369 4.78757 27.4398 4.80979C27.6997 4.86594 27.9444 4.9672 28.1671 5.11076C28.2555 5.16773 28.3735 5.15533 28.4476 5.08118L28.7408 4.78797L29.1532 5.20042L28.86 5.49367C28.7859 5.56781 28.7735 5.68577 28.8305 5.77415C28.974 5.9968 29.0753 6.24151 29.1314 6.5015C29.1537 6.60436 29.2459 6.67903 29.3507 6.67903H29.7657V7.2623H29.7657Z" fill="white"/>
</g>
</g>
<path d="M19.8482 24H18.4619C18.0951 24 17.7966 23.7016 17.7966 23.3348V8.66525C17.7966 8.29844 18.095 8 18.4619 8H19.8482C20.215 8 20.5134 8.29844 20.5134 8.66525V11.3229C20.5134 11.4524 20.4085 11.5573 20.2791 11.5573C20.1496 11.5573 20.0447 11.4524 20.0447 11.3229V8.66525C20.0447 8.55691 19.9565 8.46875 19.8482 8.46875H18.4619C18.3535 8.46875 18.2654 8.55691 18.2654 8.66525V23.3348C18.2654 23.4431 18.3535 23.5312 18.4619 23.5312H19.8482C19.9565 23.5312 20.0447 23.4431 20.0447 23.3348V12.2605C20.0447 12.131 20.1496 12.0261 20.2791 12.0261C20.4085 12.0261 20.5134 12.131 20.5134 12.2605V23.3348C20.5134 23.7016 20.215 24 19.8482 24Z" fill="white"/>
<path d="M15.8494 20.257H8.47759C8.21425 20.257 8 20.0428 8 19.7794V17.3669C8 17.1035 8.21425 16.8893 8.47759 16.8893H10.5312C10.6607 16.8893 10.7656 16.9942 10.7656 17.1237C10.7656 17.2531 10.6607 17.358 10.5312 17.358H8.47759C8.47272 17.358 8.46875 17.362 8.46875 17.3669V19.7794C8.46875 19.7843 8.47272 19.7883 8.47759 19.7883H15.8494C15.8543 19.7883 15.8583 19.7843 15.8583 19.7794V17.3669C15.8583 17.362 15.8543 17.358 15.8494 17.358H11.4687C11.3392 17.358 11.2343 17.2531 11.2343 17.1237C11.2343 16.9942 11.3392 16.8893 11.4687 16.8893H15.8495C16.1128 16.8893 16.3271 17.1035 16.3271 17.3669V19.7794C16.3271 20.0428 16.1128 20.257 15.8494 20.257Z" fill="white"/>
<path d="M15.8495 15.1107H11.5758C11.3125 15.1107 11.0982 14.8964 11.0982 14.6331V12.2205C11.0982 11.9572 11.3125 11.7429 11.5758 11.7429H15.8496C16.1129 11.7429 16.3272 11.9572 16.3272 12.2205V14.6331C16.3272 14.8965 16.1129 15.1107 15.8495 15.1107ZM11.5758 12.2117C11.5709 12.2117 11.567 12.2157 11.567 12.2205V14.6331C11.567 14.638 11.5709 14.642 11.5758 14.642H15.8496C15.8545 14.642 15.8584 14.638 15.8584 14.6331V12.2205C15.8584 12.2157 15.8545 12.2117 15.8496 12.2117H11.5758Z" fill="white"/>
<defs>
<clipPath id="clip0_194_982">
<rect width="32" height="32" fill="white"/>
</clipPath>
<clipPath id="clip1_194_982">
<rect width="8" height="8" fill="white" transform="translate(22 2)"/>
</clipPath>
</defs>
</svg>
