<svg width="32" height="32" viewBox="0 0 32 32" fill="none" xmlns="http://www.w3.org/2000/svg">
<g clip-path="url(#clip0_194_984)">
<rect width="32" height="32" fill="white" fill-opacity="0.933333"/>
<rect x="4" y="4" width="24" height="24" rx="12" fill="#11EFE3"/>
<circle cx="26.0238" cy="6.02381" r="6.02381" fill="#9966FF" style="mix-blend-mode:multiply"/>
<path d="M28.9162 3.85089L28.1491 3.08379C28.0374 2.97206 27.8556 2.97208 27.7438 3.08379L26.2995 4.52807C26.2634 4.56425 26.2634 4.62286 26.2995 4.65904C26.3357 4.69519 26.3943 4.69519 26.4305 4.65904L27.8748 3.21476C27.8939 3.19562 27.9194 3.18508 27.9465 3.18508C27.9735 3.18508 27.999 3.19562 28.0181 3.21476L28.7852 3.98186C28.8044 4.00099 28.8149 4.02645 28.8149 4.05353C28.8149 4.0806 28.8044 4.10606 28.7852 4.12519L28.597 4.31345L28.1037 3.82022C28.0676 3.78406 28.0089 3.78406 27.9728 3.82022C27.9366 3.85639 27.9366 3.91501 27.9728 3.95119L28.466 4.44442L28.2509 4.6595L28.0342 4.44272C27.998 4.40657 27.9394 4.40657 27.9032 4.44272C27.867 4.4789 27.867 4.53751 27.9032 4.57369L28.12 4.79046L27.9049 5.00554L27.6881 4.78876C27.6519 4.75261 27.5933 4.75261 27.5572 4.78876C27.521 4.82494 27.521 4.88355 27.5572 4.91973L27.7739 5.1365L27.5588 5.35158L27.0656 4.85832C27.0295 4.82218 26.9708 4.82216 26.9346 4.85832C26.8985 4.8945 26.8985 4.95312 26.9346 4.98929L27.4279 5.48254L27.2128 5.69762L26.996 5.48084C26.9599 5.44468 26.9012 5.44468 26.8651 5.48084C26.8289 5.51701 26.8289 5.57563 26.8651 5.61181L27.0818 5.82858L26.8999 6.01053L25.9894 5.10009L26.1588 4.93073C26.195 4.89456 26.195 4.83594 26.1588 4.79976C26.1226 4.76361 26.064 4.76361 26.0278 4.79976L25.8585 4.96911L24.1502 3.26091C24.0314 3.14211 23.8734 3.07668 23.7054 3.07668C23.5374 3.07669 23.3795 3.14212 23.2607 3.26093C23.1418 3.37973 23.0764 3.53768 23.0764 3.70571C23.0764 3.87373 23.1418 4.03169 23.2606 4.15049L24.9689 5.85872L23.0838 7.74383C22.9721 7.85557 22.9721 8.03737 23.0838 8.14911L23.8509 8.91621C23.905 8.97033 23.977 9.00014 24.0535 9.00014C24.1301 9.00014 24.202 8.97033 24.2562 8.91621L26.1413 7.03111L26.2755 7.16538C26.3117 7.20153 26.3703 7.20153 26.4065 7.16538C26.4426 7.1292 26.4426 7.07058 26.4065 7.03441L26.2212 6.84908C26.2176 6.84339 26.2133 6.83797 26.2084 6.83301C26.2034 6.82806 26.198 6.82384 26.1923 6.82024L24.1858 4.81367L24.4341 4.56534L24.5876 4.71888C24.6057 4.73695 24.6294 4.746 24.6531 4.746C24.6768 4.746 24.7005 4.73695 24.7186 4.71888C24.7548 4.6827 24.7548 4.62408 24.7186 4.58791L24.5651 4.43438L24.8134 4.18604L25.7929 5.1655C25.7929 5.16555 25.793 5.16558 25.793 5.16563C25.793 5.16568 25.7931 5.1657 25.7931 5.16575L26.8254 6.19797C26.8279 6.20135 26.8306 6.20465 26.8337 6.20773C26.8368 6.21082 26.8401 6.21354 26.8435 6.21609L28.2177 7.59036L27.9694 7.8387L26.5828 6.45215C26.582 6.45124 26.5813 6.45029 26.5804 6.44943L26.0275 5.89649C26.0265 5.89557 26.0255 5.89478 26.0246 5.89391L25.0479 4.91722C25.0117 4.88107 24.9531 4.88107 24.9169 4.91722C24.8808 4.9534 24.8808 5.01202 24.9169 5.04819L27.8384 7.96964L27.59 8.21798L26.71 7.33792C26.6738 7.30176 26.6152 7.30176 26.579 7.33792C26.5429 7.37409 26.5429 7.43271 26.579 7.46889L27.5246 8.41443C27.5336 8.42342 27.5447 8.43067 27.5565 8.43526L28.6755 8.86968C28.6931 8.87652 28.7115 8.87985 28.7298 8.87985C28.7689 8.87985 28.8074 8.86452 28.8361 8.8358C28.8782 8.79369 28.8914 8.73064 28.8698 8.67516L28.435 7.55677C28.4304 7.54496 28.4231 7.5338 28.4141 7.52484L27.0308 6.14153L28.9162 4.25616C29.0279 4.14442 29.0279 3.96263 28.9162 3.85089ZM26.0103 6.90015L25.8286 7.08183L25.6118 6.86505C25.5757 6.8289 25.517 6.8289 25.4809 6.86505C25.4447 6.90123 25.4447 6.95985 25.4809 6.99603L25.6976 7.21281L25.4826 7.42788L24.9893 6.93464C24.9532 6.89849 24.8945 6.89849 24.8584 6.93464C24.8222 6.97082 24.8222 7.02944 24.8584 7.06561L25.3516 7.55886L25.1365 7.77394L24.9197 7.55716C24.8836 7.521 24.825 7.521 24.7888 7.55716C24.7526 7.59333 24.7526 7.65195 24.7888 7.68813L25.0056 7.9049L24.7905 8.11998L24.5737 7.9032C24.5375 7.86704 24.4789 7.86704 24.4427 7.9032C24.4066 7.93937 24.4066 7.99799 24.4427 8.03417L24.6595 8.25095L24.4444 8.46603L23.9512 7.97278C23.915 7.93663 23.8564 7.93663 23.8202 7.97278C23.7841 8.00896 23.7841 8.06758 23.8202 8.10376L24.3135 8.59699L24.1252 8.78524C24.1061 8.80439 24.0806 8.81494 24.0536 8.81494C24.0265 8.81494 24.001 8.80439 23.9819 8.78524L23.2148 8.01814C23.1753 7.97862 23.1753 7.91432 23.2148 7.8748L25.0999 5.9897L26.0103 6.90015ZM23.3916 4.01953C23.2186 3.84649 23.2186 3.56493 23.3916 3.39189C23.5647 3.21883 23.8462 3.21883 24.0193 3.39189L24.312 3.68458L23.6843 4.31223L23.3916 4.01953ZM24.3687 4.36882C24.3687 4.36884 24.3686 4.36885 24.3686 4.36888C24.3686 4.3689 24.3686 4.36892 24.3686 4.36894L24.0548 4.6827L23.8153 4.44318L24.4429 3.81553L24.6824 4.05505L24.3687 4.36882ZM28.6685 8.66827L27.756 8.31402L28.3138 7.75618L28.6685 8.66827Z" fill="white"/>
</g>
<path d="M26 16C26 13.7944 24.0425 12 21.6364 12C20.5421 12 19.3615 12.3794 18.1273 13.1277C17.2542 13.6571 16.5162 14.2732 16.0002 14.7528C15.6661 14.4425 15.2287 14.0656 14.7154 13.6909C13.1782 12.5689 11.7141 12 10.3636 12C7.95754 12 6 13.7944 6 16C6 18.2056 7.95754 20 10.3636 20C11.4579 20 12.6385 19.6206 13.8727 18.8723C14.7458 18.3429 15.4837 17.7268 15.9998 17.2472C16.3339 17.5575 16.7713 17.9344 17.2846 18.3091C18.8218 19.4311 20.2859 20 21.6364 20C24.0425 20 26 18.2056 26 16ZM15.7416 16.193C15.7403 16.1915 15.6091 16.0457 15.3755 15.8166C14.5575 15.0143 12.4316 13.1481 10.3636 13.1481C8.64812 13.1481 7.2525 14.4275 7.2525 16C7.2525 17.5725 8.64816 18.8519 10.3636 18.8519C11.857 18.8519 13.3739 17.8809 14.3835 17.0664C14.505 16.9684 14.5168 16.7987 14.4099 16.6874C14.303 16.5761 14.1179 16.5652 13.9964 16.6632C13.0625 17.4166 11.6742 18.3148 10.3636 18.3148C8.97121 18.3148 7.83844 17.2764 7.83844 16C7.83844 14.7236 8.97125 13.6852 10.3636 13.6852C11.1464 13.6852 12.0416 14.0041 13.0243 14.6329C13.8381 15.1536 14.5193 15.7634 14.9475 16.1834C15.1659 16.3975 15.4236 16.6832 15.5962 16.8572C14.6205 17.7647 12.5077 19.4629 10.3636 19.4629C8.28062 19.4629 6.58594 17.9095 6.58594 16C6.58594 14.0905 8.28062 12.5371 10.3636 12.5371C13.3017 12.5371 16.1387 15.6732 16.2583 15.807C16.2651 15.8145 16.9492 16.5733 17.9525 17.3284C19.2957 18.3393 20.5351 18.8519 21.6363 18.8519C23.3518 18.8519 24.7475 17.5725 24.7475 16C24.7475 14.4275 23.3518 13.1481 21.6363 13.1481C20.162 13.1481 18.6405 14.1121 17.6238 14.9209C17.5016 15.0181 17.4885 15.1877 17.5945 15.2997C17.7005 15.4117 17.8856 15.4238 18.0078 15.3265C18.7784 14.7136 20.2746 13.6852 21.6363 13.6852C23.0287 13.6852 24.1615 14.7236 24.1615 16C24.1615 17.2764 23.0287 18.3148 21.6363 18.3148C20.4399 18.3148 19.1779 17.5549 18.3299 16.9175C17.3731 16.1983 16.7174 15.4731 16.7113 15.4663C16.6829 15.4346 16.5763 15.3168 16.4037 15.1428C17.3794 14.2353 19.4923 12.5371 21.6363 12.5371C23.7194 12.5371 25.4141 14.0905 25.4141 16C25.4141 17.9095 23.7194 19.4629 21.6364 19.4629C20.1235 19.4629 18.6333 18.607 17.6496 17.8889C16.5532 17.0887 15.8218 16.2826 15.7416 16.193Z" fill="white"/>
<path d="M16.2031 13.9106C16.2786 13.9197 16.3582 13.8979 16.4264 13.8423C16.9173 13.4422 17.4129 13.0823 17.8994 12.7727C18.056 12.6731 18.1167 12.4494 18.0351 12.2731C17.9536 12.0968 17.7605 12.0347 17.604 12.1343C17.0958 12.4577 16.579 12.8328 16.068 13.2495C15.9218 13.3686 15.8836 13.5979 15.9826 13.7616C16.0353 13.849 16.1166 13.9001 16.2031 13.9106Z" fill="white"/>
<path d="M13.8658 19.4287C13.3336 19.772 12.8012 20.0749 12.2834 20.3287C12.1168 20.4104 12.0316 20.626 12.0932 20.8102C12.1307 20.9224 12.2139 20.997 12.3109 21.0199C12.3732 21.0346 12.4412 21.0278 12.5064 20.9959C13.0472 20.7307 13.6023 20.4151 14.1564 20.0575C14.3148 19.9553 14.3782 19.7316 14.2979 19.558C14.2178 19.3844 14.0242 19.3264 13.8658 19.4287Z" fill="white"/>
<defs>
<clipPath id="clip0_194_984">
<rect width="32" height="32" fill="white"/>
</clipPath>
</defs>
</svg>
