<svg width="31" height="32" viewBox="0 0 31 32" fill="none" xmlns="http://www.w3.org/2000/svg">
<circle cx="13.8527" cy="18.4475" r="12.589" fill="#11EFE3" stroke="white"/>
<path d="M21.673 18.4475C21.673 21.9806 20.752 25.1559 19.2893 27.4325C17.8232 29.7145 15.8579 31.0365 13.7636 31.0365C11.6694 31.0365 9.70405 29.7145 8.23791 27.4325C6.77523 25.1559 5.85419 21.9806 5.85419 18.4475C5.85419 14.9144 6.77523 11.7391 8.23791 9.46246C9.70405 7.18047 11.6694 5.85852 13.7636 5.85852C15.8579 5.85852 17.8232 7.18047 19.2893 9.46246C20.752 11.7391 21.673 14.9144 21.673 18.4475Z" fill="#11EFE3" stroke="white"/>
<path d="M23.3905 9.62463C20.9335 11.3102 17.5668 12.3496 13.8529 12.3496C10.1391 12.3496 6.77238 11.3102 4.31537 9.62463" stroke="white"/>
<path d="M4.31534 27.3373C6.77235 25.6517 10.139 24.6123 13.8529 24.6123C17.5668 24.6123 20.9334 25.6517 23.3904 27.3373" stroke="white"/>
<path d="M1.41241 18.4474H26.1151" stroke="white"/>
<path d="M13.7638 6.09595L13.7638 30.7986" stroke="white"/>
<circle cx="22.0604" cy="8.29452" r="8.20748" fill="#9966FF" style="mix-blend-mode:multiply"/>
</svg>
