<svg width="32" height="32" viewBox="0 0 32 32" fill="none" xmlns="http://www.w3.org/2000/svg">
<g clip-path="url(#clip0_194_980)">
<rect width="32" height="32" fill="white" fill-opacity="0.933333"/>
<rect x="4" y="4" width="24" height="24" rx="12" fill="#11EFE3"/>
<g clip-path="url(#clip1_194_980)">
<path d="M10.4065 22.364C8.57676 20.7544 7.52734 18.4349 7.52734 16C7.52734 13.7369 8.40864 11.6093 10.009 10.009C11.6093 8.40864 13.7369 7.52734 16 7.52734C17.1447 7.52734 18.2547 7.75157 19.2993 8.1938C19.4333 8.25047 19.5881 8.18789 19.6449 8.05377C19.7016 7.91969 19.639 7.76493 19.5049 7.70815C18.3949 7.23825 17.2157 7 16 7C13.5961 7 11.336 7.93618 9.63605 9.63605C7.93618 11.336 7 13.5961 7 16C7 18.5864 8.11463 21.0503 10.0581 22.7599C10.1082 22.8039 10.1703 22.8256 10.2322 22.8256C10.3053 22.8256 10.3781 22.7953 10.4302 22.7361C10.5265 22.6267 10.5158 22.4601 10.4065 22.364Z" fill="white"/>
<path d="M23.7976 11.5031C23.0346 10.1828 21.9404 9.06944 20.6334 8.28334C20.5086 8.20832 20.3467 8.24864 20.2716 8.37341C20.1965 8.49822 20.2369 8.66022 20.3617 8.73528C21.5923 9.47546 22.6226 10.5238 23.3411 11.767C24.0814 13.0479 24.4727 14.5117 24.4727 16C24.4727 18.2631 23.5914 20.3908 21.9911 21.9911C20.3908 23.5914 18.2631 24.4727 16 24.4727C14.3418 24.4727 12.7356 23.9936 11.355 23.0872C11.2333 23.0073 11.0698 23.0411 10.9899 23.1629C10.91 23.2846 10.9438 23.4481 11.0656 23.528C12.5324 24.491 14.2387 25 16 25C18.404 25 20.6641 24.0639 22.364 22.364C24.0638 20.6641 25 18.404 25 16C25 14.4192 24.5842 12.8641 23.7976 11.5031Z" fill="white"/>
<path d="M23.0122 13.0865C22.878 13.0302 22.7234 13.0933 22.667 13.2276L21.7132 15.5005C21.6568 15.6347 21.72 15.7893 21.8543 15.8456C21.8876 15.8596 21.9222 15.8662 21.9562 15.8662C22.0592 15.8662 22.1571 15.8054 22.1995 15.7045L23.1533 13.4316C23.2096 13.2974 23.1465 13.1428 23.0122 13.0865Z" fill="white"/>
<path d="M21.4483 13.1072C21.2129 13.1072 21.0222 13.3289 21.0222 13.6024C21.0222 13.8759 21.2129 14.0976 21.4483 14.0976C21.6837 14.0976 21.8745 13.8759 21.8745 13.6024C21.8745 13.3289 21.6837 13.1072 21.4483 13.1072Z" fill="white"/>
<path d="M23.3825 15.8933C23.6178 15.8933 23.8086 15.6715 23.8086 15.398C23.8086 15.1245 23.6178 14.9028 23.3825 14.9028C23.1471 14.9028 22.9563 15.1245 22.9563 15.398C22.9563 15.6715 23.1471 15.8933 23.3825 15.8933Z" fill="white"/>
<path d="M11.5102 18.1903V16.6982C11.5102 16.5526 11.3922 16.4346 11.2465 16.4346C11.1009 16.4346 10.9829 16.5526 10.9829 16.6982V18.1903C10.9829 18.4322 10.786 18.629 10.5441 18.629C10.3022 18.629 10.1054 18.4322 10.1054 18.1903V14.6781C10.1054 14.5325 9.98737 14.4145 9.84172 14.4145H9.64344C9.40149 14.4145 9.20469 14.2176 9.20469 13.9757C9.20469 13.7336 9.40153 13.5366 9.64344 13.5366H10.5441C10.786 13.5366 10.9829 13.7336 10.9829 13.9757V15.4678C10.9829 15.6134 11.1009 15.7314 11.2465 15.7314C11.3922 15.7314 11.5102 15.6134 11.5102 15.4678V13.9757C11.5102 13.4428 11.0768 13.0093 10.5441 13.0093H9.6434C9.11071 13.0093 8.67731 13.4428 8.67731 13.9757C8.67731 14.4864 9.0757 14.9059 9.57801 14.9396V18.1903C9.57801 18.7229 10.0114 19.1563 10.5441 19.1563C11.0768 19.1563 11.5102 18.7229 11.5102 18.1903Z" fill="white"/>
<path d="M14.0138 14.4143C13.61 14.4143 13.2816 14.7428 13.2816 15.1465V17.0193C13.2816 17.423 13.61 17.7515 14.0138 17.7515C14.4175 17.7515 14.746 17.423 14.746 17.0193V15.1465C14.746 14.7428 14.4175 14.4143 14.0138 14.4143ZM14.2187 17.0193C14.2187 17.1323 14.1267 17.2242 14.0138 17.2242C13.9008 17.2242 13.8089 17.1323 13.8089 17.0193V15.1465C13.8089 15.0335 13.9008 14.9417 14.0138 14.9417C14.1267 14.9417 14.2187 15.0335 14.2187 15.1465V17.0193Z" fill="white"/>
<path d="M14.0138 13.0094C12.8353 13.0094 11.8766 13.9681 11.8766 15.1466V17.0193C11.8766 18.1978 12.8354 19.1565 14.0138 19.1565C15.1922 19.1565 16.1509 18.1977 16.1509 17.0193V15.1466C16.1509 13.9681 15.1922 13.0094 14.0138 13.0094ZM15.6236 17.0193C15.6236 17.9069 14.9014 18.6291 14.0138 18.6291C13.1261 18.6291 12.404 17.9069 12.404 17.0193V15.1465C12.404 14.2589 13.1261 13.5367 14.0138 13.5367C14.9014 13.5367 15.6236 14.2589 15.6236 15.1465V17.0193Z" fill="white"/>
<path d="M16.514 15.1466V17.0193C16.514 18.1978 17.4728 19.1565 18.6512 19.1565C19.8297 19.1565 20.7884 18.1977 20.7884 17.0193V15.1466C20.7884 13.9681 19.8296 13.0094 18.6512 13.0094C17.4728 13.0094 16.514 13.9681 16.514 15.1466ZM20.261 15.1466V17.0193C20.261 17.907 19.5388 18.6291 18.6512 18.6291C17.7635 18.6291 17.0414 17.9069 17.0414 17.0193V15.1466C17.0414 14.2589 17.7635 13.5367 18.6512 13.5367C19.5388 13.5367 20.261 14.2589 20.261 15.1466Z" fill="white"/>
<path d="M17.9189 15.1465V17.0193C17.9189 17.423 18.2474 17.7515 18.6511 17.7515C19.0549 17.7515 19.3834 17.423 19.3834 17.0193V15.1465C19.3834 14.7428 19.0549 14.4143 18.6511 14.4143C18.2474 14.4143 17.9189 14.7428 17.9189 15.1465ZM18.856 15.1465V17.0193C18.856 17.1323 18.7641 17.2242 18.6511 17.2242C18.5382 17.2242 18.4463 17.1323 18.4463 17.0193V15.1465C18.4463 15.0335 18.5382 14.9417 18.6511 14.9417C18.7641 14.9417 18.856 15.0335 18.856 15.1465Z" fill="white"/>
</g>
<circle cx="26.0238" cy="6.02381" r="6.02381" fill="#9966FF" style="mix-blend-mode:multiply"/>
<g clip-path="url(#clip2_194_980)">
<path d="M29.5831 6.79248C29.8441 6.61278 30 6.31652 30 6C30 5.68348 29.8441 5.38722 29.5831 5.20752C29.4815 5.13761 29.4463 5.00608 29.4993 4.89477C29.6355 4.60862 29.6224 4.27413 29.4641 4C29.3058 3.72589 29.0227 3.54725 28.7068 3.52214C28.5839 3.51237 28.4876 3.41609 28.4779 3.2932C28.4528 2.97727 28.2741 2.69417 28 2.53591C27.7259 2.37764 27.3914 2.36448 27.1052 2.50072C26.9939 2.55372 26.8624 2.51845 26.7925 2.41692C26.6128 2.15586 26.3165 2 26 2C25.6835 2 25.3872 2.15586 25.2075 2.41691C25.1376 2.51847 25.0061 2.5537 24.8948 2.5007C24.6086 2.36448 24.2741 2.37764 24 2.53589C23.7259 2.69416 23.5473 2.97727 23.5221 3.29319C23.5124 3.41609 23.4161 3.51237 23.2932 3.52214C22.9772 3.54725 22.6942 3.72589 22.5359 4C22.3776 4.27413 22.3645 4.60862 22.5007 4.89477C22.5537 5.00608 22.5185 5.13761 22.4169 5.20752C22.1559 5.38722 22 5.68347 22 6C22 6.31653 22.1559 6.61278 22.4169 6.79248C22.5185 6.86239 22.5537 6.99392 22.5007 7.10523C22.3645 7.39137 22.3776 7.72587 22.5359 8C22.6942 8.27413 22.9773 8.45277 23.2932 8.47786C23.4161 8.48763 23.5124 8.58391 23.5221 8.7068C23.5342 8.85797 23.5824 9.00608 23.6615 9.13511C23.6953 9.19014 23.7673 9.20737 23.8223 9.17359C23.8774 9.13983 23.8946 9.06783 23.8608 9.0128C23.8008 8.91506 23.7643 8.80286 23.7552 8.68828C23.7363 8.4502 23.5498 8.26367 23.3117 8.24477C23.0725 8.22577 22.8582 8.09056 22.7384 7.88309C22.6186 7.67562 22.6087 7.42241 22.7118 7.20575C22.8145 6.99011 22.7462 6.73531 22.5495 6.59989C22.3518 6.46381 22.2338 6.23956 22.2338 6C22.2338 5.76044 22.3518 5.53619 22.5495 5.40013C22.7462 5.2647 22.8145 5.00989 22.7118 4.79427C22.6087 4.57759 22.6186 4.32439 22.7384 4.11692C22.8582 3.90945 23.0725 3.77425 23.3117 3.75525C23.5498 3.73634 23.7363 3.54981 23.7552 3.31172C23.7743 3.07252 23.9095 2.85819 24.1169 2.73841C24.3244 2.61861 24.5776 2.6087 24.7943 2.71184C25.0099 2.81448 25.2647 2.74623 25.4001 2.5495C25.5362 2.35184 25.7605 2.23383 26 2.23383C26.2395 2.23383 26.4638 2.35183 26.5999 2.5495C26.7353 2.74623 26.9901 2.8145 27.2057 2.71184C27.4224 2.60869 27.6756 2.61861 27.8831 2.73841C28.0905 2.85819 28.2257 3.07252 28.2448 3.31173C28.2637 3.54981 28.4502 3.73634 28.6883 3.75525C28.9275 3.77425 29.1418 3.90945 29.2616 4.11692C29.3814 4.32439 29.3913 4.57761 29.2882 4.79427C29.1855 5.00989 29.2538 5.2647 29.4505 5.40013C29.6482 5.53619 29.7662 5.76044 29.7662 6C29.7662 6.23956 29.6482 6.46381 29.4505 6.59989C29.2538 6.73531 29.1855 6.99011 29.2882 7.20575C29.3913 7.42241 29.3814 7.67562 29.2616 7.88309C29.1418 8.09056 28.9275 8.22577 28.6883 8.24477C28.4502 8.26367 28.2637 8.4502 28.2448 8.6883C28.2258 8.9275 28.0906 9.14183 27.8831 9.26161C27.6756 9.38139 27.4224 9.39133 27.2057 9.28817C26.9901 9.1855 26.7353 9.2538 26.5999 9.45052C26.4638 9.64817 26.2396 9.76619 26 9.76619C25.7605 9.76619 25.5362 9.64819 25.4001 9.45052C25.2647 9.25378 25.0099 9.18552 24.7943 9.28817C24.6146 9.3737 24.4056 9.38214 24.221 9.31128C24.1608 9.28816 24.0931 9.31825 24.07 9.37855C24.0468 9.43883 24.077 9.50645 24.1372 9.52958C24.3814 9.62328 24.6575 9.61225 24.8948 9.4993C25.0061 9.4463 25.1376 9.48155 25.2075 9.58309C25.3872 9.84414 25.6835 10 26 10C26.3165 10 26.6128 9.84414 26.7925 9.58309C26.8624 9.48153 26.9939 9.4463 27.1052 9.4993C27.3914 9.63553 27.7259 9.62238 28 9.46411C28.2741 9.30584 28.4528 9.02273 28.4779 8.70681C28.4876 8.58391 28.5839 8.48763 28.7068 8.47786C29.0228 8.45277 29.3059 8.27413 29.4641 8C29.6224 7.72587 29.6355 7.39139 29.4993 7.10523C29.4463 6.99392 29.4815 6.86239 29.5831 6.79248Z" fill="white"/>
<path d="M28.8162 5.99635C28.8162 4.4435 27.5529 3.18018 26 3.18018C24.4472 3.18018 23.1838 4.4435 23.1838 5.99635C23.1838 7.54919 24.4472 8.81254 26 8.81254C27.5529 8.81254 28.8162 7.54919 28.8162 5.99635ZM23.4177 5.99635C23.4177 4.57244 24.5761 3.41399 26 3.41399C27.4239 3.41399 28.5824 4.57243 28.5824 5.99635C28.5824 7.42027 27.4239 8.57871 26 8.57871C24.5761 8.57871 23.4177 7.42027 23.4177 5.99635Z" fill="white"/>
<path d="M27.5298 4.69193C27.3189 4.50641 26.9964 4.52705 26.8102 4.7387L26.4235 5.18562C26.3812 5.23445 26.3865 5.30827 26.4354 5.35052C26.4842 5.39277 26.558 5.38745 26.6003 5.33862L26.9864 4.8924C27.0868 4.77829 27.2613 4.76712 27.3754 4.86749C27.4895 4.96787 27.5007 5.14237 27.3998 5.25707L25.7998 7.10041C25.7475 7.1599 25.672 7.19401 25.5929 7.19401H25.5911C25.5112 7.19351 25.4356 7.15841 25.3836 7.09776L24.5973 6.18045C24.5494 6.12455 24.5261 6.05335 24.5318 5.97995C24.5374 5.90654 24.5713 5.83973 24.6272 5.7918C24.6831 5.74388 24.7543 5.7206 24.8277 5.72626C24.9011 5.73191 24.9679 5.7658 25.0159 5.82171L25.5079 6.39577C25.5301 6.42162 25.5624 6.43651 25.5964 6.4366H25.5967C25.6306 6.4366 25.6629 6.42187 25.6851 6.3962L26.2436 5.75085C26.2858 5.70202 26.2805 5.6282 26.2317 5.58595C26.1828 5.5437 26.109 5.54902 26.0667 5.59785L25.5971 6.14054L25.1934 5.66954C25.1049 5.56623 24.9814 5.50357 24.8457 5.49313C24.71 5.48271 24.5784 5.52571 24.4751 5.61427C24.3717 5.70284 24.3091 5.82634 24.2987 5.96201C24.2882 6.0977 24.3312 6.22931 24.4198 6.33262L25.2061 7.24993C25.3022 7.36205 25.442 7.4269 25.5893 7.42782L25.5929 7.42784C25.7393 7.42784 25.8787 7.36479 25.9759 7.25429L27.5759 5.41096C27.7614 5.20002 27.7408 4.87746 27.5298 4.69193Z" fill="white"/>
</g>
</g>
<defs>
<clipPath id="clip0_194_980">
<rect width="32" height="32" fill="white"/>
</clipPath>
<clipPath id="clip1_194_980">
<rect width="18" height="18" fill="white" transform="translate(7 7)"/>
</clipPath>
<clipPath id="clip2_194_980">
<rect width="8" height="8" fill="white" transform="translate(22 2)"/>
</clipPath>
</defs>
</svg>
