<svg width="31" height="19" viewBox="0 0 31 19" fill="none" xmlns="http://www.w3.org/2000/svg">
<rect x="0.47937" y="3.22461" width="25.9463" height="15.5678" rx="1" fill="#11EFE3"/>
<rect x="2.79504" y="4.95447" width="21.2133" height="2.66992" rx="0.5" fill="white"/>
<path d="M20.7431 12.2189L15.6648 7.14042C15.5 6.97566 15.5104 6.70551 15.6873 6.55388L17.2786 5.18987C17.4407 5.051 17.6832 5.06375 17.8297 5.21886L20.9627 8.53464C21.0034 8.57771 21.0724 8.57614 21.1111 8.53125L27.4812 1.14242C27.6205 0.980839 27.8621 0.957018 28.0303 1.08828L29.7116 2.40055C29.8955 2.54408 29.918 2.81387 29.7605 2.98595L21.321 12.2061C21.1672 12.3742 20.9043 12.38 20.7431 12.2189Z" fill="#9966FF" style="mix-blend-mode:multiply"/>
<path d="M21.6714 18.4967L16.593 13.4183C16.4283 13.2535 16.4386 12.9834 16.6156 12.8317L18.2069 11.4677C18.3689 11.3288 18.6114 11.3416 18.7579 11.4967L21.8909 14.8125C21.9316 14.8556 22.0006 14.854 22.0393 14.8091L28.4094 7.42028C28.5487 7.2587 28.7903 7.23488 28.9585 7.36614L30.6398 8.67841C30.8237 8.82193 30.8462 9.09173 30.6887 9.2638L22.2493 18.484C22.0954 18.652 21.8325 18.6578 21.6714 18.4967Z" fill="#9966FF" style="mix-blend-mode:multiply"/>
</svg>
