<svg width="31" height="22" viewBox="0 0 31 22" fill="none" xmlns="http://www.w3.org/2000/svg">
<path d="M1.0467 9.30029H2.6967V18.3003H5.4117V19.8003H1.0467V9.30029ZM8.52936 19.9503C7.71936 19.9503 7.09936 19.7203 6.66936 19.2603C6.23936 18.8003 6.02436 18.1503 6.02436 17.3103V11.7903C6.02436 10.9503 6.23936 10.3003 6.66936 9.84029C7.09936 9.38029 7.71936 9.15029 8.52936 9.15029C9.33936 9.15029 9.95936 9.38029 10.3894 9.84029C10.8194 10.3003 11.0344 10.9503 11.0344 11.7903V17.3103C11.0344 18.1503 10.8194 18.8003 10.3894 19.2603C9.95936 19.7203 9.33936 19.9503 8.52936 19.9503ZM8.52936 18.4503C9.09936 18.4503 9.38436 18.1053 9.38436 17.4153V11.6853C9.38436 10.9953 9.09936 10.6503 8.52936 10.6503C7.95936 10.6503 7.67436 10.9953 7.67436 11.6853V17.4153C7.67436 18.1053 7.95936 18.4503 8.52936 18.4503ZM14.4902 19.9503C13.6902 19.9503 13.0802 19.7253 12.6602 19.2753C12.2402 18.8153 12.0302 18.1603 12.0302 17.3103V11.7903C12.0302 10.9403 12.2402 10.2903 12.6602 9.84029C13.0802 9.38029 13.6902 9.15029 14.4902 9.15029C15.2902 9.15029 15.9002 9.38029 16.3202 9.84029C16.7402 10.2903 16.9502 10.9403 16.9502 11.7903V12.6903H15.3902V11.6853C15.3902 10.9953 15.1052 10.6503 14.5352 10.6503C13.9652 10.6503 13.6802 10.9953 13.6802 11.6853V17.4303C13.6802 18.1103 13.9652 18.4503 14.5352 18.4503C15.1052 18.4503 15.3902 18.1103 15.3902 17.4303V15.3753H14.5652V13.8753H16.9502V17.3103C16.9502 18.1603 16.7402 18.8153 16.3202 19.2753C15.9002 19.7253 15.2902 19.9503 14.4902 19.9503ZM18.0096 9.30029H19.6596V19.8003H18.0096V9.30029ZM20.8953 9.30029H22.9653L24.5703 15.5853H24.6003V9.30029H26.0703V19.8003H24.3753L22.3953 12.1353H22.3653V19.8003H20.8953V9.30029Z" fill="#11EFE3"/>
<circle cx="25.0947" cy="6.464" r="5.73682" fill="#9966FF" style="mix-blend-mode:multiply"/>
<rect x="26.6878" y="2.57556" width="1.66648" height="7.77706" rx="0.3" fill="white"/>
<rect x="23.077" y="6.13989" width="1.66648" height="3.04116" rx="0.3" transform="rotate(-90 23.077 6.13989)" fill="white"/>
<rect x="21.587" y="8.45471" width="1.66648" height="4.53108" rx="0.3" transform="rotate(-90 21.587 8.45471)" fill="white"/>
</svg>
