<svg width="31" height="30" viewBox="0 0 31 30" fill="none" xmlns="http://www.w3.org/2000/svg">
<path d="M0.431702 12.2403L24.4308 5.41943L17.4838 29.5449L14.1997 23.8609L6.87362 22.9767L6.11575 16.0296L0.431702 12.2403Z" fill="#11EFE3"/>
<path d="M24.4308 5.41943L0.431702 12.2403L6.11575 16.0296M24.4308 5.41943L17.4838 29.5449L14.1997 23.8609M24.4308 5.41943L6.11575 16.0296M24.4308 5.41943L14.1997 23.8609M14.1997 23.8609L6.87362 22.9767M6.87362 22.9767L6.11575 16.0296M6.87362 22.9767L13.6944 16.0296" stroke="white" stroke-width="0.5" stroke-linecap="round" stroke-linejoin="round"/>
<path d="M30.1887 6.30292C30.1887 9.73181 27.409 12.5115 23.9801 12.5115C20.5512 12.5115 17.7715 9.73181 17.7715 6.30292C17.7715 2.87403 20.5512 0.0943604 23.9801 0.0943604C27.409 0.0943604 30.1887 2.87403 30.1887 6.30292Z" fill="#9966FF" style="mix-blend-mode:multiply"/>
<path d="M20.7248 2.08523L27.5773 8.93768L26.7045 9.81044L19.8521 2.95798C19.6111 2.71698 19.6111 2.32623 19.8521 2.08523C20.0931 1.84422 20.4838 1.84422 20.7248 2.08523Z" fill="white" style="mix-blend-mode:multiply"/>
<path d="M20.7248 2.08523L27.5773 8.93768L26.7045 9.81044L19.8521 2.95798C19.6111 2.71698 19.6111 2.32623 19.8521 2.08523C20.0931 1.84422 20.4838 1.84422 20.7248 2.08523Z" stroke="white" stroke-width="0.3"/>
<path d="M20.6378 3.75574L21.5097 2.88387" stroke="white" stroke-width="0.3" stroke-linecap="round" stroke-linejoin="round"/>
<path d="M27.6542 9.01465L26.7573 9.91151L28.2745 10.4844L27.6542 9.01465Z" fill="white" style="mix-blend-mode:multiply"/>
<path d="M27.6542 9.01465L26.7573 9.91151L28.2745 10.4844L27.6542 9.01465Z" stroke="white" stroke-width="0.3" stroke-linecap="round" stroke-linejoin="round"/>
<path d="M20.2454 3.3739L21.1182 2.50114" stroke="white" stroke-width="0.3" stroke-linecap="round" stroke-linejoin="round"/>
<path d="M27.1669 9.39386L22.0948 4.32178" stroke="white" stroke-width="0.3" stroke-linecap="round" stroke-linejoin="round"/>
<path d="M21.0739 3.31238L21.4629 3.70138" stroke="white" stroke-width="0.3" stroke-linecap="round" stroke-linejoin="round"/>
</svg>
