<svg width="31" height="30" viewBox="0 0 31 30" fill="none" xmlns="http://www.w3.org/2000/svg">
<path fill-rule="evenodd" clip-rule="evenodd" d="M0.874932 21.2539C1.01162 17.1199 4.47365 13.8795 8.60759 14.0162L14.8029 14.2211L15.0078 8.02571C15.1445 3.89177 18.6065 0.651352 22.7405 0.78804C26.8744 0.924728 30.1148 4.38676 29.9781 8.5207C29.8414 12.6546 26.3794 15.8951 22.2455 15.7584L16.0501 15.5535L15.9989 17.1024L15.9477 18.6512L15.8453 21.7489C15.7086 25.8828 12.2465 29.1232 8.1126 28.9865C3.97866 28.8499 0.738244 25.3878 0.874932 21.2539ZM14.7603 15.5109L8.56494 15.306C5.14335 15.1929 2.27788 17.8749 2.16474 21.2965C2.05161 24.7181 4.73365 27.5836 8.15525 27.6967C11.5768 27.8099 14.4423 25.1278 14.5555 21.7062L14.6579 18.6086L14.7091 17.0597L14.7603 15.5109ZM16.0928 14.2637L22.2881 14.4686C25.7097 14.5817 28.5752 11.8997 28.6883 8.47805C28.8014 5.05645 26.1194 2.19099 22.6978 2.07785C19.2762 1.96472 16.4107 4.64676 16.2976 8.06836L16.0928 14.2637Z" fill="#11EFE3" stroke="url(#paint0_linear_235_497)"/>
<defs>
<linearGradient id="paint0_linear_235_497" x1="10.3087" y1="9.41947" x2="20.5443" y2="20.3551" gradientUnits="userSpaceOnUse">
<stop stop-color="#11EFE3"/>
<stop offset="1" stop-color="#9966FF"/>
</linearGradient>
</defs>
</svg>
