<svg width="31" height="26" viewBox="0 0 31 26" fill="none" xmlns="http://www.w3.org/2000/svg">
<circle cx="9.53817" cy="6.97762" r="6.22054" fill="#11EFE3"/>
<path d="M18.8712 21.1079C18.8712 24.5434 14.6937 25.7733 9.5404 25.7733C4.38714 25.7733 0.209595 24.5434 0.209595 21.1079C0.209595 17.6724 4.4677 14.8873 9.62096 14.8873C14.7742 14.8873 18.8712 17.6724 18.8712 21.1079Z" fill="#11EFE3"/>
<circle cx="20.7743" cy="6.97762" r="6.22054" fill="#9966FF" style="mix-blend-mode:multiply"/>
<path d="M30.1073 21.1079C30.1073 24.5434 25.9297 25.7733 20.7765 25.7733C15.6232 25.7733 11.4457 24.5434 11.4457 21.1079C11.4457 17.6724 15.7038 14.8873 20.857 14.8873C26.0103 14.8873 30.1073 17.6724 30.1073 21.1079Z" fill="#9966FF" style="mix-blend-mode:multiply"/>
</svg>
