<svg width="30" height="29" viewBox="0 0 30 29" fill="none" xmlns="http://www.w3.org/2000/svg">
<rect x="13.2405" y="9.15564" width="4.17342" height="19.4763" rx="0.3" fill="#11EFE3"/>
<rect x="4.19751" y="18.0822" width="4.17342" height="7.61606" rx="0.3" transform="rotate(-90 4.19751 18.0822)" fill="#11EFE3"/>
<rect x="0.466431" y="23.879" width="4.17342" height="11.3473" rx="0.3" transform="rotate(-90 0.466431 23.879)" fill="#11EFE3"/>
<path d="M14.0348 3.98757L15.0027 5.49765C15.0369 5.55105 15.0438 5.61751 15.0212 5.67678L14.3832 7.35147C14.3609 7.40979 14.3128 7.45439 14.2529 7.47207L12.5409 7.9779C12.4559 8.00301 12.3976 8.08107 12.3976 8.1697V10.3463C12.3976 10.4381 12.46 10.5181 12.5491 10.5403L14.2467 10.9647C14.3101 10.9806 14.3618 11.0265 14.3851 11.0876L15.0212 12.7575C15.0438 12.8168 15.0369 12.8832 15.0027 12.9366L14.0369 14.4432C13.9857 14.5231 13.9977 14.628 14.0656 14.6943L15.6524 16.2423C15.7191 16.3074 15.8218 16.3178 15.9002 16.2674L17.5399 15.2133C17.5951 15.1778 17.6641 15.1716 17.7247 15.1967L19.3449 15.8685C19.4075 15.8945 19.4527 15.9505 19.465 16.0172L19.8142 17.9183C19.8316 18.0132 19.9144 18.0821 20.0109 18.0821H22.4225C22.5205 18.0821 22.6041 18.0111 22.6198 17.9144L22.9288 16.0222C22.9401 15.9527 22.9872 15.8943 23.0526 15.8685L24.7506 15.1972C24.8144 15.1719 24.8866 15.1812 24.942 15.2216L26.3483 16.2478C26.4307 16.3079 26.5452 16.2964 26.6139 16.2211L28.2586 14.4198C28.3161 14.3568 28.3273 14.2642 28.2865 14.1892L27.6034 12.937C27.5741 12.8832 27.571 12.8188 27.5952 12.7624L28.3178 11.0763C28.3412 11.0216 28.3877 10.9803 28.4447 10.9633L29.8518 10.545C29.9366 10.5198 29.9948 10.4418 29.9948 10.3533V7.91045C29.9948 7.81867 29.9324 7.73868 29.8433 7.71642L28.1415 7.29096C28.0804 7.27569 28.0301 7.23257 28.0057 7.17455L27.371 5.66733C27.3483 5.61352 27.3503 5.5525 27.3764 5.50027L28.2839 3.68505C28.3254 3.60203 28.3044 3.50138 28.2331 3.44196L26.6108 2.09012C26.5413 2.03225 26.4417 2.02816 26.3678 2.08013L24.9413 3.08257C24.8862 3.12127 24.8154 3.12967 24.7528 3.10492L23.0518 2.43245C22.9868 2.40674 22.9399 2.34894 22.9282 2.28001L22.6208 0.474179C22.6044 0.378055 22.5211 0.307739 22.4236 0.307739H20.0096C19.9137 0.307739 19.8312 0.375884 19.8132 0.470125L19.4656 2.28519C19.453 2.35126 19.4079 2.40655 19.3458 2.43232L17.7227 3.1053C17.6632 3.12996 17.5956 3.12449 17.5408 3.09061L15.9027 2.07647C15.823 2.02714 15.7198 2.03975 15.6543 2.10681L14.06 3.73994C13.995 3.80654 13.9845 3.9092 14.0348 3.98757Z" fill="#9966FF" style="mix-blend-mode:multiply"/>
<circle cx="21.1962" cy="9.19483" r="4.59986" fill="white"/>
</svg>
