<svg width="20" height="30" viewBox="0 0 20 30" fill="none" xmlns="http://www.w3.org/2000/svg">
<path d="M0.472046 15.2029L2.24185 4.46606H9.91097L7.43325 11.6633H14.5125L2.24185 28.7714L5.89942 15.2029H0.472046Z" fill="#11EFE3" stroke="#11EFE3" stroke-width="0.5" stroke-linejoin="round"/>
<path d="M6.28745 3.14946L7.08962 4.40096C7.12385 4.45436 7.13072 4.52082 7.10814 4.58009L6.57619 5.97636C6.55398 6.03468 6.50581 6.07928 6.44597 6.09696L5.02565 6.5166C4.94066 6.54171 4.88232 6.61977 4.88232 6.70841V8.51376C4.88232 8.60553 4.94478 8.68553 5.03382 8.70779L6.4397 9.05926C6.50313 9.07512 6.55481 9.12098 6.57809 9.18209L7.10814 10.5736C7.13072 10.6328 7.12385 10.6993 7.08962 10.7527L6.28963 12.0007C6.23841 12.0806 6.25041 12.1855 6.31835 12.2518L7.63328 13.5346C7.69996 13.5997 7.80273 13.6101 7.88109 13.5597L9.24237 12.6846C9.29753 12.6491 9.36656 12.643 9.42713 12.6681L10.7755 13.2271C10.8381 13.2531 10.8834 13.3091 10.8956 13.3758L11.1851 14.952C11.2026 15.047 11.2853 15.1159 11.3818 15.1159H13.3824C13.4804 15.1159 13.564 15.0449 13.5797 14.9481L13.8356 13.3808C13.847 13.3113 13.894 13.2529 13.9595 13.2271L15.3724 12.6685C15.4362 12.6433 15.5084 12.6525 15.5638 12.6929L16.7248 13.5401C16.8072 13.6002 16.9216 13.5887 16.9904 13.5134L18.3566 12.0171C18.4142 11.9541 18.4254 11.8614 18.3845 11.7865L17.8208 10.7531C17.7914 10.6992 17.7884 10.6349 17.8125 10.5785L18.4159 9.17077C18.4393 9.11615 18.4857 9.07477 18.5427 9.05784L19.7045 8.71243C19.7894 8.68721 19.8476 8.60923 19.8476 8.52072V6.48893C19.8476 6.39716 19.7851 6.31716 19.6961 6.2949L18.2859 5.94237C18.2249 5.92711 18.1746 5.88398 18.1501 5.82596L17.6215 4.57064C17.5988 4.51683 17.6008 4.45581 17.6269 4.40358L18.382 2.89336C18.4235 2.81034 18.4024 2.70969 18.3311 2.65027L16.9873 1.53046C16.9178 1.47259 16.8182 1.4685 16.7442 1.52047L15.5631 2.35052C15.508 2.38923 15.4372 2.39763 15.3746 2.37288L13.9587 1.81311C13.8936 1.7874 13.8468 1.7296 13.835 1.66068L13.5807 0.16644C13.5643 0.0703155 13.481 0 13.3835 0H11.3806C11.2846 0 11.2022 0.068145 11.1841 0.162386L10.8962 1.66585C10.8836 1.73193 10.8385 1.78721 10.7764 1.81298L9.42513 2.37326C9.36567 2.39792 9.29798 2.39245 9.24326 2.35856L7.88356 1.51681C7.80388 1.46748 7.70064 1.48009 7.63518 1.54715L6.31272 2.90183C6.2477 2.96844 6.23722 3.0711 6.28745 3.14946Z" fill="#9966FF" style="mix-blend-mode:multiply"/>
<circle cx="12.3649" cy="7.55798" r="3.91186" fill="white"/>
</svg>
