<svg width="31" height="26" viewBox="0 0 31 26" fill="none" xmlns="http://www.w3.org/2000/svg">
<path d="M0.0287476 5.37146C0.0287476 4.81917 0.476463 4.37146 1.02875 4.37146H15.7191C16.2714 4.37146 16.7191 4.81918 16.7191 5.37146V22.8436C16.7191 23.3958 16.2714 23.8436 15.7191 23.8436H1.02875C0.476462 23.8436 0.0287476 23.3958 0.0287476 22.8436V5.37146Z" fill="#11EFE3"/>
<path d="M3.66117 12.8165L5.69318 10.3719C5.80827 10.2334 5.78932 10.0279 5.65084 9.9128C5.51245 9.79775 5.30687 9.8167 5.19177 9.95513L3.44998 12.0506L3.06927 11.4322C2.97491 11.2789 2.77415 11.231 2.62076 11.3255C2.46746 11.4199 2.41969 11.6207 2.51406 11.7739L3.13282 12.779C3.24982 12.9689 3.51869 12.9879 3.66117 12.8165Z" fill="white"/>
<path d="M2.46564 15.4241L3.11964 16.4846L5.22297 14.01" stroke="white" stroke-width="0.5" stroke-linecap="round" stroke-linejoin="round"/>
<path d="M2.46564 19.5967L3.11964 20.6572L5.22297 18.1826" stroke="white" stroke-width="0.5" stroke-linecap="round" stroke-linejoin="round"/>
<rect x="6.93048" y="10.7037" width="8.34518" height="1.39086" rx="0.5" fill="white"/>
<rect x="6.93048" y="14.8213" width="8.34518" height="1.39086" rx="0.5" fill="white"/>
<rect x="6.55756" y="18.9399" width="8.34518" height="1.39086" rx="0.5" fill="white"/>
<rect x="3.40353" y="3.31558" width="1.82297" height="3.48718" rx="0.911483" fill="white" stroke="#11EFE3" stroke-width="0.2"/>
<rect x="11.7932" y="3.31558" width="1.82297" height="3.48718" rx="0.911483" fill="white" stroke="#11EFE3" stroke-width="0.2"/>
<rect x="7.65865" y="3.31558" width="1.82297" height="3.48718" rx="0.911483" fill="white" stroke="#11EFE3" stroke-width="0.2"/>
<circle cx="13.8429" cy="7.72404" r="5.72697" transform="rotate(-10.8219 13.8429 7.72404)" stroke="#9966FF" style="mix-blend-mode:multiply"/>
<mask id="path-12-inside-1_238_107" fill="white">
<path d="M11.5251 4.61172C11.3515 4.37864 11.3984 4.04587 11.6505 3.90128C12.2496 3.55769 12.9233 3.35843 13.6179 3.3229C14.4884 3.27837 15.3525 3.49296 16.101 3.93953C16.8494 4.38609 17.4487 5.04459 17.8229 5.83173C18.1216 6.45985 18.2662 7.14738 18.2484 7.83774C18.2409 8.12826 17.9704 8.32764 17.6828 8.28558V8.28558C17.3952 8.24352 17.2006 7.97551 17.1972 7.68491C17.1916 7.20189 17.0817 6.72361 16.8725 6.28363C16.5876 5.68447 16.1315 5.18324 15.5617 4.84332C14.992 4.5034 14.3343 4.34006 13.6717 4.37395C13.1851 4.39884 12.712 4.52927 12.2843 4.75373C12.027 4.88878 11.6987 4.84479 11.5251 4.61172V4.61172Z"/>
</mask>
<path d="M11.5251 4.61172C11.3515 4.37864 11.3984 4.04587 11.6505 3.90128C12.2496 3.55769 12.9233 3.35843 13.6179 3.3229C14.4884 3.27837 15.3525 3.49296 16.101 3.93953C16.8494 4.38609 17.4487 5.04459 17.8229 5.83173C18.1216 6.45985 18.2662 7.14738 18.2484 7.83774C18.2409 8.12826 17.9704 8.32764 17.6828 8.28558V8.28558C17.3952 8.24352 17.2006 7.97551 17.1972 7.68491C17.1916 7.20189 17.0817 6.72361 16.8725 6.28363C16.5876 5.68447 16.1315 5.18324 15.5617 4.84332C14.992 4.5034 14.3343 4.34006 13.6717 4.37395C13.1851 4.39884 12.712 4.52927 12.2843 4.75373C12.027 4.88878 11.6987 4.84479 11.5251 4.61172V4.61172Z" stroke="#9966FF" stroke-width="2" style="mix-blend-mode:multiply" mask="url(#path-12-inside-1_238_107)"/>
<mask id="path-13-inside-2_238_107" fill="white">
<path d="M17.6155 8.63393C17.898 8.70207 18.0748 8.98791 17.9735 9.2603C17.7144 9.95672 17.2833 10.5766 16.7206 11.0618C16.5004 11.2515 16.171 11.1853 16.0088 10.9441V10.9441C15.8466 10.703 15.9141 10.3787 16.127 10.1808C16.479 9.85356 16.7567 9.45428 16.941 9.01036C17.0525 8.74196 17.333 8.56579 17.6155 8.63393V8.63393Z"/>
</mask>
<path d="M17.6155 8.63393C17.898 8.70207 18.0748 8.98791 17.9735 9.2603C17.7144 9.95672 17.2833 10.5766 16.7206 11.0618C16.5004 11.2515 16.171 11.1853 16.0088 10.9441V10.9441C15.8466 10.703 15.9141 10.3787 16.127 10.1808C16.479 9.85356 16.7567 9.45428 16.941 9.01036C17.0525 8.74196 17.333 8.56579 17.6155 8.63393V8.63393Z" stroke="#9966FF" stroke-width="2" style="mix-blend-mode:multiply" mask="url(#path-13-inside-2_238_107)"/>
<path d="M21.4753 12.9938L19.9004 14.7001L18.5072 16.1524L27.0458 23.9794L29.8437 21.0628L21.4753 12.9938Z" fill="#9966FF"/>
<path d="M17.4378 12.1951L19.9004 14.7001M19.9004 14.7001L21.4753 12.9938L29.8437 21.0628L27.0458 23.9794L18.5072 16.1524L19.9004 14.7001Z" stroke="#9966FF" stroke-linecap="round" stroke-linejoin="round"/>
</svg>
