<svg width="25" height="31" viewBox="0 0 25 31" fill="none" xmlns="http://www.w3.org/2000/svg">
<path d="M19.9369 4.38148V29.7942C19.9369 29.9323 19.825 30.0442 19.6869 30.0442H1.57935C1.44127 30.0442 1.32935 29.9323 1.32935 29.7942V11.9319C1.32935 11.6011 1.46048 11.2838 1.69401 11.0495L8.22297 4.49904C8.4575 4.26373 8.77607 4.13147 9.1083 4.13147L19.6869 4.13148C19.825 4.13148 19.9369 4.24341 19.9369 4.38148Z" fill="#11EFE3" stroke="#11EFE3" stroke-width="1.5"/>
<rect x="4.66907" y="15.2979" width="12.6219" height="1.54748" rx="0.773742" fill="white"/>
<rect x="4.66907" y="19.314" width="12.6219" height="1.54748" rx="0.773742" fill="white"/>
<rect x="4.66907" y="23.3297" width="9.52379" height="1.54748" rx="0.773742" fill="white"/>
<path d="M8.23231 11.3459L2.32114 11.0125L8.05043 5.37412L8.23231 11.3459Z" fill="white"/>
<path d="M8.65403 4.0918V10.6744C8.65403 11.2267 8.20632 11.6744 7.65403 11.6744L1.24573 11.6744" stroke="#11EFE3" stroke-width="1.5" stroke-linecap="round" stroke-linejoin="round"/>
<circle cx="19.3228" cy="5.80615" r="5.12988" fill="#9966FF" style="mix-blend-mode:multiply"/>
<circle cx="19.3025" cy="5.78584" r="1.7032" fill="white"/>
<path d="M21.8579 9.65474C21.8579 10.5954 20.7141 10.9321 19.3031 10.9321C17.8921 10.9321 16.7483 10.5954 16.7483 9.65474C16.7483 8.71409 17.9142 7.95154 19.3252 7.95154C20.7361 7.95154 21.8579 8.71409 21.8579 9.65474Z" fill="white"/>
</svg>
