<svg width="32" height="27" viewBox="0 0 32 27" fill="none" xmlns="http://www.w3.org/2000/svg">
<circle cx="10.4528" cy="24.6875" r="1.81833" stroke="#11EFE3"/>
<circle cx="21.2655" cy="24.6875" r="1.81833" stroke="#11EFE3"/>
<path d="M24.052 20.5697H10.4493C9.8167 20.5697 9.19352 20.4164 8.63315 20.1229L8.30224 19.9495C7.91281 19.7455 7.58367 19.443 7.34765 19.0721V19.0721C7.19375 18.8303 7.08234 18.5639 7.01824 18.2845L3.89518 4.6712C3.84087 4.43445 3.72781 4.21519 3.56642 4.03365V4.03365C3.29194 3.72488 2.89853 3.54822 2.4854 3.54822H0.763733" stroke="#11EFE3" stroke-linecap="round" stroke-linejoin="round"/>
<path d="M4.56354 7.21387L25.5248 7.21392C26.1673 7.21393 26.6431 7.81124 26.4994 8.43753L24.8704 15.5383C24.7662 15.9926 24.3619 16.3147 23.8957 16.3147H6.49073" stroke="#11EFE3" stroke-linecap="round" stroke-linejoin="round"/>
<line x1="15.5834" y1="7.16976" x2="15.4523" y2="16.3218" stroke="#11EFE3"/>
<line x1="18.8497" y1="7.18356" x2="18.4657" y2="16.3356" stroke="#11EFE3"/>
<line x1="22.9615" y1="7.93415" x2="22.068" y2="16.3673" stroke="#11EFE3"/>
<line x1="12.0425" y1="7.47622" x2="12.6321" y2="16.5771" stroke="#11EFE3"/>
<line x1="8.63354" y1="7.47622" x2="9.22314" y2="16.5771" stroke="#11EFE3"/>
<line x1="5.35321" y1="11.559" x2="25.9905" y2="11.559" stroke="#11EFE3"/>
<circle cx="23.9042" cy="6.81772" r="6.71457" fill="#9966FF" style="mix-blend-mode:multiply"/>
<path d="M21.0266 8.97737C20.76 8.97737 20.5583 8.90237 20.4216 8.75237C20.285 8.59903 20.2166 8.3807 20.2166 8.09737V7.89737H20.7366V8.13737C20.7366 8.36403 20.8316 8.47737 21.0216 8.47737C21.115 8.47737 21.185 8.4507 21.2316 8.39737C21.2816 8.3407 21.3066 8.2507 21.3066 8.12737C21.3066 7.9807 21.2733 7.85237 21.2066 7.74237C21.14 7.62903 21.0166 7.49403 20.8366 7.33737C20.61 7.13737 20.4516 6.95737 20.3616 6.79737C20.2716 6.63403 20.2266 6.4507 20.2266 6.24737C20.2266 5.9707 20.2966 5.75737 20.4366 5.60737C20.5766 5.45403 20.78 5.37737 21.0466 5.37737C21.31 5.37737 21.5083 5.45403 21.6416 5.60737C21.7783 5.75737 21.8466 5.97403 21.8466 6.25737V6.40237H21.3266V6.22237C21.3266 6.10237 21.3033 6.0157 21.2566 5.96237C21.21 5.9057 21.1416 5.87737 21.0516 5.87737C20.8683 5.87737 20.7766 5.98903 20.7766 6.21237C20.7766 6.33903 20.81 6.45737 20.8766 6.56737C20.9466 6.67737 21.0716 6.8107 21.2516 6.96737C21.4816 7.16737 21.64 7.34903 21.7266 7.51237C21.8133 7.6757 21.8566 7.86737 21.8566 8.08737C21.8566 8.37403 21.785 8.59403 21.6416 8.74737C21.5016 8.9007 21.2966 8.97737 21.0266 8.97737ZM22.172 5.42737H22.722V6.85237H23.312V5.42737H23.862V8.92737H23.312V7.35237H22.722V8.92737H22.172V5.42737ZM25.0666 8.97737C24.7966 8.97737 24.5899 8.9007 24.4466 8.74737C24.3033 8.59403 24.2316 8.37737 24.2316 8.09737V6.25737C24.2316 5.97737 24.3033 5.7607 24.4466 5.60737C24.5899 5.45403 24.7966 5.37737 25.0666 5.37737C25.3366 5.37737 25.5433 5.45403 25.6866 5.60737C25.8299 5.7607 25.9016 5.97737 25.9016 6.25737V8.09737C25.9016 8.37737 25.8299 8.59403 25.6866 8.74737C25.5433 8.9007 25.3366 8.97737 25.0666 8.97737ZM25.0666 8.47737C25.2566 8.47737 25.3516 8.36237 25.3516 8.13237V6.22237C25.3516 5.99237 25.2566 5.87737 25.0666 5.87737C24.8766 5.87737 24.7816 5.99237 24.7816 6.22237V8.13237C24.7816 8.36237 24.8766 8.47737 25.0666 8.47737ZM26.2735 5.42737H27.0835C27.3569 5.42737 27.5619 5.5007 27.6985 5.64737C27.8352 5.79403 27.9035 6.00903 27.9035 6.29237V6.63737C27.9035 6.9207 27.8352 7.1357 27.6985 7.28237C27.5619 7.42903 27.3569 7.50237 27.0835 7.50237H26.8235V8.92737H26.2735V5.42737ZM27.0835 7.00237C27.1735 7.00237 27.2402 6.97737 27.2835 6.92737C27.3302 6.87737 27.3535 6.79237 27.3535 6.67237V6.25737C27.3535 6.13737 27.3302 6.05237 27.2835 6.00237C27.2402 5.95237 27.1735 5.92737 27.0835 5.92737H26.8235V7.00237H27.0835Z" fill="white"/>
</svg>
