<svg width="35" height="36" viewBox="0 0 35 36" fill="none" xmlns="http://www.w3.org/2000/svg">
<circle cx="14.42" cy="21.4633" r="14.1328" fill="#11EFE3"/>
<path d="M26.5651 21.4632C26.5651 28.0835 21.1331 33.4602 14.42 33.4602C7.70683 33.4602 2.27484 28.0835 2.27484 21.4632C2.27484 14.843 7.70683 9.46619 14.42 9.46619C21.1331 9.46619 26.5651 14.843 26.5651 21.4632Z" stroke="white"/>
<path d="M8.46234 23.9755C8.03567 23.9755 7.71301 23.8555 7.49434 23.6155C7.27567 23.3702 7.16634 23.0208 7.16634 22.5675V22.2475H7.99834V22.6315C7.99834 22.9942 8.15034 23.1755 8.45434 23.1755C8.60367 23.1755 8.71567 23.1328 8.79034 23.0475C8.87034 22.9568 8.91034 22.8128 8.91034 22.6155C8.91034 22.3808 8.85701 22.1755 8.75034 21.9995C8.64367 21.8182 8.44634 21.6022 8.15834 21.3515C7.79567 21.0315 7.54234 20.7435 7.39834 20.4875C7.25434 20.2262 7.18234 19.9328 7.18234 19.6075C7.18234 19.1648 7.29434 18.8235 7.51834 18.5835C7.74234 18.3382 8.06767 18.2155 8.49434 18.2155C8.91567 18.2155 9.23301 18.3382 9.44634 18.5835C9.66501 18.8235 9.77434 19.1702 9.77434 19.6235V19.8555H8.94234V19.5675C8.94234 19.3755 8.90501 19.2368 8.83034 19.1515C8.75567 19.0608 8.64634 19.0155 8.50234 19.0155C8.20901 19.0155 8.06234 19.1942 8.06234 19.5515C8.06234 19.7542 8.11567 19.9435 8.22234 20.1195C8.33434 20.2955 8.53434 20.5088 8.82234 20.7595C9.19034 21.0795 9.44367 21.3702 9.58234 21.6315C9.72101 21.8928 9.79034 22.1995 9.79034 22.5515C9.79034 23.0102 9.67567 23.3622 9.44634 23.6075C9.22234 23.8528 8.89434 23.9755 8.46234 23.9755ZM10.9829 19.0955H10.0629V18.2955H12.7829V19.0955H11.8629V23.8955H10.9829V19.0955ZM13.5218 18.2955H14.7138L15.6258 23.8955H14.7458L14.5858 22.7835V22.7995H13.5858L13.4258 23.8955H12.6098L13.5218 18.2955ZM14.4818 22.0395L14.0898 19.2715H14.0738L13.6898 22.0395H14.4818ZM16.0527 18.2955H17.3567C17.81 18.2955 18.1407 18.4022 18.3487 18.6155C18.5567 18.8235 18.6607 19.1462 18.6607 19.5835V19.9275C18.6607 20.5088 18.4687 20.8768 18.0847 21.0315V21.0475C18.298 21.1115 18.4474 21.2422 18.5327 21.4395C18.6234 21.6368 18.6687 21.9008 18.6687 22.2315V23.2155C18.6687 23.3755 18.674 23.5062 18.6847 23.6075C18.6954 23.7035 18.722 23.7995 18.7647 23.8955H17.8687C17.8367 23.8048 17.8154 23.7195 17.8047 23.6395C17.794 23.5595 17.7887 23.4155 17.7887 23.2075V22.1835C17.7887 21.9275 17.746 21.7488 17.6607 21.6475C17.5807 21.5462 17.4394 21.4955 17.2367 21.4955H16.9327V23.8955H16.0527V18.2955ZM17.2527 20.6955C17.4287 20.6955 17.5594 20.6502 17.6447 20.5595C17.7354 20.4688 17.7807 20.3168 17.7807 20.1035V19.6715C17.7807 19.4688 17.7434 19.3222 17.6687 19.2315C17.5994 19.1408 17.4874 19.0955 17.3327 19.0955H16.9327V20.6955H17.2527ZM19.9517 19.0955H19.0317V18.2955H21.7517V19.0955H20.8317V23.8955H19.9517V19.0955Z" fill="white"/>
<path d="M19.9233 11.64L18.3942 10.6988C17.8753 10.3794 17.7602 9.67409 18.1508 9.20633L18.2921 9.03713C18.5041 8.78318 18.828 8.65053 19.1572 8.68281L22.1476 8.97594" stroke="#9966FF" stroke-width="0.3" style="mix-blend-mode:multiply"/>
<path d="M25.109 15.969L26.3079 17.3056C26.7148 17.7592 27.4294 17.7465 27.8199 17.2787L27.9612 17.1095C28.1732 16.8556 28.2459 16.5132 28.1554 16.195L27.3333 13.3049" stroke="#9966FF" stroke-width="0.3" style="mix-blend-mode:multiply"/>
<path d="M19.2683 13.5692L18.7803 14.1537C18.4263 14.5777 18.4831 15.2083 18.907 15.5623L21.3598 17.6101C21.7837 17.9641 22.4143 17.9074 22.7683 17.4834L23.2563 16.8989" stroke="#9966FF" stroke-width="0.3" style="mix-blend-mode:multiply"/>
<path d="M22.5047 8.20229L25.1734 6.16325C25.324 6.04812 25.4864 5.94779 25.6567 5.86439V5.86439C27.9023 4.76465 30.4011 6.84844 29.6982 9.24804V9.24804C29.6464 9.42487 29.5777 9.59632 29.4931 9.76002L27.7755 13.0834L24.5025 17.0036C24.1762 17.3944 23.6083 17.4776 23.1835 17.1969L21.0116 15.7615C20.9494 15.7204 20.892 15.6725 20.8405 15.6186L19.0405 13.7378C18.6885 13.3699 18.669 12.7963 18.9954 12.4055L22.5047 8.20229Z" fill="#9966FF" style="mix-blend-mode:multiply"/>
<circle cx="25.9383" cy="9.68677" r="1.75645" transform="rotate(39.8596 25.9383 9.68677)" fill="white"/>
<path d="M18.1977 16.6256L17.0686 17.9779" stroke="#9966FF" stroke-width="0.3" stroke-linecap="round" style="mix-blend-mode:multiply"/>
<path d="M19.3188 17.5616L17.2181 20.0777" stroke="#9966FF" stroke-width="0.3" stroke-linecap="round" style="mix-blend-mode:multiply"/>
<path d="M20.4656 18.519L19.2509 19.9739" stroke="#9966FF" stroke-width="0.3" stroke-linecap="round" style="mix-blend-mode:multiply"/>
</svg>
