<svg width="32" height="32" viewBox="0 0 32 32" fill="none" xmlns="http://www.w3.org/2000/svg">
<path fill-rule="evenodd" clip-rule="evenodd" d="M4.69975 11.6997C6.96608 9.43342 10.6405 9.43342 12.9069 11.6997L16.3033 15.0962L19.6997 11.6997C21.9661 9.43342 25.6405 9.43342 27.9069 11.6997C30.1732 13.9661 30.1732 17.6405 27.9069 19.9069C25.6405 22.1732 21.9661 22.1732 19.6997 19.9069L16.3033 16.5104L15.4542 17.3595L14.6051 18.2086L12.9069 19.9069C10.6405 22.1732 6.96608 22.1732 4.69975 19.9069C2.43342 17.6405 2.43342 13.9661 4.69975 11.6997ZM15.5962 15.8033L12.1997 12.4069C10.3239 10.531 7.28266 10.531 5.40685 12.4069C3.53105 14.2827 3.53105 17.3239 5.40685 19.1997C7.28266 21.0756 10.3239 21.0756 12.1997 19.1997L13.898 17.5015L14.7471 16.6524L15.5962 15.8033ZM17.0104 15.8033L20.4069 19.1997C22.2827 21.0756 25.3239 21.0756 27.1997 19.1997C29.0756 17.3239 29.0756 14.2827 27.1997 12.4069C25.3239 10.531 22.2827 10.531 20.4069 12.4069L17.0104 15.8033Z" fill="#11EFE3"/>
<path d="M24.1791 13.0706C23.3705 14.0611 21.8529 14.049 21.0603 13.0456L18.2659 9.50808C18.1129 9.31441 18.1242 9.03807 18.2923 8.85744L19.1892 7.89419C19.397 7.67096 19.7546 7.68422 19.9453 7.92225L22.7088 11.3711L29.0533 3.45337C29.2445 3.21472 29.6032 3.20212 29.8107 3.42677L30.7053 4.39528C30.8744 4.57826 30.8829 4.85774 30.7254 5.05071L24.1791 13.0706Z" stroke="#9966FF" style="mix-blend-mode:multiply"/>
</svg>
