<svg width="960" height="960" viewBox="0 0 960 960" fill="none" xmlns="http://www.w3.org/2000/svg">
<g clip-path="url(#clip0_2_3721)">
<rect width="960" height="960" fill="black"/>
<path d="M83.504 272V180.48H125.744C152.112 180.48 170.416 197.376 170.416 226.432C170.416 255.616 153.008 272 124.592 272H83.504ZM110.256 249.856H122.416C134.704 249.856 143.28 241.92 143.28 226.432C143.28 211.328 135.216 202.624 122.416 202.624H110.256V249.856ZM209.751 273.792C188.375 273.792 174.039 259.2 174.039 239.232C174.039 219.52 188.247 204.544 208.855 204.544C219.095 204.544 226.903 207.872 232.919 213.376C240.855 220.672 244.567 232.32 244.311 245.248H197.719C199.127 252.8 203.223 257.408 210.519 257.408C214.743 257.408 217.815 255.744 219.607 252.544H243.031C241.623 258.432 237.015 264.192 230.615 268.288C224.599 272.128 218.071 273.792 209.751 273.792ZM209.367 220.8C202.711 220.8 198.999 225.28 197.719 232.448H220.247C219.223 225.152 215.127 220.8 209.367 220.8ZM265.004 272L242.604 206.72H267.692L275.116 231.808C277.036 238.464 279.34 247.552 279.34 247.552H279.596C279.596 247.552 282.028 238.464 283.948 231.808L291.372 206.72H315.692L293.292 272H265.004ZM349.626 273.792C328.25 273.792 313.914 259.2 313.914 239.232C313.914 219.52 328.122 204.544 348.73 204.544C358.97 204.544 366.778 207.872 372.794 213.376C380.73 220.672 384.442 232.32 384.186 245.248H337.594C339.002 252.8 343.098 257.408 350.394 257.408C354.618 257.408 357.69 255.744 359.482 252.544H382.906C381.498 258.432 376.89 264.192 370.49 268.288C364.474 272.128 357.946 273.792 349.626 273.792ZM349.242 220.8C342.586 220.8 338.874 225.28 337.594 232.448H360.122C359.098 225.152 355.002 220.8 349.242 220.8ZM390.227 272V180.48H415.059V272H390.227ZM456.879 274.048C435.119 274.048 421.039 259.328 421.039 239.488C421.039 219.648 435.119 204.8 456.879 204.8C478.639 204.8 492.463 219.648 492.463 239.488C492.463 259.328 478.639 274.048 456.879 274.048ZM456.623 257.92C464.047 257.92 467.887 250.496 467.887 239.488C467.887 228.48 464.047 221.056 456.623 221.056C449.199 221.056 445.615 228.48 445.615 239.488C445.615 250.496 449.199 257.92 456.623 257.92ZM498.477 293.632V206.72H521.517V214.4H521.901C526.637 208.256 533.293 204.672 542.253 204.672C559.789 204.672 569.901 220.288 569.901 239.232C569.901 260.608 558.637 274.176 541.229 274.176C533.421 274.176 527.405 271.232 523.053 265.856H522.669V293.632H498.477ZM534.061 256.384C541.229 256.384 545.325 250.24 545.325 240.256C545.325 230.272 541.229 224 534.061 224C526.637 224 521.773 230.912 521.773 240.256C521.773 249.728 526.637 256.384 534.061 256.384ZM575.977 272V206.72H599.017V216.448H599.401C604.009 208.896 610.281 204.672 620.137 204.672C628.841 204.672 635.369 208.896 638.697 216.064H639.081C644.713 207.36 652.009 204.672 660.457 204.672C676.457 204.672 683.369 215.936 683.369 230.912V272H659.177V235.392C659.177 228.736 657.001 224.384 650.857 224.384C644.841 224.384 641.769 229.76 641.769 236.8V272H617.577V235.392C617.577 228.736 615.401 224.384 609.257 224.384C603.241 224.384 600.169 229.76 600.169 236.8V272H575.977ZM724.626 273.792C703.25 273.792 688.914 259.2 688.914 239.232C688.914 219.52 703.122 204.544 723.73 204.544C733.97 204.544 741.778 207.872 747.794 213.376C755.73 220.672 759.442 232.32 759.186 245.248H712.594C714.002 252.8 718.098 257.408 725.394 257.408C729.618 257.408 732.69 255.744 734.482 252.544H757.906C756.498 258.432 751.89 264.192 745.49 268.288C739.474 272.128 732.946 273.792 724.626 273.792ZM724.242 220.8C717.586 220.8 713.874 225.28 712.594 232.448H735.122C734.098 225.152 730.002 220.8 724.242 220.8ZM788.267 206.72V215.68H788.651C793.899 208.512 800.555 204.672 809.643 204.672C824.747 204.672 832.555 214.784 832.555 229.76V272H808.363V235.648C808.363 228.864 805.547 224.384 799.275 224.384C793.131 224.384 789.419 229.76 789.419 236.8V272H765.227V206.72H788.267ZM836.021 221.312V206.72H844.469V185.6H868.149V206.72H880.565V221.312H868.149V247.808C868.149 254.336 872.757 254.464 880.309 253.952V271.744C876.597 272.64 872.757 273.28 868.405 273.28C852.533 273.28 844.469 268.8 844.469 253.184V221.312H836.021Z" fill="white"/>
<g opacity="0.5">
<rect x="-51.3159" y="465.079" width="144.842" height="144.842" rx="23.7474" fill="white"/>
<path d="M-19.5205 586.25L-27.6455 484.688H69.8545L61.7295 586.25L21.1045 598.438L-19.5205 586.25Z" fill="#1172B8"/>
<path d="M61.73 492.812H21.105V592.344L53.605 582.188L61.73 492.812Z" fill="#33AADD"/>
<path d="M35.3232 543.594H-5.30175L-7.33301 529.375L25.167 519.219H-7.33301L-9.36426 507.031H53.6045L51.5732 521.25L25.167 531.406H49.542L45.4795 570L21.1045 578.125L-3.2705 570L-5.30175 549.688H6.88574L8.91699 559.844L21.1045 563.906L33.292 559.844L35.3232 543.594Z" fill="white"/>
</g>
<g opacity="0.7" filter="url(#filter0_d_2_3721)">
<rect x="113.526" y="432.5" width="210" height="210" rx="32" fill="white" shape-rendering="crispEdges"/>
<g clip-path="url(#clip1_2_3721)">
<path d="M152.954 610.6L133.769 543.814L259.083 562.271L241.111 622.5L152.954 610.6Z" fill="url(#paint0_linear_2_3721)"/>
<path d="M190.597 452.743L235.769 465.614L287.012 452.5L303.526 564.943L166.069 543.814L190.597 452.743Z" fill="url(#paint1_linear_2_3721)"/>
<path d="M303.526 564.457L296.969 522.686L195.698 487.471L133.769 500.828L133.526 544.057L253.984 577.086L303.526 564.457Z" fill="url(#paint2_linear_2_3721)"/>
<path d="M166.069 485.043H270.983V589.957H166.069V485.043Z" fill="black"/>
<path d="M175.783 570.286H215.126V576.843H175.783V570.286Z" fill="white"/>
<path d="M175.783 498.643H192.54C206.14 498.643 215.611 508.114 215.611 520.257V520.5C215.611 532.643 206.14 542.357 192.54 542.357H175.783V498.643ZM185.254 507.386V533.614H192.297C200.068 533.614 205.411 528.271 205.411 520.5C205.411 512.729 200.068 507.386 192.297 507.386H185.254Z" fill="white"/>
<path d="M218.041 498.886H228.483L239.655 517.1L251.069 498.886H261.269V542.114H251.798V513.7L239.655 532.157H239.412L227.512 513.943V542.114H218.041V498.886Z" fill="white"/>
</g>
</g>
<g filter="url(#filter1_d_2_3721)">
<rect x="343.526" y="401" width="273" height="273" rx="41.6" fill="white" shape-rendering="crispEdges"/>
<g clip-path="url(#clip2_2_3721)">
<path d="M524.541 461.729L588.947 515.716L565.9 562.757L526.751 552.023H493.286L524.541 461.729Z" fill="url(#paint3_linear_2_3721)"/>
<path d="M459.505 496.773L446.876 562.757L445.614 585.489L414.358 599.064L369.526 603.8L383.102 460.781L463.925 427L513.808 459.834L459.505 496.773Z" fill="url(#paint4_linear_2_3721)"/>
<path d="M459.505 496.773L465.504 624.322L445.298 648L369.526 603.8L431.722 510.98L459.505 496.773Z" fill="url(#paint5_linear_2_3721)"/>
<path d="M542.854 487.301H466.135L534.014 427L542.854 487.301Z" fill="url(#paint6_linear_2_3721)"/>
<path d="M590.527 624.637L522.964 647.684L433.301 622.427L459.506 496.773L469.924 487.301L524.543 482.25L519.491 537.184L563.06 520.451L590.527 624.637Z" fill="url(#paint7_linear_2_3721)"/>
<path d="M411.832 469.306H548.22V605.694H411.832V469.306Z" fill="black"/>
<path d="M424.776 580.121H475.922V588.646H424.776V580.121Z" fill="white"/>
<path d="M424.459 487.302H447.191C460.767 487.302 468.975 495.194 468.975 506.876C468.975 519.82 458.872 527.082 446.244 527.082H436.772V543.814H424.459L424.459 487.302ZM446.559 515.716C452.874 515.716 456.347 511.612 456.347 506.876C456.347 501.193 452.558 498.352 446.244 498.352H436.772V515.716H446.559Z" fill="white"/>
<path d="M474.028 515.716C474.028 499.614 486.025 486.354 503.39 486.354C514.124 486.354 520.438 489.827 525.805 495.194L517.913 504.35C513.493 500.246 509.073 498.036 503.39 498.036C493.918 498.036 486.973 505.928 486.973 515.716C486.973 525.503 493.603 533.08 503.39 533.08C509.704 533.08 513.808 530.554 518.228 526.45L526.121 534.343C520.438 540.657 513.808 544.446 503.074 544.446C486.341 544.761 474.028 531.817 474.028 515.716Z" fill="white"/>
</g>
</g>
<g opacity="0.7" filter="url(#filter2_d_2_3721)">
<rect x="636.526" y="432.5" width="210" height="210" rx="32" fill="white" shape-rendering="crispEdges"/>
<g clip-path="url(#clip3_2_3721)">
<path d="M764.112 503.257L669.155 526.086L656.526 551.586L690.769 622.5L776.255 607.686L764.112 503.257Z" fill="url(#paint8_linear_2_3721)"/>
<path d="M816.326 529L749.298 486.5L656.526 506.171V551.586L808.555 581.943L816.326 529Z" fill="url(#paint9_linear_2_3721)"/>
<path d="M826.527 528.514L752.698 452.5L694.898 469.986L713.841 527.543L808.556 581.943L826.527 528.514Z" fill="url(#paint10_linear_2_3721)"/>
<path d="M813.17 500.1L806.613 452.5H781.113H752.698L694.898 469.986L713.841 527.543L813.17 500.1Z" fill="url(#paint11_linear_2_3721)"/>
<path d="M689.069 485.043H793.983V589.957H689.069V485.043Z" fill="black"/>
<path d="M698.783 570.286H738.126V576.843H698.783V570.286Z" fill="white"/>
<path d="M699.026 498.886H716.026C729.626 498.886 739.098 508.357 739.098 520.5V520.743C739.098 532.886 729.626 542.357 716.026 542.357H699.026V498.886ZM708.498 507.629V533.857H715.784C723.555 533.857 728.898 528.514 728.898 520.986V520.743C728.898 512.972 723.555 507.629 715.784 507.629H708.498Z" fill="white"/>
<path d="M743.226 498.886H760.712C771.155 498.886 777.469 505.2 777.469 514.186C777.469 524.143 769.697 529.486 759.983 529.486H752.697V542.357H743.226V498.886ZM759.983 520.743C764.84 520.743 767.512 517.829 767.512 514.186C767.512 509.814 764.597 507.386 759.74 507.386H752.455V520.743H759.983Z" fill="white"/>
</g>
</g>
<g opacity="0.5">
<rect x="866.526" y="465.079" width="144.842" height="144.842" rx="23.7474" fill="white"/>
<path d="M898.322 586.25L890.197 484.688H987.697L979.572 586.25L938.947 598.438L898.322 586.25Z" fill="#E44D26"/>
<path d="M979.571 492.812H938.946V592.344L971.446 582.188L979.571 492.812Z" fill="#F16529"/>
<path d="M912.542 543.594L908.479 505H971.448L969.417 517.188H920.667L922.698 531.406H967.386L963.323 570L938.948 578.125L914.573 570L912.542 549.687H924.729L926.761 559.844L938.948 563.906L951.136 559.844L953.167 543.594H912.542Z" fill="white"/>
</g>
<path d="M458.723 775.003L478.266 741.015C479.035 739.678 480.965 739.678 481.734 741.015L501.277 775.003C502.043 776.336 501.081 778 499.543 778H460.457C458.919 778 457.957 776.336 458.723 775.003Z" fill="white"/>
</g>
<defs>
<filter id="filter0_d_2_3721" x="63.5264" y="394.5" width="310" height="310" filterUnits="userSpaceOnUse" color-interpolation-filters="sRGB">
<feFlood flood-opacity="0" result="BackgroundImageFix"/>
<feColorMatrix in="SourceAlpha" type="matrix" values="0 0 0 0 0 0 0 0 0 0 0 0 0 0 0 0 0 0 127 0" result="hardAlpha"/>
<feOffset dy="12"/>
<feGaussianBlur stdDeviation="25"/>
<feComposite in2="hardAlpha" operator="out"/>
<feColorMatrix type="matrix" values="0 0 0 0 0 0 0 0 0 0 0 0 0 0 0 0 0 0 0.15 0"/>
<feBlend mode="normal" in2="BackgroundImageFix" result="effect1_dropShadow_2_3721"/>
<feBlend mode="normal" in="SourceGraphic" in2="effect1_dropShadow_2_3721" result="shape"/>
</filter>
<filter id="filter1_d_2_3721" x="243.526" y="301" width="473" height="473" filterUnits="userSpaceOnUse" color-interpolation-filters="sRGB">
<feFlood flood-opacity="0" result="BackgroundImageFix"/>
<feColorMatrix in="SourceAlpha" type="matrix" values="0 0 0 0 0 0 0 0 0 0 0 0 0 0 0 0 0 0 127 0" result="hardAlpha"/>
<feOffset/>
<feGaussianBlur stdDeviation="50"/>
<feComposite in2="hardAlpha" operator="out"/>
<feColorMatrix type="matrix" values="0 0 0 0 1 0 0 0 0 1 0 0 0 0 1 0 0 0 0.5 0"/>
<feBlend mode="normal" in2="BackgroundImageFix" result="effect1_dropShadow_2_3721"/>
<feBlend mode="normal" in="SourceGraphic" in2="effect1_dropShadow_2_3721" result="shape"/>
</filter>
<filter id="filter2_d_2_3721" x="586.526" y="394.5" width="310" height="310" filterUnits="userSpaceOnUse" color-interpolation-filters="sRGB">
<feFlood flood-opacity="0" result="BackgroundImageFix"/>
<feColorMatrix in="SourceAlpha" type="matrix" values="0 0 0 0 0 0 0 0 0 0 0 0 0 0 0 0 0 0 127 0" result="hardAlpha"/>
<feOffset dy="12"/>
<feGaussianBlur stdDeviation="25"/>
<feComposite in2="hardAlpha" operator="out"/>
<feColorMatrix type="matrix" values="0 0 0 0 0 0 0 0 0 0 0 0 0 0 0 0 0 0 0.15 0"/>
<feBlend mode="normal" in2="BackgroundImageFix" result="effect1_dropShadow_2_3721"/>
<feBlend mode="normal" in="SourceGraphic" in2="effect1_dropShadow_2_3721" result="shape"/>
</filter>
<linearGradient id="paint0_linear_2_3721" x1="183.256" y1="498.113" x2="212.367" y2="619.969" gradientUnits="userSpaceOnUse">
<stop stop-color="#7866FF"/>
<stop offset="0.023" stop-color="#7E64FE"/>
<stop offset="0.195" stop-color="#AA56F3"/>
<stop offset="0.349" stop-color="#C94CEC"/>
<stop offset="0.48" stop-color="#DC45E8"/>
<stop offset="0.57" stop-color="#E343E6"/>
<stop offset="0.641" stop-color="#E859BC"/>
<stop offset="0.819" stop-color="#F48F58"/>
<stop offset="0.942" stop-color="#FCB019"/>
<stop offset="1" stop-color="#FFBD00"/>
</linearGradient>
<linearGradient id="paint1_linear_2_3721" x1="253.541" y1="553.167" x2="212.989" y2="470.753" gradientUnits="userSpaceOnUse">
<stop stop-color="#7866FF"/>
<stop offset="0.202" stop-color="#965CF8"/>
<stop offset="0.64" stop-color="#E343E6"/>
<stop offset="0.968" stop-color="#FFBD00"/>
</linearGradient>
<linearGradient id="paint2_linear_2_3721" x1="197.527" y1="582.681" x2="221.465" y2="525.896" gradientUnits="userSpaceOnUse">
<stop offset="0.118" stop-color="#E343E6"/>
<stop offset="0.211" stop-color="#C84CEC"/>
<stop offset="0.338" stop-color="#AB55F3"/>
<stop offset="0.472" stop-color="#955DF8"/>
<stop offset="0.618" stop-color="#8562FC"/>
<stop offset="0.781" stop-color="#7B65FE"/>
<stop offset="1" stop-color="#7866FF"/>
</linearGradient>
<linearGradient id="paint3_linear_2_3721" x1="448.448" y1="512.388" x2="579.968" y2="512.388" gradientUnits="userSpaceOnUse">
<stop stop-color="#21D789"/>
<stop offset="1" stop-color="#07C3F2"/>
</linearGradient>
<linearGradient id="paint4_linear_2_3721" x1="291.99" y1="613.527" x2="562.807" y2="413.611" gradientUnits="userSpaceOnUse">
<stop offset="0.011" stop-color="#FCF84A"/>
<stop offset="0.112" stop-color="#A7EB62"/>
<stop offset="0.206" stop-color="#5FE077"/>
<stop offset="0.273" stop-color="#32DA84"/>
<stop offset="0.306" stop-color="#21D789"/>
<stop offset="0.577" stop-color="#21D789"/>
<stop offset="0.597" stop-color="#21D789"/>
<stop offset="0.686" stop-color="#20D68C"/>
<stop offset="0.763" stop-color="#1ED497"/>
<stop offset="0.835" stop-color="#19D1A9"/>
<stop offset="0.904" stop-color="#13CCC2"/>
<stop offset="0.971" stop-color="#0BC6E1"/>
<stop offset="1" stop-color="#07C3F2"/>
</linearGradient>
<linearGradient id="paint5_linear_2_3721" x1="398.983" y1="672.165" x2="444.152" y2="530.428" gradientUnits="userSpaceOnUse">
<stop stop-color="#21D789"/>
<stop offset="0.164" stop-color="#24D788"/>
<stop offset="0.305" stop-color="#2FD886"/>
<stop offset="0.437" stop-color="#41DA82"/>
<stop offset="0.564" stop-color="#5ADC7D"/>
<stop offset="0.688" stop-color="#7AE077"/>
<stop offset="0.809" stop-color="#A1E36E"/>
<stop offset="0.925" stop-color="#CFE865"/>
<stop offset="1" stop-color="#F1EB5E"/>
</linearGradient>
<linearGradient id="paint6_linear_2_3721" x1="458.795" y1="548.938" x2="557.089" y2="416.783" gradientUnits="userSpaceOnUse">
<stop stop-color="#21D789"/>
<stop offset="0.061" stop-color="#24D788"/>
<stop offset="0.113" stop-color="#2FD886"/>
<stop offset="0.162" stop-color="#41DA82"/>
<stop offset="0.209" stop-color="#5ADD7D"/>
<stop offset="0.255" stop-color="#79E077"/>
<stop offset="0.258" stop-color="#7CE076"/>
<stop offset="0.499" stop-color="#8CE173"/>
<stop offset="0.925" stop-color="#B2E56B"/>
</linearGradient>
<linearGradient id="paint7_linear_2_3721" x1="609.119" y1="565.756" x2="411.069" y2="563.922" gradientUnits="userSpaceOnUse">
<stop offset="0.387" stop-color="#FCF84A"/>
<stop offset="0.536" stop-color="#ECF451"/>
<stop offset="0.826" stop-color="#C2E964"/>
<stop offset="0.925" stop-color="#B2E56B"/>
</linearGradient>
<linearGradient id="paint8_linear_2_3721" x1="682.947" y1="517.569" x2="770.788" y2="607.241" gradientUnits="userSpaceOnUse">
<stop offset="0.097" stop-color="#E343E6"/>
<stop offset="0.108" stop-color="#D948E8"/>
<stop offset="0.165" stop-color="#AC5DEF"/>
<stop offset="0.222" stop-color="#876FF5"/>
<stop offset="0.279" stop-color="#6B7DF9"/>
<stop offset="0.336" stop-color="#5687FC"/>
<stop offset="0.392" stop-color="#4A8DFE"/>
<stop offset="0.446" stop-color="#468FFF"/>
<stop offset="0.935" stop-color="#00CAFF"/>
</linearGradient>
<linearGradient id="paint9_linear_2_3721" x1="679.986" y1="587.883" x2="736.288" y2="540.966" gradientUnits="userSpaceOnUse">
<stop offset="0.097" stop-color="#E343E6"/>
<stop offset="0.118" stop-color="#DE45E7"/>
<stop offset="0.289" stop-color="#B951F0"/>
<stop offset="0.462" stop-color="#9D5AF6"/>
<stop offset="0.632" stop-color="#8861FB"/>
<stop offset="0.802" stop-color="#7C65FE"/>
<stop offset="0.968" stop-color="#7866FF"/>
</linearGradient>
<linearGradient id="paint10_linear_2_3721" x1="753.318" y1="493.608" x2="793.392" y2="575.514" gradientUnits="userSpaceOnUse">
<stop offset="0.199" stop-color="#E343E6"/>
<stop offset="0.31" stop-color="#DA46E8"/>
<stop offset="0.491" stop-color="#C24EEE"/>
<stop offset="0.718" stop-color="#9A5BF7"/>
<stop offset="0.887" stop-color="#7866FF"/>
</linearGradient>
<linearGradient id="paint11_linear_2_3721" x1="704.795" y1="496.955" x2="805.466" y2="472.55" gradientUnits="userSpaceOnUse">
<stop offset="0.097" stop-color="#E343E6"/>
<stop offset="0.175" stop-color="#DA48E7"/>
<stop offset="0.302" stop-color="#C157EA"/>
<stop offset="0.464" stop-color="#996FEE"/>
<stop offset="0.653" stop-color="#6290F4"/>
<stop offset="0.863" stop-color="#1CB9FC"/>
<stop offset="0.941" stop-color="#00CAFF"/>
</linearGradient>
<clipPath id="clip0_2_3721">
<rect width="960" height="960" fill="white"/>
</clipPath>
<clipPath id="clip1_2_3721">
<rect width="170" height="170" fill="white" transform="translate(133.526 452.5)"/>
</clipPath>
<clipPath id="clip2_2_3721">
<rect width="221" height="221" fill="white" transform="translate(369.526 427)"/>
</clipPath>
<clipPath id="clip3_2_3721">
<rect width="170" height="170" fill="white" transform="translate(656.526 452.5)"/>
</clipPath>
</defs>
</svg>
