<svg width="21" height="23" viewBox="0 0 21 23" fill="none" xmlns="http://www.w3.org/2000/svg">
<circle cx="9" cy="14" r="9" fill="#11EFE3"/>
<circle cx="15.5" cy="5.5" r="5.5" fill="#9966FF" style="mix-blend-mode:multiply"/>
<path d="M11.1021 15.7868C11.3641 15.8742 11.6473 15.7326 11.7346 15.4706C11.8219 15.2086 11.6803 14.9255 11.4184 14.8382L11.1021 15.7868ZM9.2915 14.6562H8.7915C8.7915 14.8715 8.92922 15.0625 9.13339 15.1306L9.2915 14.6562ZM9.7915 11.9122C9.7915 11.636 9.56765 11.4122 9.2915 11.4122C9.01536 11.4122 8.7915 11.636 8.7915 11.9122H9.7915ZM11.4184 14.8382L9.44962 14.1819L9.13339 15.1306L11.1021 15.7868L11.4184 14.8382ZM9.7915 14.6562V11.9122H8.7915V14.6562H9.7915ZM14.0415 14C14.0415 16.6234 11.9149 18.75 9.2915 18.75V19.75C12.4671 19.75 15.0415 17.1756 15.0415 14H14.0415ZM9.2915 18.75C6.66815 18.75 4.5415 16.6234 4.5415 14H3.5415C3.5415 17.1756 6.11587 19.75 9.2915 19.75V18.75ZM4.5415 14C4.5415 11.3766 6.66815 9.25 9.2915 9.25V8.25C6.11587 8.25 3.5415 10.8244 3.5415 14H4.5415ZM9.2915 9.25C11.9149 9.25 14.0415 11.3766 14.0415 14H15.0415C15.0415 10.8244 12.4671 8.25 9.2915 8.25V9.25Z" fill="white"/>
<path d="M18 3.5L15.0169 6.5L14 5.47738" stroke="white" stroke-width="0.8" stroke-linecap="round" stroke-linejoin="round"/>
</svg>
