<svg width="21" height="23" viewBox="0 0 21 23" fill="none" xmlns="http://www.w3.org/2000/svg">
<circle cx="9" cy="14" r="9" fill="#11EFE3"/>
<circle cx="15.5" cy="5.5" r="5.5" fill="#9966FF" style="mix-blend-mode:multiply"/>
<path d="M7.69204 10.0747L6.58136 12.9524L8.4998 18.9254M8.4998 18.9254L10.4687 12.9019L9.40854 10.0747M8.4998 18.9254L3.2998 13.0029M8.4998 18.9254L13.6998 13.0029M3.2998 13.0029L5.52116 10.0747H11.5289L13.6998 13.0029M3.2998 13.0029H13.6998" stroke="white" stroke-linecap="round" stroke-linejoin="round"/>
<path d="M14.9198 4.6501H14.9501M16.6546 5.34555L18.129 6.81988C18.3026 6.99348 18.4001 7.22893 18.4001 7.47443V7.52737C18.4001 8.00936 18.0094 8.4001 17.5274 8.4001V8.4001V7.74555H16.8728V7.09101L16.0666 6.33177C15.8076 6.53408 15.4815 6.65464 15.1274 6.65464C14.2839 6.65464 13.6001 5.97086 13.6001 5.12737C13.6001 4.28388 14.2839 3.6001 15.1274 3.6001C15.9709 3.6001 16.6546 4.28388 16.6546 5.12737V5.34555Z" stroke="white" stroke-width="0.5" stroke-linecap="round" stroke-linejoin="round"/>
</svg>
