<?xml version="1.0" encoding="UTF-8"?>
<svg id="Layer_1" data-name="Layer 1" xmlns="http://www.w3.org/2000/svg" viewBox="0 0 158 48">
  <defs>
    <style>
      .cls-1 {
        fill: #010202;
        stroke-width: 0px;
      }
    </style>
  </defs>
  <path id="Logo0" class="cls-1" d="M8.37,28.78c0,1.72.38,3.05.87,3.85.53.93,1.53,1.5,2.6,1.49,1.27,0,2.44-.32,4.68-3.42,1.79-2.48,3.91-5.97,5.34-8.16l2.41-3.7c1.67-2.57,3.61-5.43,5.84-7.37,1.82-1.58,3.77-2.46,5.74-2.46,3.31,0,6.46,1.92,8.87,5.51,2.64,3.94,3.92,8.9,3.92,14.01,0,3.04-.6,5.28-1.62,7.04-.99,1.71-2.91,3.41-6.14,3.41v-4.87c2.77,0,3.46-2.54,3.46-5.45,0-4.15-.97-8.75-3.1-12.04-1.51-2.33-3.47-3.76-5.62-3.76-2.33,0-4.21,1.76-6.31,4.89-1.12,1.66-2.27,3.7-3.56,5.98l-1.42,2.52c-2.86,5.07-3.58,6.22-5.01,8.12-2.5,3.33-4.64,4.6-7.46,4.6-3.34,0-5.45-1.45-6.76-3.62-1.07-1.77-1.59-4.1-1.59-6.76l4.87.18Z"/>
  <path id="Logo1" class="cls-1" d="M7.34,14.87c2.24-3.45,5.46-5.85,9.16-5.85,2.14,0,4.27.63,6.5,2.45,2.43,1.99,5.03,5.25,8.26,10.64l1.16,1.93c2.8,4.67,4.39,7.06,5.33,8.2,1.2,1.45,2.04,1.89,3.13,1.89,2.77,0,3.46-2.54,3.46-5.45l4.3-.13c0,3.04-.6,5.28-1.62,7.04-.99,1.71-2.91,3.41-6.14,3.41-2.01,0-3.79-.44-5.76-2.29-1.51-1.42-3.28-3.96-4.64-6.23l-4.05-6.76c-2.03-3.39-3.89-5.92-4.97-7.07-1.16-1.23-2.65-2.72-5.03-2.72-1.93,0-3.56,1.35-4.93,3.42l-4.15-2.47Z"/>
  <path id="Logo2" class="cls-1" d="M16.42,13.91c-1.93,0-3.56,1.35-4.93,3.42-1.94,2.92-3.12,7.27-3.12,11.45,0,1.72.38,3.05.87,3.85l-4.16,2.74c-1.07-1.77-1.59-4.1-1.59-6.76,0-4.83,1.33-9.86,3.84-13.74,2.24-3.44,5.46-5.85,9.16-5.85l-.08,4.9Z"/>
  <path id="Text" class="cls-1" d="M58.11,9.96h5.64l9.59,17.35,9.59-17.35h5.52v28.5h-4.6v-21.85l-8.41,15.13h-4.32l-8.41-15.13v21.85h-4.6V9.96h0ZM102.86,20.59c-3.3,0-5.29,2.48-5.76,5.56h11.2c-.23-3.17-2.06-5.56-5.44-5.56h0ZM92.54,27.9c0-6.47,4.18-11.18,10.4-11.18s9.77,4.65,9.77,11.52v1.26h-15.62c.55,3.34,2.77,5.6,6.35,5.6,2.86,0,4.64-.87,6.33-2.46l2.44,2.99c-2.3,2.12-5.23,3.34-8.94,3.34-6.74,0-10.75-4.91-10.75-11.08h0ZM118.29,21h-4.23v-3.77h4.23v-6.23h4.44v6.23h6.43v3.77h-6.43v9.55c0,3.26,1.04,4.42,3.6,4.42.95,0,1.9-.09,2.83-.27v3.73c-1.2.34-2.44.51-3.69.51-4.79,0-7.19-2.62-7.19-7.86v-10.08ZM147.85,24.66c-.89-2.25-2.88-3.91-5.8-3.91-3.8,0-6.23,2.7-6.23,7.08s2.24,7.11,6.05,7.11c2.99,0,5.13-1.74,5.98-3.91v-6.37ZM152.29,38.46h-4.36v-2.97c-1.22,1.75-3.43,3.48-7.02,3.48-5.77,0-9.63-4.83-9.63-11.14s3.95-11.12,9.88-11.12c2.93,0,5.23,1.17,6.78,3.24v-2.73h4.36v21.23Z"/>
</svg>