<?xml version="1.0" encoding="UTF-8"?>
<svg id="Layer_1" data-name="Layer 1" xmlns="http://www.w3.org/2000/svg" xmlns:xlink="http://www.w3.org/1999/xlink" viewBox="0 0 158 48">
  <defs>
    <style>
      .cls-1 {
        clip-path: url(#clippath);
      }

      .cls-2 {
        fill: none;
      }

      .cls-2, .cls-3, .cls-4, .cls-5, .cls-6 {
        stroke-width: 0px;
      }

      .cls-3 {
        fill: url(#linear-gradient);
      }

      .cls-7 {
        clip-path: url(#clippath-1);
      }

      .cls-8 {
        clip-path: url(#clippath-2);
      }

      .cls-4 {
        fill: #868686;
      }

      .cls-5 {
        fill: url(#linear-gradient-2);
      }

      .cls-6 {
        fill: url(#linear-gradient-3);
      }
    </style>
    <clipPath id="clippath">
      <path class="cls-2" d="M31.22,14.85c-.16,4.03-3.46,8.58-7.14,9.93-.13.44-.22.91-.22,1.35,0,1.51.71,2.33,2.24,2.35,1.71-.02,3.68-1.42,4.92-2.66,1.55-1.68,2.68-3.57,3.24-5.41.07-.22.11-.42.16-.64,0-.04.02-.07.02-.11.47-2.28-.04-4.41-1.26-5.96-.04-.07-.09-.11-.16-.18-.04-.04-.07-.09-.11-.13-.58-.64-1.31-1.17-2.13-1.53.35.91.47,1.95.44,2.99Z"/>
    </clipPath>
    <linearGradient id="linear-gradient" x1="-851.76" y1="145.85" x2="-850.89" y2="145.85" gradientTransform="translate(4572.37 -16610.88) rotate(-65) scale(19.96)" gradientUnits="userSpaceOnUse">
      <stop offset="0" stop-color="#a6daf5"/>
      <stop offset=".1" stop-color="#adbfdb"/>
      <stop offset=".24" stop-color="#b4a1bf"/>
      <stop offset=".38" stop-color="#ba8caa"/>
      <stop offset=".51" stop-color="#bd7f9e"/>
      <stop offset=".64" stop-color="#be7b9a"/>
      <stop offset="1" stop-color="#be7b9a"/>
    </linearGradient>
    <clipPath id="clippath-1">
      <path class="cls-2" d="M12.69,21.89c.04,7.94,6.49,14.32,14.39,14.32,3.24,0,6.45-1.09,8.95-3.04s4.26-4.79,4.74-7.85c.04-.29.07-.58.09-.86.13-2.95-1.26-5.32-3.79-6.3.4.95.58,1.95.55,2.97,0,2.93-1.64,5.96-4.08,7.98-1.91,1.57-4.34,2.48-6.76,2.48-5.12-.04-9.44-4.34-9.44-9.6s5.32-10.68,10.91-10.68c4.41,0,7.49,4.17,6.03,9.09.27-.89.51-1.95.51-2.86,0-5.76-3.99-9.58-9.33-9.58-7.05,0-12.77,6.56-12.77,13.92Z"/>
    </clipPath>
    <linearGradient id="linear-gradient-2" x1="-875" y1="128.86" x2="-874.13" y2="128.86" gradientTransform="translate(-11520.1 -26685.18) rotate(-105) scale(32.91)" gradientUnits="userSpaceOnUse">
      <stop offset="0" stop-color="#b76c90"/>
      <stop offset=".35" stop-color="#c790ab"/>
      <stop offset=".55" stop-color="#d1a6bc"/>
      <stop offset=".91" stop-color="#f4baa0"/>
      <stop offset="1" stop-color="#f4baa0"/>
    </linearGradient>
    <clipPath id="clippath-2">
      <path class="cls-2" d="M23.11,17.9c-1.44,1.57-2.66,3.1-2.66,5.21,0,2.57,2.88,5.52,5.65,5.36-1.51-.02-2.24-.84-2.24-2.35,0-4.1,6.18-8.51,10.75-8.45,4.34.11,6.78,3.44,6.16,7.65,1.04-6.63-3.48-11.08-8.95-11.17h-.18c-2.84.02-5.96,1.2-8.53,3.75Z"/>
    </clipPath>
    <linearGradient id="linear-gradient-3" x1="-839.93" y1="136.8" x2="-839.06" y2="136.8" gradientTransform="translate(10573.22 -14625.5) rotate(-45) scale(21.22)" gradientUnits="userSpaceOnUse">
      <stop offset="0" stop-color="#b76c90"/>
      <stop offset=".23" stop-color="#b76c90"/>
      <stop offset=".62" stop-color="#d89799"/>
      <stop offset=".91" stop-color="#f4baa0"/>
      <stop offset="1" stop-color="#f4baa0"/>
    </linearGradient>
  </defs>
  <g>
    <path class="cls-4" d="M134.96,28.26v-1.49c0-.13-.07-.2-.2-.2h-.4c-.8,0-1.22-.42-1.22-1.26v-3.86h1.86c.13,0,.2-.07.2-.2v-1.4c0-.13-.07-.2-.2-.2h-1.86v-2.17c0-.13-.07-.2-.2-.2h-1.77c-.13,0-.2.07-.2.2v1.44c0,.4-.33.73-.73.73h-.24c-.13,0-.2.07-.2.2v1.4c0,.13.07.2.2.2h.93v4.19c0,1.91,1.09,2.95,2.86,2.95.38,0,.71-.04,1-.11.13-.02.18-.11.18-.22M115.17,28.26v-1.49c0-.13-.07-.2-.2-.2h-.38c-.8,0-1.22-.42-1.22-1.26v-3.86h1.86c.13,0,.2-.07.2-.2v-1.4c0-.13-.07-.2-.2-.2h-1.86v-2.17c0-.13-.07-.2-.2-.2h-1.75c-.13,0-.2.07-.2.2v1.44c0,.4-.33.73-.73.73h-.27c-.13,0-.2.07-.2.2v1.4c0,.13.07.2.2.2h.93v4.19c0,1.91,1.09,2.95,2.86,2.95.38,0,.71-.04,1-.11.11-.02.16-.11.16-.22M82.29,28.26v-1.49c0-.13-.07-.2-.2-.2h-.4c-.8,0-1.22-.42-1.22-1.26v-3.86h1.86c.13,0,.2-.07.2-.2v-1.4c0-.13-.07-.2-.2-.2h-1.86v-2.17c0-.13-.07-.2-.2-.2h-1.77c-.13,0-.2.07-.2.2v1.44c0,.4-.33.73-.73.73h-.27c-.13,0-.2.07-.2.2v1.4c0,.13.07.2.2.2h.93v4.19c0,1.91,1.09,2.95,2.86,2.95.4,0,.73-.04,1.02-.11.13-.02.18-.11.18-.22M100.09,23.07h-4.1c.2-1.11,1.04-1.75,2.15-1.75,1.04,0,1.86.64,1.95,1.75h0ZM102.27,23.49c0-2.31-1.62-4.03-4.1-4.03-2.62,0-4.48,2.04-4.48,4.59s1.91,4.54,4.77,4.54c1.37,0,2.44-.38,3.48-1.31.09-.09.09-.2,0-.27l-.98-1.15c-.09-.09-.18-.11-.27-.02-.53.47-1.22.84-2.15.84-1.29,0-2.42-.71-2.57-2.08h5.94c.11,0,.2-.07.22-.18.09-.31.13-.6.13-.93M64.87,23.07h-4.1c.2-1.11,1.04-1.75,2.15-1.75,1.04,0,1.86.64,1.95,1.75h0ZM67.04,23.49c0-2.31-1.62-4.03-4.1-4.03-2.62,0-4.48,2.04-4.48,4.59s1.91,4.54,4.77,4.54c1.37,0,2.44-.38,3.48-1.31.09-.09.09-.18,0-.27l-.98-1.15c-.09-.09-.18-.11-.29-.02-.51.47-1.22.84-2.15.84-1.29,0-2.42-.71-2.57-2.08h5.94c.11,0,.18-.07.22-.18.11-.31.16-.6.16-.93M124.79,28.32v-1.55c0-.13-.07-.2-.2-.2h-.04c-.66,0-.78-.44-.78-1v-9.09c0-.13-.07-.2-.2-.2h-1.82c-.13,0-.2.07-.2.2v9.53c0,1.84,1.09,2.57,2.53,2.57.18,0,.38-.02.53-.04.11-.02.18-.09.18-.22M46.5,28.39h1.86c.13,0,.2-.07.2-.2v-8.07l5.96,8.13c.07.09.13.11.24.11h1.57c.13,0,.2-.07.2-.2v-11.75c0-.13-.07-.2-.2-.2h-1.86c-.13,0-.2.07-.2.2v8l-5.94-8.07c-.07-.09-.13-.11-.24-.11h-1.6c-.13,0-.2.07-.2.2v11.75c0,.13.09.2.2.2M67.89,28.39h2.06c.09,0,.18-.02.24-.13l1.77-2.77,1.77,2.77c.07.09.13.13.24.13h2.06c.16,0,.22-.11.13-.24l-2.82-4.19,2.68-4.06c.09-.13.02-.24-.13-.24h-2.11c-.11,0-.18.04-.24.13l-1.64,2.7-1.66-2.7c-.07-.09-.13-.13-.24-.13h-2.11c-.16,0-.22.11-.13.24l2.75,4.08-2.82,4.19c-.04.11.02.22.18.22M86.26,16.44v11.75c0,.13.07.2.2.2h1.86c.13,0,.2-.07.2-.2v-4.7h3.72c.13,0,.2-.07.2-.2v-1.57c0-.13-.07-.2-.2-.2h-3.72v-3.3h4.9c.13,0,.2-.07.2-.2v-1.57c0-.13-.07-.2-.2-.2h-6.96c-.11,0-.2.07-.2.2M105.92,19.66h-1.8c-.13,0-.2.07-.2.2v8.33c0,.13.07.2.2.2h1.84c.13,0,.2-.07.2-.2v-3.64c0-1.8.93-2.97,2.5-2.97h.27c.13.02.22-.02.22-.16v-1.75c0-.11-.04-.2-.18-.22-.09-.02-.22-.02-.35-.02-1.17,0-2.06.66-2.48,1.73v-1.33c-.02-.11-.09-.18-.22-.18M117.34,28.39h1.82c.13,0,.2-.07.2-.2v-8.33c0-.13-.07-.2-.2-.2h-1.82c-.13,0-.2.07-.2.2v8.33c0,.13.07.2.2.2M118.22,15.89c-.75,0-1.29.51-1.29,1.26s.55,1.26,1.29,1.26c.69,0,1.29-.53,1.29-1.26,0-.75-.6-1.26-1.29-1.26M126.38,28.39h1.82c.13,0,.2-.07.2-.2v-8.33c0-.13-.07-.2-.2-.2h-1.82c-.13,0-.2.07-.2.2v8.33c0,.13.09.2.2.2M127.29,15.89c-.73,0-1.29.51-1.29,1.26s.55,1.26,1.29,1.26,1.29-.53,1.29-1.26-.6-1.26-1.29-1.26M139.77,28.14l-.2.55c-.38,1.13-.91,1.42-1.64,1.42-.2,0-.55-.02-.93-.18-.16-.07-.24,0-.24.13v1.46c0,.11.04.18.16.22.4.16.84.24,1.31.24,1.64,0,2.53-.84,3.26-2.64l3.81-9.49c.04-.13,0-.22-.16-.22h-1.88c-.11,0-.2.04-.22.16l-2.15,5.92-2.17-5.92c-.04-.11-.11-.16-.22-.16h-1.95c-.16,0-.2.09-.16.22l3.39,8.27Z"/>
    <g>
      <g class="cls-1">
        <polygon class="cls-3" points="17.5 25.53 25.86 7.64 41.29 14.85 32.95 32.73 17.5 25.53"/>
      </g>
      <g class="cls-7">
        <polygon class="cls-5" points="14.6 43.31 5.65 9.88 39.12 .9 48.07 34.33 14.6 43.31"/>
      </g>
      <g class="cls-8">
        <polygon class="cls-6" points="13.23 21.41 31.14 3.5 49.07 21.41 31.14 39.34 13.23 21.41"/>
      </g>
    </g>
  </g>
  <path class="cls-4" d="M134.96,28.14v-1.49c0-.13-.07-.2-.2-.2h-.4c-.8,0-1.22-.42-1.22-1.26v-3.86h1.86c.13,0,.2-.07.2-.2v-1.4c0-.13-.07-.2-.2-.2h-1.86v-2.17c0-.13-.07-.2-.2-.2h-1.77c-.13,0-.2.07-.2.2v1.44c0,.4-.33.73-.73.73h-.24c-.13,0-.2.07-.2.2v1.4c0,.13.07.2.2.2h.93v4.19c0,1.91,1.09,2.95,2.86,2.95.38,0,.71-.04,1-.11.13-.02.18-.09.18-.22M115.17,28.14v-1.49c0-.13-.07-.2-.2-.2h-.38c-.8,0-1.22-.42-1.22-1.26v-3.86h1.86c.13,0,.2-.07.2-.2v-1.4c0-.13-.07-.2-.2-.2h-1.86v-2.17c0-.13-.07-.2-.2-.2h-1.75c-.13,0-.2.07-.2.2v1.44c0,.4-.33.73-.73.73h-.27c-.13,0-.2.07-.2.2v1.4c0,.13.07.2.2.2h.93v4.19c0,1.91,1.09,2.95,2.86,2.95.38,0,.71-.04,1-.11.11-.02.16-.09.16-.22M82.29,28.14v-1.49c0-.13-.07-.2-.2-.2h-.4c-.8,0-1.22-.42-1.22-1.26v-3.86h1.86c.13,0,.2-.07.2-.2v-1.4c0-.13-.07-.2-.2-.2h-1.86v-2.17c0-.13-.07-.2-.2-.2h-1.77c-.13,0-.2.07-.2.2v1.44c0,.4-.33.73-.73.73h-.27c-.13,0-.2.07-.2.2v1.4c0,.13.07.2.2.2h.93v4.19c0,1.91,1.09,2.95,2.86,2.95.4,0,.73-.04,1.02-.11.13-.02.18-.09.18-.22M100.09,22.96h-4.1c.2-1.11,1.04-1.75,2.15-1.75,1.04,0,1.86.64,1.95,1.75h0ZM102.27,23.38c0-2.31-1.62-4.03-4.1-4.03-2.62,0-4.48,2.04-4.48,4.59s1.91,4.54,4.77,4.54c1.37,0,2.44-.38,3.48-1.31.09-.09.09-.2,0-.27l-.98-1.15c-.09-.09-.18-.11-.27-.02-.53.47-1.22.84-2.15.84-1.29,0-2.42-.71-2.57-2.08h5.94c.11,0,.2-.07.22-.18.09-.31.13-.6.13-.93M64.87,22.96h-4.1c.2-1.11,1.04-1.75,2.15-1.75,1.04,0,1.86.64,1.95,1.75h0ZM67.04,23.38c0-2.31-1.62-4.03-4.1-4.03-2.62,0-4.48,2.04-4.48,4.59s1.91,4.54,4.77,4.54c1.37,0,2.44-.38,3.48-1.31.09-.09.09-.18,0-.27l-.98-1.15c-.09-.09-.18-.11-.29-.02-.51.47-1.22.84-2.15.84-1.29,0-2.42-.71-2.57-2.08h5.94c.11,0,.18-.07.22-.18.11-.31.16-.6.16-.93M124.79,28.21v-1.55c0-.13-.07-.2-.2-.2h-.04c-.66,0-.78-.44-.78-1v-9.09c0-.13-.07-.2-.2-.2h-1.82c-.13,0-.2.07-.2.2v9.53c0,1.84,1.09,2.57,2.53,2.57.18,0,.38-.02.53-.04.11-.02.18-.09.18-.22M46.5,28.28h1.86c.13,0,.2-.07.2-.2v-8.07l5.96,8.13c.07.09.13.11.24.11h1.57c.13,0,.2-.07.2-.2v-11.75c0-.13-.07-.2-.2-.2h-1.86c-.13,0-.2.07-.2.2v8l-5.94-8.09c-.07-.09-.13-.11-.24-.11h-1.6c-.13,0-.2.07-.2.2v11.75c0,.16.09.22.2.22M67.89,28.28h2.06c.09,0,.18-.02.24-.13l1.77-2.77,1.77,2.77c.07.09.13.13.24.13h2.06c.16,0,.22-.11.13-.24l-2.82-4.19,2.75-4.08c.09-.13.02-.24-.13-.24h-2.11c-.11,0-.18.04-.24.13l-1.64,2.7-1.71-2.68c-.07-.09-.13-.13-.24-.13h-2.11c-.16,0-.22.11-.13.24l2.75,4.08-2.82,4.19c-.07.11,0,.22.16.22M86.26,16.33v11.75c0,.13.07.2.2.2h1.86c.13,0,.2-.07.2-.2v-4.7h3.72c.13,0,.2-.07.2-.2v-1.57c0-.13-.07-.2-.2-.2h-3.72v-3.28h4.9c.13,0,.2-.07.2-.2v-1.57c0-.13-.07-.2-.2-.2h-6.96c-.11-.02-.2.04-.2.18M105.92,19.54h-1.8c-.13,0-.2.07-.2.2v8.33c0,.13.07.2.2.2h1.84c.13,0,.2-.07.2-.2v-3.64c0-1.8.93-2.97,2.5-2.97h.27c.13.02.22-.02.22-.16v-1.75c0-.11-.04-.2-.18-.22-.09-.02-.22-.02-.35-.02-1.17,0-2.06.66-2.48,1.73v-1.33c-.02-.09-.09-.18-.22-.18M117.34,28.28h1.82c.13,0,.2-.07.2-.2v-8.33c0-.13-.07-.2-.2-.2h-1.82c-.13,0-.2.07-.2.2v8.33c0,.13.07.2.2.2M118.22,15.78c-.75,0-1.29.51-1.29,1.26s.55,1.26,1.29,1.26c.69,0,1.29-.53,1.29-1.26,0-.75-.6-1.26-1.29-1.26M126.38,28.28h1.82c.13,0,.2-.07.2-.2v-8.33c0-.13-.07-.2-.2-.2h-1.82c-.13,0-.2.07-.2.2v8.33c0,.13.09.2.2.2M127.29,15.78c-.73,0-1.29.51-1.29,1.26s.55,1.26,1.29,1.26,1.29-.53,1.29-1.26-.6-1.26-1.29-1.26M139.77,28.03l-.2.55c-.38,1.13-.91,1.42-1.64,1.42-.2,0-.55-.02-.93-.18-.16-.07-.24,0-.24.13v1.46c0,.11.04.18.16.22.4.16.84.24,1.31.24,1.64,0,2.53-.84,3.26-2.64l3.81-9.46c.04-.13,0-.22-.16-.22h-1.88c-.11,0-.2.04-.22.16l-2.15,5.92-2.17-5.92c-.04-.11-.11-.16-.22-.16h-1.95c-.16,0-.2.09-.16.22l3.39,8.25Z"/>
  <g>
    <path class="cls-4" d="M47.21,37.88c.4.75,1.02,1.09,1.77,1.09.93,0,1.51-.53,1.51-1.06,0-.8-.69-1.04-1.73-1.51-1.06-.49-2.26-.89-2.26-2.37,0-1.15,1.04-2.08,2.53-2.08.89,0,1.91.38,2.44,1.33l-.84.58c-.42-.66-1.02-.91-1.62-.91-.84,0-1.4.42-1.4,1.04,0,.78.75,1.04,1.8,1.51,1.26.58,2.19,1,2.19,2.35,0,1.11-.91,2.13-2.64,2.13-1.13,0-2.13-.51-2.66-1.51l.91-.58Z"/>
    <path class="cls-4" d="M53.19,34.28v-1.53h1.04v1.53h1.44v.89h-1.44v2.93c0,.62.29.91.91.91.11,0,.4-.02.66-.18v.98c-.2.11-.51.18-.89.18-1.09,0-1.75-.64-1.75-1.77v-3.01h-.84v-.89h.86v-.02Z"/>
    <path class="cls-4" d="M57.34,38.65c.35,0,.66.29.66.66s-.31.69-.66.69-.66-.31-.66-.69c-.02-.35.29-.66.66-.66Z"/>
    <path class="cls-4" d="M64.61,31.96c1.53,0,2.57.75,3.21,1.6l-.8.73c-.49-.69-1.29-1.26-2.42-1.26-1.62,0-2.84,1.26-2.84,2.97s1.22,2.97,2.84,2.97c1.13,0,1.86-.49,2.37-1.17v-1h-1.97v-.95h2.99v2.37c-.71,1.04-1.88,1.82-3.39,1.82-2.19,0-3.97-1.73-3.97-4.03s1.77-4.03,3.97-4.03Z"/>
    <path class="cls-4" d="M70.88,36.72l1.75-.33v-.11c0-.73-.49-1.15-1.31-1.15-.58,0-1.15.27-1.55.71l-.55-.71c.55-.64,1.29-.95,2.22-.95,1.4,0,2.28.82,2.28,2.15v3.57h-1v-.86c-.4.66-1.04,1-1.82,1-1.04,0-1.82-.69-1.82-1.62-.02-.89.6-1.44,1.8-1.68ZM71.06,39.12c.91,0,1.62-.75,1.62-1.53v-.35l-1.6.31c-.66.13-.95.38-.95.8-.02.44.38.78.93.78Z"/>
    <path class="cls-4" d="M76.42,32.09v6.21c0,.42.09.73.51.73.09,0,.22,0,.35-.07v.95c-.16.07-.33.09-.49.09-.73,0-1.46-.33-1.46-1.53v-6.38h1.09Z"/>
    <path class="cls-4" d="M79.57,32.09v6.21c0,.42.09.73.51.73.09,0,.22,0,.35-.07v.95c-.16.07-.33.09-.49.09-.73,0-1.46-.33-1.46-1.53v-6.38h1.09Z"/>
    <path class="cls-4" d="M84,34.15c1.6,0,2.59,1.15,2.59,2.59,0,.2-.02.42-.04.6h-4.23c.09,1.06.91,1.66,1.88,1.66.64,0,1.2-.29,1.57-.71l.64.75c-.62.64-1.35.93-2.26.93-1.8,0-2.99-1.26-2.99-2.93s1.15-2.9,2.84-2.9ZM82.34,36.5h3.21v-.02c-.07-.82-.71-1.35-1.53-1.35-.86,0-1.53.51-1.68,1.37Z"/>
    <path class="cls-4" d="M87.99,34.28h1.04v.84c.31-.58.89-.98,1.82-.98,1.26,0,2.17.86,2.17,2.35v3.39h-1.06v-3.35c0-.93-.6-1.4-1.31-1.4-1.15,0-1.57,1.06-1.57,1.91v2.84h-1.06v-5.61h-.02Z"/>
  </g>
</svg>