<?xml version="1.0" encoding="UTF-8"?>
<svg id="Ebene_1" data-name="Ebene 1" xmlns="http://www.w3.org/2000/svg" viewBox="0 0 218.01 109.42">
  <defs>
    <style>
      .cls-1 {
        fill: #11efe3;
      }
    </style>
  </defs>
  <rect x="11.96" y="57.61" width="14.97" height="37.71" rx="2" ry="2" transform="translate(-20.87 144.29) rotate(-135)"/>
  <rect x="7.52" y="39.12" width="14.94" height="29.98" rx="2.07" ry="2.07" transform="translate(-39.12 69.1) rotate(-90)"/>
  <rect x="13.68" y="11.51" width="14.68" height="44.03" rx="2.02" ry="2.02" transform="translate(-17.55 24.68) rotate(-45)"/>
  <path d="m43.69,62.73l-6.22-6.78c-.63-.69-.63-1.74,0-2.43l6.22-6.78c.08-.08.16-.13.26-.17V3.59c0-1.99-1.61-3.59-3.59-3.59h-7.75c-1.99,0-3.59,1.61-3.59,3.59v101.15c0,1.99,1.61,3.59,3.59,3.59h7.75c1.99,0,3.59-1.61,3.59-3.59v-41.84c-.27-.07-.18-.09-.26-.17Z"/>
  <g>
    <path d="m51.08,1.1h39.63c.92,0,1.66.74,1.66,1.66v9.09c0,.92-.74,1.66-1.66,1.66h-10.97c-.92,0-1.66.74-1.66,1.66v34.12c0,.92-.74,1.66-1.66,1.66h-11.25c-.92,0-1.66-.74-1.66-1.66V15.18c0-.92-.74-1.66-1.66-1.66h-10.76c-.92,0-1.66-.74-1.66-1.66V2.76c0-.92.74-1.66,1.66-1.66Z"/>
    <path d="m97.45,1.1h9.86c.92,0,1.66.74,1.66,1.66v6.65c0,.92-.74,1.66-1.66,1.66h-9.86c-.92,0-1.66-.74-1.66-1.66V2.76c0-.92.74-1.66,1.66-1.66Zm0,14.3h9.86c.92,0,1.66.74,1.66,1.66v32.24c0,.92-.74,1.66-1.66,1.66h-9.86c-.92,0-1.66-.74-1.66-1.66V17.06c0-.92.74-1.66,1.66-1.66Z"/>
    <path d="m115.37,1.1h10.21c.92,0,1.66.74,1.66,1.66v46.54c0,.92-.74,1.66-1.66,1.66h-10.21c-.92,0-1.66-.74-1.66-1.66V2.76c0-.92.74-1.66,1.66-1.66Z"/>
    <path d="m133.64,1.1h10.21c.92,0,1.66.74,1.66,1.66v46.54c0,.92-.74,1.66-1.66,1.66h-10.21c-.92,0-1.66-.74-1.66-1.66V2.76c0-.92.74-1.66,1.66-1.66Z"/>
  </g>
  <g>
    <path d="m52.23,58.45h39.69c.9,0,1.63.73,1.63,1.63v9.15c0,.9-.73,1.63-1.63,1.63h-11.03c-.9,0-1.63.73-1.63,1.63v34.18c0,.9-.73,1.63-1.63,1.63h-11.31c-.9,0-1.63-.73-1.63-1.63v-34.18c0-.9-.73-1.63-1.63-1.63h-10.82c-.9,0-1.63-.73-1.63-1.63v-9.15c0-.9.73-1.63,1.63-1.63Z"/>
    <path d="m87.14,90.45c0-10.74,7.74-18.9,18.97-18.9,5.58,0,9.83,1.81,13.11,4.81,3.97,3.65,6,9.3,6.2,15.65.03.93-.7,1.71-1.63,1.71h-21.59c-1.14,0-1.95,1.14-1.53,2.2,1.08,2.79,3.16,4.42,6.36,4.42,2.04,0,3.59-.71,4.6-2.09.27-.37.72-.56,1.18-.56h9.6c1.19,0,2.02,1.25,1.48,2.32-1.19,2.36-3.27,4.57-5.9,6.26-3.28,2.09-6.83,3-11.37,3-11.65,0-19.46-7.95-19.46-18.83Zm15.03-3.7h8.08c1.11,0,1.93-1.1,1.55-2.15-.95-2.66-2.89-4.19-5.41-4.19-2.89,0-4.77,1.56-5.76,4.17-.4,1.05.42,2.18,1.54,2.18Z"/>
    <path d="m127.23,90.59c0-10.81,7.81-18.9,19.52-18.9,9.23,0,15.64,5.01,17.31,12.27.23,1-.57,1.96-1.6,1.96h-9.52c-.71,0-1.33-.47-1.55-1.14-.8-2.49-2.29-3.88-4.79-3.88-4.04,0-6,3.7-6,9.69s2.09,9.55,6.14,9.55c2.83,0,4.41-1.68,4.98-4.84.14-.78.81-1.36,1.6-1.36h9.53c.97,0,1.74.84,1.63,1.8-.91,7.88-7.82,13.68-17.75,13.68-11.71,0-19.52-8.02-19.52-18.83Z"/>
    <path d="m180.86,76.79h.21c2.65-3.07,5.86-5.16,10.81-5.16,8.23,0,12.48,5.51,12.48,13.67v21.38c0,.9-.73,1.63-1.63,1.63h-9.92c-.9,0-1.63-.73-1.63-1.63v-18.17c0-3.7-1.53-6.14-4.95-6.14s-5.37,2.93-5.37,6.76v17.54c0,.9-.73,1.63-1.63,1.63h-9.92c-.9,0-1.63-.73-1.63-1.63v-46.6c0-.9.73-1.63,1.63-1.63h9.92c.9,0,1.63.73,1.63,1.63v16.71Z"/>
  </g>
  <circle class="cls-1" cx="213.03" cy="101.43" r="4.98"/>
</svg>