<svg width="21" height="23" viewBox="0 0 21 23" fill="none" xmlns="http://www.w3.org/2000/svg">
<circle cx="9" cy="14" r="9" fill="#11EFE3"/>
<circle cx="15.5" cy="5.5" r="5.5" fill="#9966FF" style="mix-blend-mode:multiply"/>
<path d="M5.80983 14.2182L5.17076 14.8573M5.10398 12.5138H4.2002M5.17076 10.1707L5.80983 10.8098M7.51423 9.19995V10.1037M9.85729 10.1707L9.21821 10.8098M11.009 15.9977L13.3101 15.1944C13.7415 15.0438 13.7582 14.4398 13.3356 14.2722L8.07088 12.4387C7.67512 12.2817 7.27716 12.6699 7.42427 13.0695L9.1482 18.4809C9.30518 18.9073 9.90887 18.906 10.0705 18.4788L11.009 15.9977Z" stroke="white" stroke-linecap="round" stroke-linejoin="round"/>
<path d="M14.4541 8.29995L13.6001 7.24995M13.6001 7.24995L14.4541 6.19995M13.6001 7.24995H17.8001C18.1315 7.24995 18.4001 6.93655 18.4001 6.54995V5.49995M17.5461 2.69995L18.4001 3.74995M18.4001 3.74995L17.5461 4.79995M18.4001 3.74995L14.2001 3.74995C13.8687 3.74995 13.6001 4.06335 13.6001 4.44995L13.6001 5.49995" stroke="white" stroke-width="0.7" stroke-linecap="round" stroke-linejoin="round"/>
</svg>
